STARTFONT 2.1
COMMENT
COMMENT Converted from OpenType font "SourceSansPro-Black.otf" by "otf2bdf 3.0".
COMMENT
FONT -FreeType-Source Sans Pro Black-Medium-R-Normal--36-260-100-100-P-189-ISO10646-1
SIZE 26 100 100
FONTBOUNDINGBOX 95 48 -17 -10
STARTPROPERTIES 19
FOUNDRY "FreeType"
FAMILY_NAME "Source Sans Pro Black"
WEIGHT_NAME "Medium"
SLANT "R"
SETWIDTH_NAME "Normal"
ADD_STYLE_NAME ""
PIXEL_SIZE 36
POINT_SIZE 260
RESOLUTION_X 100
RESOLUTION_Y 100
SPACING "P"
AVERAGE_WIDTH 189
CHARSET_REGISTRY "ISO10646"
CHARSET_ENCODING "1"
FONT_ASCENT 35
FONT_DESCENT 9
COPYRIGHT "Copyright 2010, 2012, 2014 Adobe Systems Incorporated (http://www.adobe.com/), with Reserved Font Name Source."
_OTF_FONTFILE "SourceSansPro-Black.otf"
_OTF_PSNAME "SourceSansPro-Black"
ENDPROPERTIES
CHARS 1296
STARTCHAR 0020
ENCODING 32
SWIDTH 193 0
DWIDTH 7 0
BBX 0 0 0 0
BITMAP
ENDCHAR
STARTCHAR 0021
ENCODING 33
SWIDTH 360 0
DWIDTH 13 0
BBX 7 25 3 0
BITMAP
FE
FE
FE
FC
7C
7C
7C
7C
7C
7C
7C
7C
7C
7C
7C
7C
00
00
7C
FE
FE
FE
FE
7C
38
ENDCHAR
STARTCHAR 0022
ENCODING 34
SWIDTH 581 0
DWIDTH 21 0
BBX 15 13 3 12
BITMAP
FC7E
FC7E
FC7E
FC7E
FC7E
FC7E
F87E
F83E
F83E
783C
783C
783C
783C
ENDCHAR
STARTCHAR 0023
ENCODING 35
SWIDTH 553 0
DWIDTH 20 0
BBX 17 24 1 0
BITMAP
070E00
070E00
071E00
071E00
0F1E00
0F1E00
7FFF80
7FFF80
7FFF80
7FFF80
0E3C00
0E3C00
1E3C00
1E3C00
FFFF80
FFFF80
FFFF80
FFFF80
1C3800
1C7800
3C7800
3C7800
3C7800
3C7000
ENDCHAR
STARTCHAR 0024
ENCODING 36
SWIDTH 553 0
DWIDTH 20 0
BBX 16 31 1 -4
BITMAP
01E0
01E0
01E0
01E0
07F8
1FFC
3FFF
3FFF
7FFE
7E0C
7E00
7F00
7F80
3FE0
3FF8
1FFC
07FE
01FF
007F
003F
003F
383F
7FFF
7FFF
FFFE
3FFC
0FF0
01E0
01E0
01E0
01E0
ENDCHAR
STARTCHAR 0025
ENCODING 37
SWIDTH 858 0
DWIDTH 31 0
BBX 30 24 1 0
BITMAP
0F001C00
3FC03C00
7FE03800
7FE07800
F1F07000
F0F0F000
F0F0E000
F0F1E000
F0F1C000
F0F3C7C0
F9F38FE0
7FE79FF0
7FE73EF8
3FCF3C78
1F0E3C78
001E3C7C
001C7C7C
003C3C7C
00383C78
00783C78
00703EF8
00F01FF0
01E00FE0
01C007C0
ENDCHAR
STARTCHAR 0026
ENCODING 38
SWIDTH 692 0
DWIDTH 25 0
BBX 23 24 1 0
BITMAP
01F000
07FC00
0FFE00
1FFE00
1F1E00
1F1F00
1F1E00
1F3E00
1FFE00
1FFC00
0FF87E
1FE07E
3FE07C
7FF8FC
FFFCF8
FDFFF8
FCFFF0
FC7FE0
FC1FF8
FFFFFE
7FFFFE
7FFFFC
3FFC7C
0FF00C
ENDCHAR
STARTCHAR 0027
ENCODING 39
SWIDTH 332 0
DWIDTH 12 0
BBX 6 13 3 12
BITMAP
FC
FC
FC
FC
FC
FC
F8
F8
F8
78
78
78
78
ENDCHAR
STARTCHAR 0028
ENCODING 40
SWIDTH 360 0
DWIDTH 13 0
BBX 9 33 2 -7
BITMAP
0600
0F80
0F80
1F00
1F00
3E00
3E00
3E00
3C00
7C00
7C00
7C00
7C00
7C00
7C00
F800
F800
F800
7C00
7C00
7C00
7C00
7C00
7C00
3C00
3E00
3E00
3E00
1F00
1F00
0F80
0F80
0400
ENDCHAR
STARTCHAR 0029
ENCODING 41
SWIDTH 360 0
DWIDTH 13 0
BBX 9 33 2 -7
BITMAP
3000
F800
F800
7C00
7C00
3E00
3E00
3E00
1F00
1F00
1F00
1F00
1F00
1F00
1F80
0F80
0F80
0F80
1F80
1F00
1F00
1F00
1F00
1F00
1F00
3E00
3E00
3E00
7C00
7C00
F800
F800
1000
ENDCHAR
STARTCHAR 002A
ENCODING 42
SWIDTH 470 0
DWIDTH 17 0
BBX 15 14 1 12
BITMAP
0380
0380
0380
03C0
7FFC
FFFE
FFFE
3FF8
0FE0
0FE0
1FF0
3EF8
3C78
0820
ENDCHAR
STARTCHAR 002B
ENCODING 43
SWIDTH 553 0
DWIDTH 20 0
BBX 17 17 1 3
BITMAP
03E000
03E000
03E000
03E000
03E000
03E000
FFFF80
FFFF80
FFFF80
FFFF80
03E000
03E000
03E000
03E000
03E000
03E000
03E000
ENDCHAR
STARTCHAR 002C
ENCODING 44
SWIDTH 332 0
DWIDTH 12 0
BBX 8 14 2 -7
BITMAP
3C
7E
FF
FF
FF
7F
3F
0F
0F
1E
7E
FC
F8
60
ENDCHAR
STARTCHAR 002D
ENCODING 45
SWIDTH 332 0
DWIDTH 12 0
BBX 9 4 2 7
BITMAP
FF80
FF80
FF80
FF80
ENDCHAR
STARTCHAR 002E
ENCODING 46
SWIDTH 332 0
DWIDTH 12 0
BBX 7 7 2 1
BITMAP
7C
7E
FE
FE
FE
7E
3C
ENDCHAR
STARTCHAR 002F
ENCODING 47
SWIDTH 332 0
DWIDTH 12 0
BBX 10 31 1 -6
BITMAP
03C0
0780
0780
0780
0780
0780
0F00
0F00
0F00
0F00
0F00
1E00
1E00
1E00
1E00
1E00
3C00
3C00
3C00
3C00
3C00
7800
7800
7800
7800
7800
F000
F000
F000
F000
F000
ENDCHAR
STARTCHAR 0030
ENCODING 48
SWIDTH 553 0
DWIDTH 20 0
BBX 17 23 1 0
BITMAP
03F000
0FFC00
1FFE00
3FFE00
3FFF00
7E3F00
7E1F80
7C1F80
FC1F80
FC1F80
FC1F80
FC1F80
FC1F80
FC1F80
FC1F80
7C1F80
7E1F80
7E3F00
3FFF00
3FFE00
1FFC00
0FF800
03F000
ENDCHAR
STARTCHAR 0031
ENCODING 49
SWIDTH 553 0
DWIDTH 20 0
BBX 16 23 2 0
BITMAP
03F0
0FF0
7FF0
7FF0
7FF0
7FF0
07F0
07F0
07F0
07F0
07F0
07F0
07F0
07F0
07F0
07F0
07F0
07F0
FFFF
FFFF
FFFF
FFFF
FFFF
ENDCHAR
STARTCHAR 0032
ENCODING 50
SWIDTH 553 0
DWIDTH 20 0
BBX 17 23 1 0
BITMAP
07E000
1FF800
7FFC00
FFFE00
7FFE00
387F00
103F00
003F00
003F00
003E00
007E00
00FE00
00FC00
01F800
03F800
07F000
0FE000
1FC000
7FFF80
FFFF80
FFFF80
FFFF80
FFFF80
ENDCHAR
STARTCHAR 0033
ENCODING 51
SWIDTH 553 0
DWIDTH 20 0
BBX 17 23 1 0
BITMAP
07F000
3FFC00
7FFE00
7FFE00
3FFF00
387F00
003F00
003F00
00FE00
07FE00
07F800
07FC00
07FE00
01FF00
003F00
001F80
203F80
783F80
7FFF00
FFFF00
FFFE00
3FFC00
0FE000
ENDCHAR
STARTCHAR 0034
ENCODING 52
SWIDTH 553 0
DWIDTH 20 0
BBX 18 23 1 0
BITMAP
01FE00
01FE00
03FE00
07FE00
07FE00
0FBE00
0FBE00
1F3E00
1F3E00
3E3E00
7E7E00
7C7E00
FC7E00
FFFFC0
FFFFC0
FFFFC0
FFFFC0
FFFFC0
007E00
007E00
007E00
007E00
007E00
ENDCHAR
STARTCHAR 0035
ENCODING 53
SWIDTH 553 0
DWIDTH 20 0
BBX 17 23 1 0
BITMAP
3FFF00
3FFF00
3FFF00
3FFF00
3FFF00
3E0000
3E0000
3E0000
3FF000
3FFC00
3FFE00
3FFF00
1C7F00
003F80
003F80
001F80
203F80
787F00
7FFF00
FFFE00
7FFE00
3FF800
0FE000
ENDCHAR
STARTCHAR 0036
ENCODING 54
SWIDTH 553 0
DWIDTH 20 0
BBX 17 23 1 0
BITMAP
01F800
07FE00
0FFF80
1FFF00
3FFF00
3F0E00
7E0000
7E0000
7C0000
7CFC00
FFFE00
FFFF00
FFFF80
FE1F80
7C0F80
7C0F80
7E0F80
7E1F80
3FFF80
3FFF00
1FFE00
0FFC00
03F000
ENDCHAR
STARTCHAR 0037
ENCODING 55
SWIDTH 553 0
DWIDTH 20 0
BBX 16 23 2 0
BITMAP
FFFF
FFFF
FFFF
FFFF
FFFE
007E
007C
00F8
01F8
01F0
03F0
03E0
07E0
07E0
07E0
07C0
0FC0
0FC0
0FC0
0FC0
0FC0
0FC0
0FC0
ENDCHAR
STARTCHAR 0038
ENCODING 56
SWIDTH 553 0
DWIDTH 20 0
BBX 16 23 2 0
BITMAP
07E0
1FF8
3FFC
7FFC
7E7E
FC3E
FC3E
FC3E
7E3C
7FFC
3FF8
1FF8
3FFC
7DFE
F87F
F83F
F83F
F83F
FE7F
FFFE
7FFE
3FF8
0FE0
ENDCHAR
STARTCHAR 0039
ENCODING 57
SWIDTH 553 0
DWIDTH 20 0
BBX 17 23 1 0
BITMAP
07E000
1FF800
3FFC00
7FFE00
7FFF00
FC3F00
FC1F00
FC1F80
FC1F80
FE3F80
7FFF80
7FFF80
3FFF80
1FDF80
001F80
001F00
003F00
187F00
3FFE00
7FFE00
7FFC00
3FF000
0FE000
ENDCHAR
STARTCHAR 003A
ENCODING 58
SWIDTH 332 0
DWIDTH 12 0
BBX 7 18 2 0
BITMAP
3C
7E
FE
FE
FE
7E
7C
00
00
00
00
7C
7E
FE
FE
FE
7E
3C
ENDCHAR
STARTCHAR 003B
ENCODING 59
SWIDTH 332 0
DWIDTH 12 0
BBX 8 25 2 -8
BITMAP
3C
7E
FE
FE
FE
7E
7C
00
00
00
00
3C
7E
FF
FF
FF
7F
3F
0F
0F
1E
7E
FC
F8
E0
ENDCHAR
STARTCHAR 003C
ENCODING 60
SWIDTH 553 0
DWIDTH 20 0
BBX 17 17 1 3
BITMAP
000180
000780
003F80
00FF80
07FF80
3FFE00
FFF000
FF8000
FE0000
FFC000
FFF800
1FFF00
07FF80
00FF80
001F80
000780
000080
ENDCHAR
STARTCHAR 003D
ENCODING 61
SWIDTH 553 0
DWIDTH 20 0
BBX 17 13 1 5
BITMAP
FFFF80
FFFF80
FFFF80
FFFF80
000000
000000
000000
000000
000000
FFFF80
FFFF80
FFFF80
FFFF80
ENDCHAR
STARTCHAR 003E
ENCODING 62
SWIDTH 553 0
DWIDTH 20 0
BBX 17 17 1 3
BITMAP
C00000
F80000
FE0000
FFC000
FFF000
3FFE00
07FF80
00FF80
001F80
00FF80
07FF80
3FFE00
FFF000
FF8000
FE0000
F00000
C00000
ENDCHAR
STARTCHAR 003F
ENCODING 63
SWIDTH 470 0
DWIDTH 17 0
BBX 14 25 2 0
BITMAP
0FC0
3FF0
FFF8
FFF8
7FFC
31FC
00FC
00FC
01F8
03F8
07F0
07E0
0FC0
0F80
1F80
1F80
0000
0000
0F80
1F80
1FC0
1FC0
1FC0
1F80
0F00
ENDCHAR
STARTCHAR 0040
ENCODING 64
SWIDTH 913 0
DWIDTH 33 0
BBX 30 32 2 -7
BITMAP
0001E000
003FFC00
00FFFF00
01FFFF80
07F81FC0
0FE003E0
0F8001F0
1F0000F0
3E0000F8
3C07BC78
7C1FBC78
783FF83C
F87FF83C
F0FCF83C
F0F8F83C
F0F0F83C
F0F0F078
F1F0F078
F1F1F0F8
F0FFF1F0
F0FFFFF0
F87F7FE0
F83C3F80
78001E00
7C000000
3E000000
3F000000
1FC03000
0FFFF000
07FFF800
01FFF800
003FC000
ENDCHAR
STARTCHAR 0041
ENCODING 65
SWIDTH 581 0
DWIDTH 21 0
BBX 21 24 0 0
BITMAP
01FC00
03FE00
03FE00
03FE00
07FF00
07DF00
07DF00
07DF80
0FDF80
0F8F80
0F8F80
1F8FC0
1F8FC0
1F0FC0
3FFFE0
3FFFE0
3FFFE0
3FFFF0
7FFFF0
7E03F0
7E03F0
FE03F8
FC01F8
FC01F8
ENDCHAR
STARTCHAR 0042
ENCODING 66
SWIDTH 609 0
DWIDTH 22 0
BBX 18 24 3 0
BITMAP
FFF800
FFFE00
FFFF00
FFFF80
FFFF80
FC3F80
FC1F80
FC1F80
FC3F00
FFFF00
FFFE00
FFFC00
FFFF00
FFFF80
FC1FC0
FC0FC0
FC0FC0
FC0FC0
FC1FC0
FFFFC0
FFFF80
FFFF00
FFFE00
FFF800
ENDCHAR
STARTCHAR 0043
ENCODING 67
SWIDTH 581 0
DWIDTH 21 0
BBX 18 24 2 0
BITMAP
00FC00
07FF00
0FFFC0
1FFFC0
3FFF80
7FCF00
7F0200
FE0000
FE0000
FC0000
FC0000
FC0000
FC0000
FC0000
FC0000
FE0000
FE0000
7F0300
7FCF80
3FFFC0
3FFFC0
1FFFC0
07FF00
01FC00
ENDCHAR
STARTCHAR 0044
ENCODING 68
SWIDTH 636 0
DWIDTH 23 0
BBX 19 24 3 0
BITMAP
FFE000
FFFC00
FFFE00
FFFF00
FFFF80
FC7F80
FC1FC0
FC1FC0
FC0FC0
FC0FC0
FC0FE0
FC0FE0
FC0FE0
FC0FE0
FC0FC0
FC0FC0
FC1FC0
FC1FC0
FC7F80
FFFF80
FFFF00
FFFE00
FFF800
FFE000
ENDCHAR
STARTCHAR 0045
ENCODING 69
SWIDTH 553 0
DWIDTH 20 0
BBX 15 24 3 0
BITMAP
FFFE
FFFE
FFFE
FFFE
FFFE
FC00
FC00
FC00
FC00
FFF8
FFF8
FFF8
FFF8
FFF8
FC00
FC00
FC00
FC00
FC00
FFFE
FFFE
FFFE
FFFE
FFFE
ENDCHAR
STARTCHAR 0046
ENCODING 70
SWIDTH 526 0
DWIDTH 19 0
BBX 15 24 3 0
BITMAP
FFFE
FFFE
FFFE
FFFE
FFFE
FC00
FC00
FC00
FC00
FC00
FFFC
FFFC
FFFC
FFFC
FFFC
FC00
FC00
FC00
FC00
FC00
FC00
FC00
FC00
FC00
ENDCHAR
STARTCHAR 0047
ENCODING 71
SWIDTH 636 0
DWIDTH 23 0
BBX 19 24 2 0
BITMAP
00FE00
07FF80
0FFFC0
1FFFE0
3FFFC0
7FEF80
7F0100
FE0000
FE0000
FC0000
FC3FE0
FC3FE0
FC3FE0
FC3FE0
FC3FE0
FE03E0
FE03E0
7F03E0
7FE7E0
3FFFE0
3FFFE0
0FFFE0
07FF80
00FE00
ENDCHAR
STARTCHAR 0048
ENCODING 72
SWIDTH 692 0
DWIDTH 25 0
BBX 19 24 3 0
BITMAP
FC07E0
FC07E0
FC07E0
FC07E0
FC07E0
FC07E0
FC07E0
FC07E0
FC07E0
FFFFE0
FFFFE0
FFFFE0
FFFFE0
FFFFE0
FC07E0
FC07E0
FC07E0
FC07E0
FC07E0
FC07E0
FC07E0
FC07E0
FC07E0
FC07E0
ENDCHAR
STARTCHAR 0049
ENCODING 73
SWIDTH 304 0
DWIDTH 11 0
BBX 6 24 3 0
BITMAP
FC
FC
FC
FC
FC
FC
FC
FC
FC
FC
FC
FC
FC
FC
FC
FC
FC
FC
FC
FC
FC
FC
FC
FC
ENDCHAR
STARTCHAR 004A
ENCODING 74
SWIDTH 526 0
DWIDTH 19 0
BBX 16 24 0 0
BITMAP
003F
003F
003F
003F
003F
003F
003F
003F
003F
003F
003F
003F
003F
003F
003F
003F
083F
183F
3E7F
FFFF
7FFE
3FFC
1FF8
07E0
ENDCHAR
STARTCHAR 004B
ENCODING 75
SWIDTH 636 0
DWIDTH 23 0
BBX 20 24 3 0
BITMAP
FC0FC0
FC1FC0
FC3F80
FC3F00
FC7E00
FCFE00
FCFC00
FDF800
FFF800
FFF000
FFF000
FFF800
FFF800
FFFC00
FFFC00
FFFE00
FE7F00
FC3F00
FC3F80
FC1F80
FC1FC0
FC0FE0
FC0FE0
FC07F0
ENDCHAR
STARTCHAR 004C
ENCODING 76
SWIDTH 526 0
DWIDTH 19 0
BBX 15 24 3 0
BITMAP
FC00
FC00
FC00
FC00
FC00
FC00
FC00
FC00
FC00
FC00
FC00
FC00
FC00
FC00
FC00
FC00
FC00
FC00
FC00
FFFE
FFFE
FFFE
FFFE
FFFE
ENDCHAR
STARTCHAR 004D
ENCODING 77
SWIDTH 775 0
DWIDTH 28 0
BBX 22 24 3 0
BITMAP
FC00FC
FE01FC
FE01FC
FF01FC
FF03FC
FF03FC
FF87FC
FF87FC
F787BC
FFCFFC
FFCFFC
FBCF7C
FBEF7C
FBFF7C
F9FE7C
F9FE7C
F9FE7C
F8FC7C
F8FC7C
F8FC7C
F8787C
F8787C
F8007C
F8007C
ENDCHAR
STARTCHAR 004E
ENCODING 78
SWIDTH 664 0
DWIDTH 24 0
BBX 19 24 3 0
BITMAP
FC07E0
FE07E0
FE07E0
FF07E0
FF07E0
FF87E0
FF87E0
FFC7E0
FFC7E0
FBE7E0
FBE7E0
FBE7E0
F9F7E0
F9F7E0
F8FFE0
FCFFE0
FC7FE0
FC7FE0
FC3FE0
FC3FE0
FC1FE0
FC1FE0
FC0FE0
FC0FE0
ENDCHAR
STARTCHAR 004F
ENCODING 79
SWIDTH 692 0
DWIDTH 25 0
BBX 21 24 2 0
BITMAP
01FC00
07FF00
1FFFC0
3FFFE0
3FFFE0
7FDFF0
7F07F8
FE03F8
FC01F8
FC01F8
FC01F8
FC01F8
FC01F8
FC01F8
FC01F8
FE01F8
FE03F8
7F07F0
7FDFF0
3FFFE0
3FFFE0
1FFFC0
07FF00
01FC00
ENDCHAR
STARTCHAR 0050
ENCODING 80
SWIDTH 609 0
DWIDTH 22 0
BBX 18 24 3 0
BITMAP
FFF000
FFFE00
FFFF00
FFFF80
FFFF80
FC3F80
FC1FC0
FC0FC0
FC0FC0
FC1FC0
FC3F80
FFFF80
FFFF00
FFFE00
FFFC00
FFF000
FC0000
FC0000
FC0000
FC0000
FC0000
FC0000
FC0000
FC0000
ENDCHAR
STARTCHAR 0051
ENCODING 81
SWIDTH 692 0
DWIDTH 25 0
BBX 23 31 2 -7
BITMAP
01FC00
07FF00
1FFFC0
3FFFE0
3FFFE0
7FDFF0
7F07F0
FE03F8
FE03F8
FC01F8
FC01F8
FC01F8
FC01F8
FC01F8
FC01F8
FC01F8
FE03F8
FE03F8
7F07F0
7FFFF0
3FFFE0
1FFFC0
0FFF80
07FE00
00FE00
00FF00
007FFC
003FFC
001FFE
000FFE
0001FC
ENDCHAR
STARTCHAR 0052
ENCODING 82
SWIDTH 636 0
DWIDTH 23 0
BBX 19 24 3 0
BITMAP
FFF800
FFFE00
FFFF00
FFFF80
FFFF80
FC1FC0
FC0FC0
FC0FC0
FC0FC0
FC1FC0
FC3FC0
FFFF80
FFFF80
FFFF00
FFFC00
FFFE00
FCFE00
FC7F00
FC7F00
FC3F80
FC3F80
FC1FC0
FC1FC0
FC0FE0
ENDCHAR
STARTCHAR 0053
ENCODING 83
SWIDTH 553 0
DWIDTH 20 0
BBX 18 24 1 0
BITMAP
01F800
0FFE00
1FFF80
3FFF80
3FFF00
7F9F00
7E0200
7F0000
7F8000
7FF000
3FFC00
1FFF00
0FFF80
07FFC0
00FFC0
003FC0
000FC0
180FC0
3F3FC0
7FFFC0
FFFF80
7FFF00
1FFE00
07F000
ENDCHAR
STARTCHAR 0054
ENCODING 84
SWIDTH 553 0
DWIDTH 20 0
BBX 18 24 1 0
BITMAP
FFFFC0
FFFFC0
FFFFC0
FFFFC0
FFFFC0
03F000
03F000
03F000
03F000
03F000
03F000
03F000
03F000
03F000
03F000
03F000
03F000
03F000
03F000
03F000
03F000
03F000
03F000
03F000
ENDCHAR
STARTCHAR 0055
ENCODING 85
SWIDTH 664 0
DWIDTH 24 0
BBX 20 24 2 0
BITMAP
FE03F0
FE03F0
FE03F0
FE03F0
FE03F0
FE03F0
FE03F0
FE03F0
FE03F0
FE03F0
FE03F0
FE03F0
FE03F0
FE03F0
7E03F0
7E03F0
7E07E0
7F07E0
7F9FE0
3FFFC0
3FFFC0
1FFF80
0FFF00
03FC00
ENDCHAR
STARTCHAR 0056
ENCODING 86
SWIDTH 581 0
DWIDTH 21 0
BBX 21 24 0 0
BITMAP
FC01F8
FE03F8
FE03F0
7E03F0
7E03F0
7E07E0
7F07E0
3F07E0
3F07E0
3F0FC0
1F8FC0
1F8FC0
1F8F80
0F8F80
0FDF80
0FDF80
0FDF00
07DF00
07FF00
07FE00
03FE00
03FE00
03FE00
03FC00
ENDCHAR
STARTCHAR 0057
ENCODING 87
SWIDTH 830 0
DWIDTH 30 0
BBX 29 24 0 0
BITMAP
FE0FC1F8
7E0FC1F8
7E0FC1F8
7E0FC1F8
7E0FE1F8
7E1FE1F0
7F1FE1F0
3F1FE1F0
3F1FE3F0
3F3FF3F0
3F3FF3F0
3F3DF3F0
3F3DF3E0
1F3CF3E0
1F3CFBE0
1FFCFBE0
1FFCFBE0
1FF8FFE0
0FF87FC0
0FF87FC0
0FF87FC0
0FF87FC0
0FF07FC0
0FF07FC0
ENDCHAR
STARTCHAR 0058
ENCODING 88
SWIDTH 581 0
DWIDTH 21 0
BBX 20 24 1 0
BITMAP
FE07E0
FE0FE0
7F0FC0
7F0FC0
3F9F80
1F9F80
1F9F00
0FFF00
0FFE00
07FE00
07FC00
03FC00
07FC00
07FC00
0FFE00
0FFE00
1FBF00
1FBF00
3F1F80
3F1F80
7E1FC0
7E0FE0
FE0FE0
FC07F0
ENDCHAR
STARTCHAR 0059
ENCODING 89
SWIDTH 553 0
DWIDTH 20 0
BBX 20 24 0 0
BITMAP
FC07F0
FE07E0
7E07E0
7E0FC0
3F0FC0
3F0FC0
1F9F80
1F9F80
1F9F00
0FFF00
0FFE00
07FE00
07FC00
03FC00
03F800
01F800
01F800
01F800
01F800
01F800
01F800
01F800
01F800
01F800
ENDCHAR
STARTCHAR 005A
ENCODING 90
SWIDTH 553 0
DWIDTH 20 0
BBX 17 24 1 0
BITMAP
7FFF80
7FFF80
7FFF80
7FFF80
7FFF80
003F00
007F00
00FE00
00FC00
01FC00
03F800
03F000
07F000
0FE000
0FE000
1FC000
1F8000
3F8000
7F0000
7FFF80
FFFF80
FFFF80
FFFF80
FFFF80
ENDCHAR
STARTCHAR 005B
ENCODING 91
SWIDTH 360 0
DWIDTH 13 0
BBX 8 31 3 -5
BITMAP
FF
FF
FF
F8
F8
F8
F8
F8
F8
F8
F8
F8
F8
F8
F8
F8
F8
F8
F8
F8
F8
F8
F8
F8
F8
F8
F8
F8
FF
FF
FF
ENDCHAR
STARTCHAR 005C
ENCODING 92
SWIDTH 332 0
DWIDTH 12 0
BBX 10 31 1 -6
BITMAP
F000
7800
7800
7800
7800
7800
3C00
3C00
3C00
3C00
3C00
1E00
1E00
1E00
1E00
1E00
0F00
0F00
0F00
0F00
0F00
0780
0780
0780
0780
0780
03C0
03C0
03C0
03C0
03C0
ENDCHAR
STARTCHAR 005D
ENCODING 93
SWIDTH 360 0
DWIDTH 13 0
BBX 8 31 2 -5
BITMAP
FF
FF
FF
1F
1F
1F
1F
1F
1F
1F
1F
1F
1F
1F
1F
1F
1F
1F
1F
1F
1F
1F
1F
1F
1F
1F
1F
1F
FF
FF
FF
ENDCHAR
STARTCHAR 005E
ENCODING 94
SWIDTH 553 0
DWIDTH 20 0
BBX 15 14 2 10
BITMAP
07C0
07E0
0FE0
0FF0
0FF0
1FF0
1EF8
3EF8
3E7C
3C7C
7C7C
7C3E
F83E
F83E
ENDCHAR
STARTCHAR 005F
ENCODING 95
SWIDTH 498 0
DWIDTH 18 0
BBX 18 3 0 -5
BITMAP
FFFFC0
FFFFC0
FFFFC0
ENDCHAR
STARTCHAR 0060
ENCODING 96
SWIDTH 553 0
DWIDTH 20 0
BBX 9 10 3 21
BITMAP
1000
3800
7C00
FE00
FE00
7F00
3F80
1F80
0700
0200
ENDCHAR
STARTCHAR 0061
ENCODING 97
SWIDTH 526 0
DWIDTH 19 0
BBX 16 18 1 0
BITMAP
07F0
1FFC
7FFE
3FFE
3FFF
183F
003F
03FF
1FFF
3FFF
7F3F
7C3F
FC3F
FFFF
7FFF
7FFF
3FDF
1F1F
ENDCHAR
STARTCHAR 0062
ENCODING 98
SWIDTH 581 0
DWIDTH 21 0
BBX 18 26 2 0
BITMAP
FC0000
FC0000
FC0000
FC0000
FC0000
FC0000
FC0000
FC0000
FCF800
FDFE00
FFFF00
FFFF00
FFFF80
FE3F80
FC1F80
FC1FC0
FC1FC0
FC1FC0
FC1FC0
FC1F80
FE3F80
FFFF80
FFFF00
FFFE00
FBFC00
F8F800
ENDCHAR
STARTCHAR 0063
ENCODING 99
SWIDTH 470 0
DWIDTH 17 0
BBX 15 18 1 0
BITMAP
01F8
0FFE
1FFE
3FFC
7FF8
7F00
7E00
FE00
FE00
FE00
FE00
FE00
7F08
7FFC
3FFC
1FFE
0FFC
03F0
ENDCHAR
STARTCHAR 0064
ENCODING 100
SWIDTH 581 0
DWIDTH 21 0
BBX 18 26 1 0
BITMAP
000FC0
000FC0
000FC0
000FC0
000FC0
000FC0
000FC0
000FC0
07CFC0
0FFFC0
1FFFC0
3FFFC0
7FFFC0
7F1FC0
7E0FC0
FE0FC0
FE0FC0
FE0FC0
FE0FC0
7E0FC0
7F1FC0
7FFFC0
3FFFC0
3FFFC0
1FFFC0
07C7C0
ENDCHAR
STARTCHAR 0065
ENCODING 101
SWIDTH 526 0
DWIDTH 19 0
BBX 17 18 1 0
BITMAP
03F000
0FFC00
1FFE00
3FFF00
7FFF00
7E1F00
7C1F80
FFFF80
FFFF80
FFFF80
FFFF80
FC0000
7E0000
7FFE00
3FFE00
1FFF00
0FFE00
03F800
ENDCHAR
STARTCHAR 0066
ENCODING 102
SWIDTH 360 0
DWIDTH 13 0
BBX 13 26 1 0
BITMAP
03F8
07F8
0FF8
1FF0
1FF0
3F80
3F00
3F00
FFE0
FFE0
FFE0
FFE0
FFE0
3F00
3F00
3F00
3F00
3F00
3F00
3F00
3F00
3F00
3F00
3F00
3F00
3F00
ENDCHAR
STARTCHAR 0067
ENCODING 103
SWIDTH 553 0
DWIDTH 20 0
BBX 18 26 1 -8
BITMAP
07FFC0
1FFFC0
3FFFC0
7FFFC0
7E7E00
7C3F00
7C3F00
7E3E00
7FFE00
3FFE00
1FFC00
3FF000
7C0000
7C0000
7FF800
7FFF00
3FFF80
1FFFC0
7FFFC0
780FC0
F80FC0
FC1FC0
FFFF80
7FFF00
3FFC00
0FE000
ENDCHAR
STARTCHAR 0068
ENCODING 104
SWIDTH 581 0
DWIDTH 21 0
BBX 17 26 2 0
BITMAP
FC0000
FC0000
FC0000
FC0000
FC0000
FC0000
FC0000
FC0000
FC7C00
FDFE00
FFFF00
FFFF80
FFFF80
FF3F80
FC1F80
FC1F80
FC1F80
FC1F80
FC1F80
FC1F80
FC1F80
FC1F80
FC1F80
FC1F80
FC1F80
FC1F80
ENDCHAR
STARTCHAR 0069
ENCODING 105
SWIDTH 276 0
DWIDTH 10 0
BBX 7 26 2 0
BITMAP
7C
FC
FE
FE
FC
78
00
00
FC
FC
FC
FC
FC
FC
FC
FC
FC
FC
FC
FC
FC
FC
FC
FC
FC
FC
ENDCHAR
STARTCHAR 006A
ENCODING 106
SWIDTH 276 0
DWIDTH 10 0
BBX 11 33 -2 -7
BITMAP
07C0
0FC0
0FE0
0FE0
0FC0
0780
0000
0000
0FC0
0FC0
0FC0
0FC0
0FC0
0FC0
0FC0
0FC0
0FC0
0FC0
0FC0
0FC0
0FC0
0FC0
0FC0
0FC0
0FC0
0FC0
0FC0
0FC0
7FC0
7FC0
FF80
FF00
FC00
ENDCHAR
STARTCHAR 006B
ENCODING 107
SWIDTH 581 0
DWIDTH 21 0
BBX 18 26 2 0
BITMAP
FC0000
FC0000
FC0000
FC0000
FC0000
FC0000
FC0000
FC0000
FC1FC0
FC3F80
FC7F00
FC7E00
FCFC00
FDF800
FFF000
FFF000
FFF000
FFF800
FFFC00
FFFC00
FE7E00
FC7E00
FC3F00
FC3F80
FC1F80
FC1FC0
ENDCHAR
STARTCHAR 006C
ENCODING 108
SWIDTH 304 0
DWIDTH 11 0
BBX 9 26 2 0
BITMAP
FC00
FC00
FC00
FC00
FC00
FC00
FC00
FC00
FC00
FC00
FC00
FC00
FC00
FC00
FC00
FC00
FC00
FC00
FC00
FC00
FE00
FF00
7F00
7F00
3F80
1F80
ENDCHAR
STARTCHAR 006D
ENCODING 109
SWIDTH 858 0
DWIDTH 31 0
BBX 27 18 2 0
BITMAP
F87C1F00
F9FE3FC0
FFFF7FC0
FFFFFFE0
FFFFFFE0
FF3FEFE0
FC3F87E0
FC1F87E0
FC1F87E0
FC1F87E0
FC1F87E0
FC1F87E0
FC1F87E0
FC1F87E0
FC1F87E0
FC1F87E0
FC1F87E0
FC1F87E0
ENDCHAR
STARTCHAR 006E
ENCODING 110
SWIDTH 581 0
DWIDTH 21 0
BBX 17 18 2 0
BITMAP
F87C00
F9FE00
FFFF00
FFFF80
FFFF80
FF3F80
FC1F80
FC1F80
FC1F80
FC1F80
FC1F80
FC1F80
FC1F80
FC1F80
FC1F80
FC1F80
FC1F80
FC1F80
ENDCHAR
STARTCHAR 006F
ENCODING 111
SWIDTH 553 0
DWIDTH 20 0
BBX 18 18 1 0
BITMAP
03F000
0FFC00
1FFE00
3FFF00
7FFF80
7F1F80
7E1FC0
FE0FC0
FE0FC0
FE0FC0
FE0FC0
FE1FC0
7F1F80
7FFF80
3FFF00
1FFE00
0FFC00
03F000
ENDCHAR
STARTCHAR 0070
ENCODING 112
SWIDTH 581 0
DWIDTH 21 0
BBX 18 25 2 -7
BITMAP
F8F800
F9FE00
FFFF00
FFFF00
FFFF80
FE3F80
FC1FC0
FC1FC0
FC1FC0
FC1FC0
FC1FC0
FC1F80
FE3F80
FFFF80
FFFF00
FFFE00
FFFC00
FCF800
FC0000
FC0000
FC0000
FC0000
FC0000
FC0000
FC0000
ENDCHAR
STARTCHAR 0071
ENCODING 113
SWIDTH 581 0
DWIDTH 21 0
BBX 18 25 1 -7
BITMAP
07C7C0
0FF7C0
1FFFC0
3FFFC0
7FFFC0
7F1FC0
7E0FC0
FE0FC0
FE0FC0
FE0FC0
FE0FC0
7E0FC0
7F1FC0
7FFFC0
3FFFC0
3FFFC0
1FFFC0
07CFC0
000FC0
000FC0
000FC0
000FC0
000FC0
000FC0
000FC0
ENDCHAR
STARTCHAR 0072
ENCODING 114
SWIDTH 415 0
DWIDTH 15 0
BBX 13 18 2 0
BITMAP
F878
F9F8
FBF8
FFF0
FFF0
FF90
FF00
FE00
FC00
FC00
FC00
FC00
FC00
FC00
FC00
FC00
FC00
FC00
ENDCHAR
STARTCHAR 0073
ENCODING 115
SWIDTH 443 0
DWIDTH 16 0
BBX 14 18 1 0
BITMAP
07E0
1FF8
3FFC
7FFC
7FF8
7C10
7F00
7FE0
3FF8
1FFC
07FC
00FC
307C
7FFC
FFFC
FFF8
7FF0
0FC0
ENDCHAR
STARTCHAR 0074
ENCODING 116
SWIDTH 387 0
DWIDTH 14 0
BBX 13 23 1 0
BITMAP
1F00
1F00
1F00
3F00
3F00
FFF0
FFF0
FFF0
FFF0
FFF0
3F00
3F00
3F00
3F00
3F00
3F00
3F00
3F80
3FF0
1FF0
1FF0
0FF8
03F0
ENDCHAR
STARTCHAR 0075
ENCODING 117
SWIDTH 581 0
DWIDTH 21 0
BBX 17 18 2 0
BITMAP
FC1F80
FC1F80
FC1F80
FC1F80
FC1F80
FC1F80
FC1F80
FC1F80
FC1F80
FC1F80
FC1F80
FC3F80
FE7F80
FFFF80
FFFF80
7FFF80
3FDF80
1F0F80
ENDCHAR
STARTCHAR 0076
ENCODING 118
SWIDTH 553 0
DWIDTH 20 0
BBX 18 18 1 0
BITMAP
FC0FC0
FC0FC0
FC0F80
7E1F80
7E1F80
7E1F00
3E1F00
3F3F00
3F3F00
1F3E00
1F3E00
1F3E00
0FFC00
0FFC00
0FFC00
07F800
07F800
07F800
ENDCHAR
STARTCHAR 0077
ENCODING 119
SWIDTH 803 0
DWIDTH 29 0
BBX 27 18 1 0
BITMAP
FC1F07E0
FC1F87E0
FC3F87C0
7E3F87C0
7E3F8FC0
7E3F8FC0
7E7FCF80
3E7BCF80
3F7BCF80
3F7BCF80
3F7BFF80
1F7BFF00
1FF3FF00
1FF1FF00
1FF1FF00
0FF1FE00
0FF1FE00
0FE1FE00
ENDCHAR
STARTCHAR 0078
ENCODING 120
SWIDTH 553 0
DWIDTH 20 0
BBX 18 18 1 0
BITMAP
FE1F80
7E1F80
7F3F00
3F3F00
3FBE00
1FFE00
0FFC00
0FFC00
07F800
0FF800
0FF800
1FFC00
1FFE00
3F7E00
3E7F00
7E3F00
FE3F80
FC1FC0
ENDCHAR
STARTCHAR 0079
ENCODING 121
SWIDTH 553 0
DWIDTH 20 0
BBX 18 25 1 -7
BITMAP
FC0FC0
FC0FC0
FC0F80
7E1F80
7E1F80
3E1F00
3F1F00
3F3F00
1F3E00
1FBE00
0FBE00
0FFC00
0FFC00
07FC00
07F800
07F800
03F800
03F000
03F000
07E000
3FE000
3FC000
3FC000
7F8000
7E0000
ENDCHAR
STARTCHAR 007A
ENCODING 122
SWIDTH 470 0
DWIDTH 17 0
BBX 15 18 1 0
BITMAP
7FFE
7FFE
7FFE
7FFE
7FFC
01FC
03F8
07F0
07E0
0FE0
1FC0
1F80
3F80
7FFE
7FFE
FFFE
FFFE
FFFE
ENDCHAR
STARTCHAR 007B
ENCODING 123
SWIDTH 360 0
DWIDTH 13 0
BBX 10 31 1 -5
BITMAP
07C0
0FC0
1FC0
1F80
1F00
1F00
1F00
1F00
1F00
1F00
1F00
1F00
1F00
3F00
FE00
FC00
FE00
FF00
1F00
1F00
1F00
1F00
1F00
1F00
1F00
1F00
1F00
1F00
1FC0
0FC0
0FC0
ENDCHAR
STARTCHAR 007C
ENCODING 124
SWIDTH 276 0
DWIDTH 10 0
BBX 4 36 3 -9
BITMAP
F0
F0
F0
F0
F0
F0
F0
F0
F0
F0
F0
F0
F0
F0
F0
F0
F0
F0
F0
F0
F0
F0
F0
F0
F0
F0
F0
F0
F0
F0
F0
F0
F0
F0
F0
F0
ENDCHAR
STARTCHAR 007D
ENCODING 125
SWIDTH 360 0
DWIDTH 13 0
BBX 10 31 2 -5
BITMAP
F800
FC00
FE00
7E00
3E00
3E00
3E00
3E00
3E00
3E00
3E00
3E00
3E00
3F00
1FC0
0FC0
1FC0
1FC0
3E00
3E00
3E00
3E00
3E00
3E00
3E00
3E00
3E00
3E00
FE00
FC00
FC00
ENDCHAR
STARTCHAR 007E
ENCODING 126
SWIDTH 553 0
DWIDTH 20 0
BBX 18 6 1 9
BITMAP
1F8200
3FC700
7FFFC0
FFFF80
71FF00
207E00
ENDCHAR
STARTCHAR 00A0
ENCODING 160
SWIDTH 221 0
DWIDTH 8 0
BBX 0 0 0 0
BITMAP
ENDCHAR
STARTCHAR 00A1
ENCODING 161
SWIDTH 360 0
DWIDTH 13 0
BBX 7 25 3 -7
BITMAP
38
7C
FE
FE
FE
FE
7C
10
00
7C
7C
7C
7C
7C
7C
7C
7C
7C
7C
7C
7C
7C
FE
FE
FE
ENDCHAR
STARTCHAR 00A2
ENCODING 162
SWIDTH 553 0
DWIDTH 20 0
BBX 16 25 2 -1
BITMAP
00E0
00E0
00E0
00F8
07FE
1FFF
3FFE
3FFC
7FE8
7EE0
FEE0
FCE0
FCE0
FCE0
FEE0
FEE0
7FE4
7FFE
3FFE
1FFF
0FFE
03F8
00E0
00E0
00E0
ENDCHAR
STARTCHAR 00A3
ENCODING 163
SWIDTH 553 0
DWIDTH 20 0
BBX 17 23 2 0
BITMAP
01F800
07FE00
0FFF00
1FFF00
1FFE00
3F8C00
3F0000
3F0000
3F0000
3F0000
FFF800
FFF800
FFF800
FFF800
1F8000
1F8000
1F0000
3F0000
7FFF80
FFFF80
FFFF80
FFFF80
FFFF80
ENDCHAR
STARTCHAR 00A4
ENCODING 164
SWIDTH 553 0
DWIDTH 20 0
BBX 18 17 1 3
BITMAP
300300
79E780
FFFFC0
7FFF80
3FFF00
7FFF00
7E1F80
7C1F80
7C1F80
7C1F80
7E1F80
7FFF00
3FFF00
7FFF80
FFFFC0
79E780
300300
ENDCHAR
STARTCHAR 00A5
ENCODING 165
SWIDTH 553 0
DWIDTH 20 0
BBX 18 23 1 0
BITMAP
FC0FC0
FC1F80
7E1F80
7E1F00
3E3F00
3F3E00
1F3E00
1F7C00
0FFC00
0FF800
FFFF80
FFFF80
FFFF80
03F000
03F000
FFFF80
FFFF80
FFFF80
03F000
03F000
03F000
03F000
03F000
ENDCHAR
STARTCHAR 00A6
ENCODING 166
SWIDTH 276 0
DWIDTH 10 0
BBX 4 36 3 -9
BITMAP
F0
F0
F0
F0
F0
F0
F0
F0
F0
F0
F0
F0
F0
F0
F0
00
00
00
00
00
F0
F0
F0
F0
F0
F0
F0
F0
F0
F0
F0
F0
F0
F0
F0
F0
ENDCHAR
STARTCHAR 00A7
ENCODING 167
SWIDTH 553 0
DWIDTH 20 0
BBX 17 28 1 -3
BITMAP
03F000
0FFC00
1FFF00
1FFE00
3FFC00
3F0800
3F0000
3FC000
1FF000
3FFC00
7FFE00
7DFF00
F87F80
FC1F80
FC0F80
7F0F80
7FCF80
3FFF00
1FFF00
07FC00
01FE00
007E00
187E00
3FFE00
7FFE00
7FFC00
3FF800
0FE000
ENDCHAR
STARTCHAR 00A8
ENCODING 168
SWIDTH 553 0
DWIDTH 20 0
BBX 14 6 3 20
BITMAP
7838
FC7C
FCFC
FCFC
787C
3030
ENDCHAR
STARTCHAR 00A9
ENCODING 169
SWIDTH 747 0
DWIDTH 27 0
BBX 24 24 2 0
BITMAP
00FE00
03FFC0
0FEFE0
1E00F0
3C0038
787E1C
70FF1C
E1FF8E
E3FF0E
E7C206
C7C007
C78007
C78007
C7C006
E7C006
E3FF0E
E3FF0E
71FF1C
787E1C
3C0038
1E00F0
0FEFE0
03FFC0
00FE00
ENDCHAR
STARTCHAR 00AA
ENCODING 170
SWIDTH 360 0
DWIDTH 13 0
BBX 11 13 1 13
BITMAP
1F00
FFC0
7FC0
7FE0
03E0
0FE0
7FE0
FFE0
F3E0
F3E0
FFE0
FFE0
7DE0
ENDCHAR
STARTCHAR 00AB
ENCODING 171
SWIDTH 498 0
DWIDTH 18 0
BBX 14 14 2 2
BITMAP
0C18
1E3C
3C78
78F8
F9F0
F1E0
E1C0
F1E0
F1E0
F8F0
7CF8
3C7C
1E3C
0810
ENDCHAR
STARTCHAR 00AC
ENCODING 172
SWIDTH 553 0
DWIDTH 20 0
BBX 17 11 1 3
BITMAP
FFFF80
FFFF80
FFFF80
FFFF80
000780
000780
000780
000780
000780
000780
000780
ENDCHAR
STARTCHAR 00AD
ENCODING 173
SWIDTH 332 0
DWIDTH 12 0
BBX 9 4 2 7
BITMAP
FF80
FF80
FF80
FF80
ENDCHAR
STARTCHAR 00AE
ENCODING 174
SWIDTH 470 0
DWIDTH 17 0
BBX 15 15 1 11
BITMAP
07C0
1FF0
3838
701C
67CC
67EE
E6E6
C7E6
E7C6
66CE
66EC
701C
3838
1FF0
07C0
ENDCHAR
STARTCHAR 00AF
ENCODING 175
SWIDTH 553 0
DWIDTH 20 0
BBX 11 4 5 22
BITMAP
FFE0
FFE0
FFE0
FFE0
ENDCHAR
STARTCHAR 00B0
ENCODING 176
SWIDTH 387 0
DWIDTH 14 0
BBX 11 11 1 14
BITMAP
0F00
3FC0
7FC0
71E0
F0E0
F0E0
F0E0
71E0
7FE0
3FC0
1F00
ENDCHAR
STARTCHAR 00B1
ENCODING 177
SWIDTH 553 0
DWIDTH 20 0
BBX 17 21 1 0
BITMAP
03E000
03E000
03E000
03E000
03E000
03E000
FFFF80
FFFF80
FFFF80
FFFF80
03E000
03E000
03E000
03E000
03E000
000000
000000
FFFF80
FFFF80
FFFF80
FFFF80
ENDCHAR
STARTCHAR 00B2
ENCODING 178
SWIDTH 387 0
DWIDTH 14 0
BBX 11 15 1 13
BITMAP
0E00
3F80
7FC0
FFE0
63E0
03E0
03E0
03C0
07C0
0F80
1F00
3FE0
7FE0
7FE0
7FE0
ENDCHAR
STARTCHAR 00B3
ENCODING 179
SWIDTH 387 0
DWIDTH 14 0
BBX 11 15 1 13
BITMAP
1F00
3FC0
FFE0
7FE0
03E0
03E0
0FC0
0F80
0FC0
03E0
21E0
7BE0
FFE0
7FC0
1F00
ENDCHAR
STARTCHAR 00B4
ENCODING 180
SWIDTH 553 0
DWIDTH 20 0
BBX 9 10 8 21
BITMAP
0400
0E00
0F00
1F80
3F80
7F00
FE00
FC00
7800
2000
ENDCHAR
STARTCHAR 00B5
ENCODING 181
SWIDTH 609 0
DWIDTH 22 0
BBX 20 24 2 -6
BITMAP
FC1F80
FC1F80
FC1F80
FC1F80
FC1F80
FC1F80
FC1F80
FC1F80
FC1F80
FC1F00
FC1F00
FC3F00
FE7F80
FFFFE0
FFFFF0
FFFFF0
FFEFF0
FF83F0
FC0000
FC0000
FC0000
FC0000
FC0000
FC0000
ENDCHAR
STARTCHAR 00B6
ENCODING 182
SWIDTH 664 0
DWIDTH 24 0
BBX 20 26 1 -2
BITMAP
03E7F0
0FE7F0
3FE7F0
3FE7F0
7FE7F0
7FE7F0
7FE7F0
FFE7F0
FFE7F0
FFE7F0
7FE7F0
7FE7F0
7FE7F0
3FE7F0
1FE7F0
0FE7F0
01E7F0
0007F0
0007F0
0007F0
0007F0
0007F0
0007F0
0007F0
0007F0
0007F0
ENDCHAR
STARTCHAR 00B7
ENCODING 183
SWIDTH 332 0
DWIDTH 12 0
BBX 7 7 2 9
BITMAP
7C
7E
FE
FE
FE
7E
3C
ENDCHAR
STARTCHAR 00B8
ENCODING 184
SWIDTH 553 0
DWIDTH 20 0
BBX 8 9 6 -9
BITMAP
3C
38
7C
7E
1F
1F
7E
FE
F0
ENDCHAR
STARTCHAR 00B9
ENCODING 185
SWIDTH 387 0
DWIDTH 14 0
BBX 7 14 3 13
BITMAP
3E
FE
FE
FE
1E
1E
1E
1E
1E
1E
1E
1E
1E
1E
ENDCHAR
STARTCHAR 00BA
ENCODING 186
SWIDTH 387 0
DWIDTH 14 0
BBX 12 13 1 13
BITMAP
1F00
3FC0
7FE0
FBE0
F1F0
F1F0
F1F0
F1F0
F1F0
FBE0
7FE0
3FC0
1F00
ENDCHAR
STARTCHAR 00BB
ENCODING 187
SWIDTH 498 0
DWIDTH 18 0
BBX 14 14 2 2
BITMAP
60C0
F1E0
78F0
7C78
3E7C
1E3C
0E1C
1E1C
1E3C
3C7C
7CF8
F8F0
F0E0
2040
ENDCHAR
STARTCHAR 00BC
ENCODING 188
SWIDTH 830 0
DWIDTH 30 0
BBX 29 24 1 0
BITMAP
0F003800
7F007800
FF007000
FF00F000
0F00E000
0F01E000
0F01C000
0F03C000
0F038000
0F078000
0F0707E0
0F0F0FE0
0F0E1FE0
0F1E1DE0
0F1C3DE0
003C39E0
003879E0
007871E0
0070FFF8
00F0FFF8
00E0FFF8
01E001E0
01C001E0
03C001E0
ENDCHAR
STARTCHAR 00BD
ENCODING 189
SWIDTH 858 0
DWIDTH 31 0
BBX 29 24 1 0
BITMAP
0F007800
7F007000
FF00F000
FF00E000
0F01E000
0F01C000
0F03C000
0F038000
0F078000
0F070700
0F0F1FE0
0F0E3FE0
0F1E7FF0
0F1C39F0
003C10F0
003800F0
007801F0
007001E0
00F003C0
00E00FC0
01E01FF8
01C03FF8
03803FF8
03803FF8
ENDCHAR
STARTCHAR 00BE
ENCODING 190
SWIDTH 830 0
DWIDTH 30 0
BBX 29 24 1 0
BITMAP
1F001C00
7FC03C00
FFC03800
7FE07800
03E07000
03C0F000
0FC0E000
0FC1C000
0FE3C000
01E38000
21E787E0
FBE70FE0
FFEF0FE0
7FCE1FE0
1F1E1DE0
001C3DE0
003C79E0
003879E0
0078FFF8
0070FFF8
00F0FFF8
00E001E0
01E001E0
01C001E0
ENDCHAR
STARTCHAR 00BF
ENCODING 191
SWIDTH 470 0
DWIDTH 17 0
BBX 15 25 1 -7
BITMAP
03C0
07E0
07F0
07F0
07F0
07E0
03E0
0000
0000
07E0
07E0
07E0
0FC0
1FC0
3F80
3F00
7E00
7E00
FC00
FE30
7FFC
7FFE
3FFC
3FF8
0FC0
ENDCHAR
STARTCHAR 00C0
ENCODING 192
SWIDTH 581 0
DWIDTH 21 0
BBX 21 33 0 0
BITMAP
030000
038000
07C000
0FF000
07F800
03F800
00F000
002000
000000
01FC00
03FE00
03FE00
03FE00
07FF00
07DF00
07DF00
07DF80
0FDF80
0F8F80
0F8F80
1F8FC0
1F8FC0
1F0FC0
3FFFE0
3FFFE0
3FFFE0
3FFFF0
7FFFF0
7E03F0
7E03F0
FE03F8
FC01F8
FC01F8
ENDCHAR
STARTCHAR 00C1
ENCODING 193
SWIDTH 581 0
DWIDTH 21 0
BBX 21 33 0 0
BITMAP
000400
000E00
001F00
007F80
00FF00
00FC00
007800
002000
000000
01FC00
03FE00
03FE00
03FE00
07FF00
07DF00
07DF00
07DF80
0FDF80
0F8F80
0F8F80
1F8FC0
1F8FC0
1F0FC0
3FFFE0
3FFFE0
3FFFE0
3FFFF0
7FFFF0
7E03F0
7E03F0
FE03F8
FC01F8
FC01F8
ENDCHAR
STARTCHAR 00C2
ENCODING 194
SWIDTH 581 0
DWIDTH 21 0
BBX 21 31 0 0
BITMAP
01FC00
03FE00
07FE00
07DF00
0F0F80
020200
000000
01FC00
03FE00
03FE00
03FE00
07FF00
07DF00
07DF00
07DF80
0FDF80
0F8F80
0F8F80
1F8FC0
1F8FC0
1F0FC0
3FFFE0
3FFFE0
3FFFE0
3FFFF0
7FFFF0
7E03F0
7E03F0
FE03F8
FC01F8
FC01F8
ENDCHAR
STARTCHAR 00C3
ENCODING 195
SWIDTH 581 0
DWIDTH 21 0
BBX 21 31 0 0
BITMAP
07E3C0
0FF7C0
0FFFC0
1FFF80
1E7F00
001E00
000000
01FC00
03FE00
03FE00
03FE00
07FF00
07DF00
07DF00
07DF80
0FDF80
0F8F80
0F8F80
1F8FC0
1F8FC0
1F0FC0
3FFFE0
3FFFE0
3FFFE0
3FFFF0
7FFFF0
7E03F0
7E03F0
FE03F8
FC01F8
FC01F8
ENDCHAR
STARTCHAR 00C4
ENCODING 196
SWIDTH 581 0
DWIDTH 21 0
BBX 21 31 0 0
BITMAP
070700
0F8F80
1F8F80
0F8F80
0F8F80
060200
000000
01FC00
03FE00
03FE00
03FE00
07FF00
07DF00
07DF00
07DF80
0FDF80
0F8F80
0F8F80
1F8FC0
1F8FC0
1F0FC0
3FFFE0
3FFFE0
3FFFE0
3FFFF0
7FFFF0
7E03F0
7E03F0
FE03F8
FC01F8
FC01F8
ENDCHAR
STARTCHAR 00C5
ENCODING 197
SWIDTH 581 0
DWIDTH 21 0
BBX 21 33 0 0
BITMAP
00F800
01FC00
03DE00
038E00
039E00
01FC00
00F800
000000
000000
01FC00
03FE00
03FE00
03FE00
07FF00
07DF00
07DF00
07DF80
0FDF80
0F8F80
0F8F80
1F8FC0
1F8FC0
1F0FC0
3FFFE0
3FFFE0
3FFFE0
3FFFF0
7FFFF0
7E03F0
7E03F0
FE03F8
FC01F8
FC01F8
ENDCHAR
STARTCHAR 00C6
ENCODING 198
SWIDTH 858 0
DWIDTH 31 0
BBX 30 24 -1 0
BITMAP
001FFFFC
003FFFFC
003FFFFC
007FFFFC
007FFFFC
00FDF800
00FDF800
00FDF800
01F9F800
01F9FFF0
03F1FFF0
03F1FFF0
07F1FFF0
07E1FFF0
0FFFF800
0FFFF800
0FFFF800
1FFFF800
1FFFF800
3F81FFFC
3F01FFFC
7F01FFFC
7E01FFFC
FE01FFFC
ENDCHAR
STARTCHAR 00C7
ENCODING 199
SWIDTH 581 0
DWIDTH 21 0
BBX 18 32 2 -8
BITMAP
00FC00
07FF00
0FFFC0
1FFFC0
3FFF80
7FCF00
7F0200
FE0000
FE0000
FC0000
FC0000
FC0000
FC0000
FC0000
FC0000
FE0000
FE0000
7F0100
7F8780
3FFF80
3FFFC0
1FFFC0
07FF00
01FC00
007000
00F000
00F800
007C00
003C00
007C00
03FC00
01F000
ENDCHAR
STARTCHAR 00C8
ENCODING 200
SWIDTH 553 0
DWIDTH 20 0
BBX 15 33 3 0
BITMAP
1800
1C00
3E00
7F80
3FC0
1FC0
0780
0100
0000
FFFE
FFFE
FFFE
FFFE
FFFE
FC00
FC00
FC00
FC00
FFF8
FFF8
FFF8
FFF8
FFF8
FC00
FC00
FC00
FC00
FC00
FFFE
FFFE
FFFE
FFFE
FFFE
ENDCHAR
STARTCHAR 00C9
ENCODING 201
SWIDTH 553 0
DWIDTH 20 0
BBX 15 33 3 0
BITMAP
0030
0070
00F8
03FC
07F8
07E0
03C0
0100
0000
FFFE
FFFE
FFFE
FFFE
FFFE
FC00
FC00
FC00
FC00
FFF8
FFF8
FFF8
FFF8
FFF8
FC00
FC00
FC00
FC00
FC00
FFFE
FFFE
FFFE
FFFE
FFFE
ENDCHAR
STARTCHAR 00CA
ENCODING 202
SWIDTH 553 0
DWIDTH 20 0
BBX 15 31 3 0
BITMAP
0FE0
1FF0
3FF8
3EF8
787C
1010
0000
FFFE
FFFE
FFFE
FFFE
FFFE
FC00
FC00
FC00
FC00
FFF8
FFF8
FFF8
FFF8
FFF8
FC00
FC00
FC00
FC00
FC00
FFFE
FFFE
FFFE
FFFE
FFFE
ENDCHAR
STARTCHAR 00CB
ENCODING 203
SWIDTH 553 0
DWIDTH 20 0
BBX 15 31 3 0
BITMAP
3838
7C7C
7C7C
7C7C
7C7C
1010
0000
FFFE
FFFE
FFFE
FFFE
FFFE
FC00
FC00
FC00
FC00
FFF8
FFF8
FFF8
FFF8
FFF8
FC00
FC00
FC00
FC00
FC00
FFFE
FFFE
FFFE
FFFE
FFFE
ENDCHAR
STARTCHAR 00CC
ENCODING 204
SWIDTH 304 0
DWIDTH 11 0
BBX 10 33 -1 0
BITMAP
1000
3800
7E00
FF00
7F80
1F80
0F00
0300
0000
0FC0
0FC0
0FC0
0FC0
0FC0
0FC0
0FC0
0FC0
0FC0
0FC0
0FC0
0FC0
0FC0
0FC0
0FC0
0FC0
0FC0
0FC0
0FC0
0FC0
0FC0
0FC0
0FC0
0FC0
ENDCHAR
STARTCHAR 00CD
ENCODING 205
SWIDTH 304 0
DWIDTH 11 0
BBX 9 33 3 0
BITMAP
0600
0F00
1F00
3F80
FF00
FE00
7800
2000
0000
FC00
FC00
FC00
FC00
FC00
FC00
FC00
FC00
FC00
FC00
FC00
FC00
FC00
FC00
FC00
FC00
FC00
FC00
FC00
FC00
FC00
FC00
FC00
FC00
ENDCHAR
STARTCHAR 00CE
ENCODING 206
SWIDTH 304 0
DWIDTH 11 0
BBX 12 31 0 0
BITMAP
3F80
7FC0
7FE0
FBF0
F0F0
4040
0000
1F80
1F80
1F80
1F80
1F80
1F80
1F80
1F80
1F80
1F80
1F80
1F80
1F80
1F80
1F80
1F80
1F80
1F80
1F80
1F80
1F80
1F80
1F80
1F80
ENDCHAR
STARTCHAR 00CF
ENCODING 207
SWIDTH 304 0
DWIDTH 11 0
BBX 14 31 -1 0
BITMAP
7078
F8F8
F8FC
F8FC
F8F8
2030
0000
0FC0
0FC0
0FC0
0FC0
0FC0
0FC0
0FC0
0FC0
0FC0
0FC0
0FC0
0FC0
0FC0
0FC0
0FC0
0FC0
0FC0
0FC0
0FC0
0FC0
0FC0
0FC0
0FC0
0FC0
ENDCHAR
STARTCHAR 00D0
ENCODING 208
SWIDTH 664 0
DWIDTH 24 0
BBX 22 24 1 0
BITMAP
1FFC00
1FFF00
1FFFC0
1FFFE0
1FFFF0
1F8FF0
1F83F8
1F83F8
1F81F8
1F81F8
FFF9FC
FFF9FC
FFF9FC
1F81F8
1F81F8
1F81F8
1F83F8
1F87F8
1F8FF0
1FFFF0
1FFFE0
1FFFC0
1FFF00
1FFC00
ENDCHAR
STARTCHAR 00D1
ENCODING 209
SWIDTH 664 0
DWIDTH 24 0
BBX 19 31 3 0
BITMAP
0F8700
1FEF00
3FFF00
3FFF00
3CFE00
007C00
000000
FC07E0
FE07E0
FE07E0
FF07E0
FF07E0
FF87E0
FF87E0
FFC7E0
FFC7E0
FBE7E0
FBE7E0
FBE7E0
F9F7E0
F9F7E0
F8FFE0
FCFFE0
FC7FE0
FC7FE0
FC3FE0
FC3FE0
FC1FE0
FC1FE0
FC0FE0
FC0FE0
ENDCHAR
STARTCHAR 00D2
ENCODING 210
SWIDTH 692 0
DWIDTH 25 0
BBX 21 32 2 1
BITMAP
038000
07C000
0FE000
0FF000
03FC00
01F800
007000
000000
01FC00
07FF00
1FFFC0
3FFFE0
3FFFE0
7FDFF0
7F07F8
FE03F8
FC01F8
FC01F8
FC01F8
FC01F8
FC01F8
FC01F8
FC01F8
FE01F8
FE03F8
7F07F0
7FDFF0
3FFFE0
3FFFE0
1FFFC0
07FF00
01FC00
ENDCHAR
STARTCHAR 00D3
ENCODING 211
SWIDTH 692 0
DWIDTH 25 0
BBX 21 32 2 1
BITMAP
000E00
001F00
003F80
007F80
01FE00
00FC00
007000
000000
01FC00
07FF00
1FFFC0
3FFFE0
3FFFE0
7FDFF0
7F07F8
FE03F8
FC01F8
FC01F8
FC01F8
FC01F8
FC01F8
FC01F8
FC01F8
FE01F8
FE03F8
7F07F0
7FDFF0
3FFFE0
3FFFE0
1FFFC0
07FF00
01FC00
ENDCHAR
STARTCHAR 00D4
ENCODING 212
SWIDTH 692 0
DWIDTH 25 0
BBX 21 30 2 0
BITMAP
01FC00
03FE00
07FF00
0F8F80
070700
000000
01FC00
07FF00
1FFFC0
3FFFE0
3FFFE0
7FDFF0
7F07F8
FE03F8
FC01F8
FC01F8
FC01F8
FC01F8
FC01F8
FC01F8
FC01F8
FE01F8
FE03F8
7F07F0
7FDFF0
3FFFE0
3FFFE0
1FFFC0
07FF00
01FC00
ENDCHAR
STARTCHAR 00D5
ENCODING 213
SWIDTH 692 0
DWIDTH 25 0
BBX 21 31 2 0
BITMAP
03C000
0FF3C0
0FFFC0
1FFF80
1F7F80
1E3F00
000000
01FC00
07FF00
1FFFC0
3FFFE0
3FFFE0
7FDFF0
7F07F8
FE03F8
FC01F8
FC01F8
FC01F8
FC01F8
FC01F8
FC01F8
FC01F8
FE01F8
FE03F8
7F07F0
7FDFF0
3FFFE0
3FFFE0
1FFFC0
07FF00
01FC00
ENDCHAR
STARTCHAR 00D6
ENCODING 214
SWIDTH 692 0
DWIDTH 25 0
BBX 21 31 2 0
BITMAP
020200
0F8F80
0F8F80
0F8F80
0F8F80
070700
000000
01FC00
07FF00
1FFFC0
3FFFE0
3FFFE0
7FDFF0
7F07F8
FE03F8
FC01F8
FC01F8
FC01F8
FC01F8
FC01F8
FC01F8
FC01F8
FE01F8
FE03F8
7F07F0
7FDFF0
3FFFE0
3FFFE0
1FFFC0
07FF00
01FC00
ENDCHAR
STARTCHAR 00D7
ENCODING 215
SWIDTH 553 0
DWIDTH 20 0
BBX 15 16 2 4
BITMAP
2008
701C
F83E
FC7E
7EFC
3FF8
1FF0
0FE0
0FE0
1FF0
3FF8
7EFC
FC7E
F83E
701C
2008
ENDCHAR
STARTCHAR 00D8
ENCODING 216
SWIDTH 692 0
DWIDTH 25 0
BBX 22 26 2 -1
BITMAP
000010
01FC38
07FF7C
1FFFF8
3FFFF8
3FFFF0
7FDFF0
7F07F8
FE0FF8
FC1FF8
FC3FF8
FC3FF8
FC7DF8
FCF9F8
FDF1F8
FFE1F8
FFE1F8
FFC3F8
7F87F0
7F9FF0
3FFFE0
7FFFE0
FFFFC0
FFFF00
F1FC00
600000
ENDCHAR
STARTCHAR 00D9
ENCODING 217
SWIDTH 664 0
DWIDTH 24 0
BBX 20 33 2 0
BITMAP
020000
078000
0FC000
0FE000
0FF000
03F800
00F000
006000
000000
FE03F0
FE03F0
FE03F0
FE03F0
FE03F0
FE03F0
FE03F0
FE03F0
FE03F0
FE03F0
FE03F0
FE03F0
FE03F0
FE03F0
7E03F0
7E03F0
7E07E0
7F07E0
7F9FE0
3FFFC0
3FFFC0
1FFF80
0FFF00
03FC00
ENDCHAR
STARTCHAR 00DA
ENCODING 218
SWIDTH 664 0
DWIDTH 24 0
BBX 20 33 2 0
BITMAP
000400
000E00
003F00
007F80
00FF00
01FC00
00F800
006000
000000
FE03F0
FE03F0
FE03F0
FE03F0
FE03F0
FE03F0
FE03F0
FE03F0
FE03F0
FE03F0
FE03F0
FE03F0
FE03F0
FE03F0
7E03F0
7E03F0
7E07E0
7F07E0
7F9FE0
3FFFC0
3FFFC0
1FFF80
0FFF00
03FC00
ENDCHAR
STARTCHAR 00DB
ENCODING 219
SWIDTH 664 0
DWIDTH 24 0
BBX 20 31 2 0
BITMAP
01FC00
03FC00
07FE00
0F9F00
0F0F00
020600
000000
FE03F0
FE03F0
FE03F0
FE03F0
FE03F0
FE03F0
FE03F0
FE03F0
FE03F0
FE03F0
FE03F0
FE03F0
FE03F0
FE03F0
7E03F0
7E03F0
7E07E0
7F07E0
7F9FE0
3FFFC0
3FFFC0
1FFF80
0FFF00
03FC00
ENDCHAR
STARTCHAR 00DC
ENCODING 220
SWIDTH 664 0
DWIDTH 24 0
BBX 20 31 2 0
BITMAP
0F0700
0F8F80
1F9F80
1F8F80
0F0F80
060600
000000
FE03F0
FE03F0
FE03F0
FE03F0
FE03F0
FE03F0
FE03F0
FE03F0
FE03F0
FE03F0
FE03F0
FE03F0
FE03F0
FE03F0
7E03F0
7E03F0
7E07E0
7F07E0
7F9FE0
3FFFC0
3FFFC0
1FFF80
0FFF00
03FC00
ENDCHAR
STARTCHAR 00DD
ENCODING 221
SWIDTH 553 0
DWIDTH 20 0
BBX 20 33 0 0
BITMAP
000400
001E00
003F00
007F00
01FE00
01FC00
00F000
006000
000000
FC07F0
FE07E0
7E07E0
7E0FC0
3F0FC0
3F0FC0
1F9F80
1F9F80
1F9F00
0FFF00
0FFE00
07FE00
07FC00
03FC00
03F800
01F800
01F800
01F800
01F800
01F800
01F800
01F800
01F800
01F800
ENDCHAR
STARTCHAR 00DE
ENCODING 222
SWIDTH 636 0
DWIDTH 23 0
BBX 18 24 3 0
BITMAP
FC0000
FC0000
FC0000
FFF000
FFFE00
FFFF00
FFFF80
FFFF80
FC1FC0
FC0FC0
FC0FC0
FC0FC0
FC0FC0
FC0FC0
FC1FC0
FFFF80
FFFF80
FFFF00
FFFC00
FFF000
FC0000
FC0000
FC0000
FC0000
ENDCHAR
STARTCHAR 00DF
ENCODING 223
SWIDTH 664 0
DWIDTH 24 0
BBX 21 26 2 0
BITMAP
03F800
1FFE00
3FFF00
7FFF80
7FFF80
7E1F80
FE1F80
FC1F80
FC1F80
FC1F00
FC3F00
FC7E00
FC7E00
FC7E00
FC7F80
FC3FE0
FC3FF0
FC0FF0
FC03F8
FC01F8
FC21F8
FC3FF0
FC7FF0
FC7FF0
FCFFE0
FC3F80
ENDCHAR
STARTCHAR 00E0
ENCODING 224
SWIDTH 526 0
DWIDTH 19 0
BBX 16 30 1 0
BITMAP
0400
0E00
1F00
3F80
3FC0
1FC0
0FE0
03E0
01C0
0080
0000
0000
07F0
1FFC
7FFE
3FFE
3FFF
183F
003F
03FF
1FFF
3FFF
7F3F
7C3F
FC3F
FFFF
7FFF
7FFF
3FDF
1F1F
ENDCHAR
STARTCHAR 00E1
ENCODING 225
SWIDTH 526 0
DWIDTH 19 0
BBX 16 30 1 0
BITMAP
0008
001C
003E
003F
007F
00FE
01FC
00F8
0060
0000
0000
0000
07F0
1FFC
7FFE
3FFE
3FFF
183F
003F
03FF
1FFF
3FFF
7F3F
7C3F
FC3F
FFFF
7FFF
7FFF
3FDF
1F1F
ENDCHAR
STARTCHAR 00E2
ENCODING 226
SWIDTH 526 0
DWIDTH 19 0
BBX 16 27 1 0
BITMAP
03F8
07F8
0FFC
1FFE
3F3F
1E1F
0806
0000
0000
07F0
1FFC
7FFE
3FFE
3FFF
183F
003F
03FF
1FFF
3FFF
7F3F
7C3F
FC3F
FFFF
7FFF
7FFF
3FDF
1F1F
ENDCHAR
STARTCHAR 00E3
ENCODING 227
SWIDTH 526 0
DWIDTH 19 0
BBX 16 26 1 0
BITMAP
0F8F
1FEF
1FFF
3FFF
3CFE
0C3C
0000
0000
07F0
1FFC
7FFE
3FFE
3FFF
183F
003F
03FF
1FFF
3FFF
7F3F
7C3F
FC3F
FFFF
7FFF
7FFF
3FDF
1F1F
ENDCHAR
STARTCHAR 00E4
ENCODING 228
SWIDTH 526 0
DWIDTH 19 0
BBX 16 26 1 0
BITMAP
0C0E
1F1F
3F3F
3F3F
3F1F
1E0E
0000
0000
07F0
1FFC
7FFE
3FFE
3FFF
183F
003F
03FF
1FFF
3FFF
7F3F
7C3F
FC3F
FFFF
7FFF
7FFF
3FDF
1F1F
ENDCHAR
STARTCHAR 00E5
ENCODING 229
SWIDTH 526 0
DWIDTH 19 0
BBX 16 28 1 0
BITMAP
03F0
07F8
0FBC
0F3C
0F3C
0F3C
07F8
03F0
0000
0000
07F0
1FFC
7FFE
3FFE
3FFF
183F
003F
03FF
1FFF
3FFF
7F3F
7C3F
FC3F
FFFF
7FFF
7FFF
3FDF
1F1F
ENDCHAR
STARTCHAR 00E6
ENCODING 230
SWIDTH 775 0
DWIDTH 28 0
BBX 25 18 2 0
BITMAP
0FC1F800
3FF3FC00
FFFFFE00
7FFFFF00
7FFFFF00
307F1F80
007E0F80
0FFFFF80
3FFFFF80
7FFFFF80
FF7FFF80
FC7E0000
FC3F0200
FFFFFE00
FFFFFF00
FFFFFF00
7FC7FE00
1F01F800
ENDCHAR
STARTCHAR 00E7
ENCODING 231
SWIDTH 470 0
DWIDTH 17 0
BBX 15 26 1 -8
BITMAP
01F8
0FFE
1FFE
3FFC
7FF8
7F00
7E00
FE00
FE00
FE00
FE00
FE00
7F00
7FFC
3FFC
3FFE
0FFE
07F8
01E0
01C0
03F0
00F8
0078
00F8
07F0
07E0
ENDCHAR
STARTCHAR 00E8
ENCODING 232
SWIDTH 526 0
DWIDTH 19 0
BBX 17 30 1 0
BITMAP
040000
0E0000
1F0000
3F0000
3F8000
1FC000
0FE000
07C000
038000
000000
000000
000000
03F000
0FFC00
1FFE00
3FFF00
7FFF00
7E1F00
7C1F80
FFFF80
FFFF80
FFFF80
FFFF80
FC0000
7E0000
7FFE00
3FFE00
1FFF00
0FFE00
03F800
ENDCHAR
STARTCHAR 00E9
ENCODING 233
SWIDTH 526 0
DWIDTH 19 0
BBX 17 30 1 0
BITMAP
000800
001C00
003E00
007F00
00FF00
00FE00
01FC00
01F000
00E000
004000
000000
000000
03F000
0FFC00
1FFE00
3FFF00
7FFF00
7E1F00
7C1F80
FFFF80
FFFF80
FFFF80
FFFF80
FC0000
7E0000
7FFE00
3FFE00
1FFF00
0FFE00
03F800
ENDCHAR
STARTCHAR 00EA
ENCODING 234
SWIDTH 526 0
DWIDTH 19 0
BBX 17 27 1 0
BITMAP
07F000
07F800
0FFC00
1FFE00
3F3E00
3E1E00
180C00
000000
000000
03F000
0FFC00
1FFE00
3FFF00
7FFF00
7E1F00
7C1F80
FFFF80
FFFF80
FFFF80
FFFF80
FC0000
7E0000
7FFE00
3FFE00
1FFF00
0FFE00
03F800
ENDCHAR
STARTCHAR 00EB
ENCODING 235
SWIDTH 526 0
DWIDTH 19 0
BBX 17 26 1 0
BITMAP
0C0C00
3E1E00
3F3F00
3F3F00
3E3E00
1C1E00
000000
000000
03F000
0FFC00
1FFE00
3FFF00
7FFF00
7E1F00
7C1F80
FFFF80
FFFF80
FFFF80
FFFF80
FC0000
7E0000
7FFE00
3FFE00
1FFF00
0FFE00
03F800
ENDCHAR
STARTCHAR 00EC
ENCODING 236
SWIDTH 276 0
DWIDTH 10 0
BBX 10 30 -2 0
BITMAP
1800
3800
7C00
FE00
7F00
3F80
1F80
0F00
0600
0000
0000
0000
0FC0
0FC0
0FC0
0FC0
0FC0
0FC0
0FC0
0FC0
0FC0
0FC0
0FC0
0FC0
0FC0
0FC0
0FC0
0FC0
0FC0
0FC0
ENDCHAR
STARTCHAR 00ED
ENCODING 237
SWIDTH 276 0
DWIDTH 10 0
BBX 11 30 2 0
BITMAP
0300
0780
0FC0
1FE0
3FC0
3F80
7E00
3C00
1800
0000
0000
0000
FC00
FC00
FC00
FC00
FC00
FC00
FC00
FC00
FC00
FC00
FC00
FC00
FC00
FC00
FC00
FC00
FC00
FC00
ENDCHAR
STARTCHAR 00EE
ENCODING 238
SWIDTH 276 0
DWIDTH 10 0
BBX 14 27 -2 0
BITMAP
0FE0
1FF0
3FF0
7FF8
FCFC
7838
2010
0000
0000
0FC0
0FC0
0FC0
0FC0
0FC0
0FC0
0FC0
0FC0
0FC0
0FC0
0FC0
0FC0
0FC0
0FC0
0FC0
0FC0
0FC0
0FC0
ENDCHAR
STARTCHAR 00EF
ENCODING 239
SWIDTH 276 0
DWIDTH 10 0
BBX 14 26 -2 0
BITMAP
7838
7C7C
FCFC
FCFC
7C7C
3038
0000
0000
0FC0
0FC0
0FC0
0FC0
0FC0
0FC0
0FC0
0FC0
0FC0
0FC0
0FC0
0FC0
0FC0
0FC0
0FC0
0FC0
0FC0
0FC0
ENDCHAR
STARTCHAR 00F0
ENCODING 240
SWIDTH 553 0
DWIDTH 20 0
BBX 18 27 1 0
BITMAP
060100
0F8700
1FDF80
1FFF00
07FC00
07FC00
1FFC00
3F7E00
3C7F00
103F00
07DF80
1FFF80
3FFF80
3FFFC0
7FFFC0
7E0FC0
7C0FC0
FC0FC0
FC0FC0
FC0FC0
7E1F80
7E1F80
7FFF80
3FFF00
1FFE00
0FFC00
03F000
ENDCHAR
STARTCHAR 00F1
ENCODING 241
SWIDTH 581 0
DWIDTH 21 0
BBX 17 26 2 0
BITMAP
0F8700
1FEF00
1FFF00
3FFF00
3CFE00
0C3C00
000000
000000
F87C00
F9FE00
FFFF00
FFFF80
FFFF80
FF3F80
FC1F80
FC1F80
FC1F80
FC1F80
FC1F80
FC1F80
FC1F80
FC1F80
FC1F80
FC1F80
FC1F80
FC1F80
ENDCHAR
STARTCHAR 00F2
ENCODING 242
SWIDTH 553 0
DWIDTH 20 0
BBX 18 30 1 0
BITMAP
040000
0E0000
1F0000
3F8000
3F8000
1FC000
0FE000
03E000
01C000
008000
000000
000000
03F000
0FFC00
1FFE00
3FFF00
7FFF80
7F1F80
7E1FC0
FE0FC0
FE0FC0
FE0FC0
FE0FC0
FE1FC0
7F1F80
7FFF80
3FFF00
1FFE00
0FFC00
03F000
ENDCHAR
STARTCHAR 00F3
ENCODING 243
SWIDTH 553 0
DWIDTH 20 0
BBX 18 30 1 0
BITMAP
000800
001C00
003E00
003F00
007F00
00FE00
01FC00
01F800
00E000
004000
000000
000000
03F000
0FFC00
1FFE00
3FFF00
7FFF80
7F1F80
7E1FC0
FE0FC0
FE0FC0
FE0FC0
FE0FC0
FE1FC0
7F1F80
7FFF80
3FFF00
1FFE00
0FFC00
03F000
ENDCHAR
STARTCHAR 00F4
ENCODING 244
SWIDTH 553 0
DWIDTH 20 0
BBX 18 27 1 0
BITMAP
03F000
07F800
0FFC00
1FFE00
3F3F00
1E1F00
080600
000000
000000
03F000
0FFC00
1FFE00
3FFF00
7FFF80
7F1F80
7E1FC0
FE0FC0
FE0FC0
FE0FC0
FE0FC0
FE1FC0
7F1F80
7FFF80
3FFF00
1FFE00
0FFC00
03F000
ENDCHAR
STARTCHAR 00F5
ENCODING 245
SWIDTH 553 0
DWIDTH 20 0
BBX 18 26 1 0
BITMAP
0F8F00
1FEF00
1FFF00
3FFF00
3CFE00
0C3C00
000000
000000
03F000
0FFC00
1FFE00
3FFF00
7FFF80
7F1F80
7E1FC0
FE0FC0
FE0FC0
FE0FC0
FE0FC0
FE1FC0
7F1F80
7FFF80
3FFF00
1FFE00
0FFC00
03F000
ENDCHAR
STARTCHAR 00F6
ENCODING 246
SWIDTH 553 0
DWIDTH 20 0
BBX 18 26 1 0
BITMAP
0C0E00
1E1F00
3F3F00
3F3F00
3F1F00
1E0E00
000000
000000
03F000
0FFC00
1FFE00
3FFF00
7FFF80
7F1F80
7E1FC0
FE0FC0
FE0FC0
FE0FC0
FE0FC0
FE1FC0
7F1F80
7FFF80
3FFF00
1FFE00
0FFC00
03F000
ENDCHAR
STARTCHAR 00F7
ENCODING 247
SWIDTH 553 0
DWIDTH 20 0
BBX 17 19 1 3
BITMAP
03E000
03F000
07F000
03F000
03E000
00C000
000000
FFFF80
FFFF80
FFFF80
FFFF80
000000
000000
03E000
03F000
07F000
03F000
03E000
00C000
ENDCHAR
STARTCHAR 00F8
ENCODING 248
SWIDTH 553 0
DWIDTH 20 0
BBX 18 18 1 0
BITMAP
03F380
0FFF80
1FFF00
3FFF00
7FFF80
7E3F80
7E7FC0
FC7FC0
FCEFC0
FDCFC0
FFCFC0
FF8FC0
7F1F80
7FFF80
3FFF00
3FFE00
7FFC00
33F000
ENDCHAR
STARTCHAR 00F9
ENCODING 249
SWIDTH 581 0
DWIDTH 21 0
BBX 17 30 2 0
BITMAP
0C0000
1E0000
3F0000
7F0000
3F8000
1FC000
0FE000
07C000
018000
000000
000000
000000
FC1F80
FC1F80
FC1F80
FC1F80
FC1F80
FC1F80
FC1F80
FC1F80
FC1F80
FC1F80
FC1F80
FC3F80
FE7F80
FFFF80
FFFF80
7FFF80
3FDF80
1F0F80
ENDCHAR
STARTCHAR 00FA
ENCODING 250
SWIDTH 581 0
DWIDTH 21 0
BBX 17 30 2 0
BITMAP
001800
003C00
007E00
007F00
00FE00
01FC00
03F800
01E000
00C000
000000
000000
000000
FC1F80
FC1F80
FC1F80
FC1F80
FC1F80
FC1F80
FC1F80
FC1F80
FC1F80
FC1F80
FC1F80
FC3F80
FE7F80
FFFF80
FFFF80
7FFF80
3FDF80
1F0F80
ENDCHAR
STARTCHAR 00FB
ENCODING 251
SWIDTH 581 0
DWIDTH 21 0
BBX 17 27 2 0
BITMAP
07F000
0FF800
1FFC00
3FFE00
3E3E00
3C1E00
100400
000000
000000
FC1F80
FC1F80
FC1F80
FC1F80
FC1F80
FC1F80
FC1F80
FC1F80
FC1F80
FC1F80
FC1F80
FC3F80
FE7F80
FFFF80
FFFF80
7FFF80
3FDF80
1F0F80
ENDCHAR
STARTCHAR 00FC
ENCODING 252
SWIDTH 581 0
DWIDTH 21 0
BBX 17 26 2 0
BITMAP
1C1C00
3E3E00
3E3E00
3E3E00
3E3E00
1C1C00
000000
000000
FC1F80
FC1F80
FC1F80
FC1F80
FC1F80
FC1F80
FC1F80
FC1F80
FC1F80
FC1F80
FC1F80
FC3F80
FE7F80
FFFF80
FFFF80
7FFF80
3FDF80
1F0F80
ENDCHAR
STARTCHAR 00FD
ENCODING 253
SWIDTH 553 0
DWIDTH 20 0
BBX 18 37 1 -7
BITMAP
000800
001C00
003E00
007F00
00FF00
01FC00
01F800
00F000
006000
000000
000000
000000
FC0FC0
FC0FC0
FC0F80
7E1F80
7E1F80
3E1F00
3F1F00
3F3F00
1F3E00
1FBE00
0FBE00
0FFC00
0FFC00
07FC00
07F800
07F800
03F800
03F000
03F000
07E000
3FE000
3FC000
3FC000
7F8000
7E0000
ENDCHAR
STARTCHAR 00FE
ENCODING 254
SWIDTH 581 0
DWIDTH 21 0
BBX 18 33 2 -7
BITMAP
FC0000
FC0000
FC0000
FC0000
FC0000
FC0000
FC0000
FC0000
FCF800
FFFE00
FFFF00
FFFF00
FFFF80
FE3F80
FC1F80
FC1FC0
FC1FC0
FC1FC0
FC1FC0
FC1F80
FE3F80
FFFF80
FFFF00
FFFE00
FFFC00
FCF800
FC0000
FC0000
FC0000
FC0000
FC0000
FC0000
FC0000
ENDCHAR
STARTCHAR 00FF
ENCODING 255
SWIDTH 553 0
DWIDTH 20 0
BBX 18 33 1 -7
BITMAP
1E1E00
3E1F00
3F3F00
3F3F00
3E1F00
0C0C00
000000
000000
FC0FC0
FC0FC0
FC0F80
7E1F80
7E1F80
3E1F00
3F1F00
3F3F00
1F3E00
1FBE00
0FBE00
0FFC00
0FFC00
07FC00
07F800
07F800
03F800
03F000
03F000
07E000
3FE000
3FC000
3FC000
7F8000
7E0000
ENDCHAR
STARTCHAR 0100
ENCODING 256
SWIDTH 581 0
DWIDTH 21 0
BBX 21 30 0 0
BITMAP
07FF00
07FF00
07FF00
07FF00
000000
000000
01FC00
03FE00
03FE00
03FE00
07FF00
07DF00
07DF00
07DF80
0FDF80
0F8F80
0F8F80
1F8FC0
1F8FC0
1F0FC0
3FFFE0
3FFFE0
3FFFE0
3FFFF0
7FFFF0
7E03F0
7E03F0
FE03F8
FC01F8
FC01F8
ENDCHAR
STARTCHAR 0101
ENCODING 257
SWIDTH 526 0
DWIDTH 19 0
BBX 16 26 1 0
BITMAP
0FFE
0FFE
0FFE
0FFE
0000
0000
0000
0000
07F0
1FFC
7FFE
3FFE
3FFF
183F
003F
03FF
1FFF
3FFF
7F3F
7C3F
FC3F
FFFF
7FFF
7FFF
3FDF
1F1F
ENDCHAR
STARTCHAR 0102
ENCODING 258
SWIDTH 581 0
DWIDTH 21 0
BBX 21 31 0 0
BITMAP
0F0780
0F8F00
07FF00
07FF00
03FC00
002000
000000
01FC00
03FE00
03FE00
03FE00
07FF00
07DF00
07DF00
07DF80
0FDF80
0F8F80
0F8F80
1F8FC0
1F8FC0
1F0FC0
3FFFE0
3FFFE0
3FFFE0
3FFFF0
7FFFF0
7E03F0
7E03F0
FE03F8
FC01F8
FC01F8
ENDCHAR
STARTCHAR 0103
ENCODING 259
SWIDTH 526 0
DWIDTH 19 0
BBX 16 26 1 1
BITMAP
1E0E
1E1E
1FFE
0FFC
07FC
01E0
0000
0000
07F0
1FFC
7FFE
3FFE
3FFF
183F
003F
03FF
1FFF
3FFF
7F3F
7C3F
FC3F
FFFF
7FFF
7FFF
3FDF
1F1F
ENDCHAR
STARTCHAR 0104
ENCODING 260
SWIDTH 581 0
DWIDTH 21 0
BBX 22 32 0 -8
BITMAP
01FC00
03FE00
03FE00
03FE00
07FF00
07DF00
07DF00
07DF80
0FDF80
0F8F80
0F8F80
1F8FC0
1F8FC0
1F0FC0
3FFFE0
3FFFE0
3FFFE0
3FFFF0
7FFFF0
7E03F0
7E03F0
FE03F8
FC01F8
FC01F8
0000F0
0001C0
0003C0
0003C0
0003F8
0003FC
0003FC
0000F0
ENDCHAR
STARTCHAR 0105
ENCODING 261
SWIDTH 526 0
DWIDTH 19 0
BBX 17 26 1 -8
BITMAP
07F000
1FFC00
7FFE00
3FFE00
3FFF00
183F00
003F00
03FF00
1FFF00
3FFF00
7F3F00
7C3F00
FC3F00
FFFF00
7FFF00
7FFF00
3FDF00
1F1F00
001E00
003C00
003800
007800
007F00
007F80
003F80
001F00
ENDCHAR
STARTCHAR 0106
ENCODING 262
SWIDTH 581 0
DWIDTH 21 0
BBX 18 32 2 1
BITMAP
000600
001F00
003F80
007F80
00FE00
00FC00
007000
000000
00FC00
07FF00
0FFFC0
1FFFC0
3FFF80
7FCF00
7F0200
FE0000
FE0000
FC0000
FC0000
FC0000
FC0000
FC0000
FC0000
FE0000
FE0000
7F0300
7FCF80
3FFFC0
3FFFC0
1FFFC0
07FF00
01FC00
ENDCHAR
STARTCHAR 0107
ENCODING 263
SWIDTH 470 0
DWIDTH 17 0
BBX 17 30 1 0
BITMAP
000400
000E00
001F00
003F80
007F80
00FF00
00FC00
00F800
007000
002000
000000
000000
01F800
0FFE00
1FFE00
3FFC00
7FF800
7F0000
7E0000
FE0000
FE0000
FE0000
FE0000
FE0000
7F0800
7FFC00
3FFC00
1FFE00
0FFC00
03F000
ENDCHAR
STARTCHAR 0108
ENCODING 264
SWIDTH 581 0
DWIDTH 21 0
BBX 18 30 2 0
BITMAP
01FC00
03FE00
07FF00
0F8F80
070700
000000
00FC00
07FF00
0FFFC0
1FFFC0
3FFF80
7FCF00
7F0200
FE0000
FE0000
FC0000
FC0000
FC0000
FC0000
FC0000
FC0000
FE0000
FE0000
7F0300
7FCF80
3FFFC0
3FFFC0
1FFFC0
07FF00
01FC00
ENDCHAR
STARTCHAR 0109
ENCODING 265
SWIDTH 470 0
DWIDTH 17 0
BBX 16 27 1 0
BITMAP
03F8
07FC
07FE
0FFE
1FBF
1E0F
0C06
0000
0000
01F8
0FFE
1FFE
3FFC
7FF8
7F00
7E00
FE00
FE00
FE00
FE00
FE00
7F08
7FFC
3FFC
1FFE
0FFC
03F0
ENDCHAR
STARTCHAR 010A
ENCODING 266
SWIDTH 581 0
DWIDTH 21 0
BBX 18 31 2 0
BITMAP
00F800
01FC00
01FC00
01FC00
00FC00
007800
000000
00FC00
07FF00
0FFFC0
1FFFC0
3FFF80
7FCF00
7F0200
FE0000
FE0000
FC0000
FC0000
FC0000
FC0000
FC0000
FC0000
FE0000
FE0000
7F0300
7FCF80
3FFFC0
3FFFC0
1FFFC0
07FF00
01FC00
ENDCHAR
STARTCHAR 010B
ENCODING 267
SWIDTH 470 0
DWIDTH 17 0
BBX 15 26 1 0
BITMAP
00F0
01F8
03F8
03F8
01F8
01F0
0000
0000
01F8
0FFE
1FFE
3FFC
7FF8
7F00
7E00
FE00
FE00
FE00
FE00
FE00
7F08
7FFC
3FFC
1FFE
0FFC
03F0
ENDCHAR
STARTCHAR 010C
ENCODING 268
SWIDTH 581 0
DWIDTH 21 0
BBX 18 31 2 0
BITMAP
020200
0F8780
07DF00
07FF00
03FE00
01FC00
000000
00FC00
07FF00
0FFFC0
1FFFC0
3FFF80
7FCF00
7F0200
FE0000
FE0000
FC0000
FC0000
FC0000
FC0000
FC0000
FC0000
FE0000
FE0000
7F0300
7FCF80
3FFFC0
3FFFC0
1FFFC0
07FF00
01FC00
ENDCHAR
STARTCHAR 010D
ENCODING 269
SWIDTH 470 0
DWIDTH 17 0
BBX 16 28 1 0
BITMAP
0C02
1E0F
1F9F
0FFF
07FE
07FC
03F8
0000
0000
0000
01F8
0FFE
1FFE
3FFC
7FF8
7F00
7E00
FE00
FE00
FE00
FE00
FE00
7F08
7FFC
3FFC
1FFE
0FFC
03F0
ENDCHAR
STARTCHAR 010E
ENCODING 270
SWIDTH 636 0
DWIDTH 23 0
BBX 19 31 3 1
BITMAP
1C1C00
1E3E00
1FFC00
0FF800
07F000
000000
000000
FFE000
FFFC00
FFFE00
FFFF00
FFFF80
FC7F80
FC1FC0
FC1FC0
FC0FC0
FC0FC0
FC0FE0
FC0FE0
FC0FE0
FC0FE0
FC0FC0
FC0FC0
FC1FC0
FC1FC0
FC7F80
FFFF80
FFFF00
FFFE00
FFF800
FFE000
ENDCHAR
STARTCHAR 010F
ENCODING 271
SWIDTH 636 0
DWIDTH 23 0
BBX 23 29 1 0
BITMAP
00001E
00001E
00001E
000FDE
000FDC
000FDC
000FDC
000FDC
000FC0
000FC0
000FC0
07CFC0
0FFFC0
1FFFC0
3FFFC0
7FFFC0
7F1FC0
7E0FC0
FE0FC0
FE0FC0
FE0FC0
FE0FC0
7E0FC0
7F1FC0
7FFFC0
3FFFC0
3FFFC0
1FFFC0
07C7C0
ENDCHAR
STARTCHAR 0110
ENCODING 272
SWIDTH 664 0
DWIDTH 24 0
BBX 22 24 1 0
BITMAP
1FFC00
1FFF00
1FFFC0
1FFFE0
1FFFF0
1F8FF0
1F83F8
1F83F8
1F81F8
1F81F8
FFF9FC
FFF9FC
FFF9FC
1F81F8
1F81F8
1F81F8
1F83F8
1F87F8
1F8FF0
1FFFF0
1FFFE0
1FFFC0
1FFF00
1FFC00
ENDCHAR
STARTCHAR 0111
ENCODING 273
SWIDTH 581 0
DWIDTH 21 0
BBX 20 26 1 0
BITMAP
000FC0
000FC0
03FFF0
03FFF0
03FFF0
000FC0
000FC0
000FC0
000FC0
07CFC0
0FFFC0
3FFFC0
3FFFC0
7FFFC0
7F1FC0
7E0FC0
FE0FC0
FE0FC0
FE0FC0
FE0FC0
7F1FC0
7FFFC0
7FFFC0
3FFFC0
1FFFC0
07C7C0
ENDCHAR
STARTCHAR 0112
ENCODING 274
SWIDTH 553 0
DWIDTH 20 0
BBX 15 30 3 0
BITMAP
3FF8
3FF8
3FF8
3FF8
0000
0000
FFFE
FFFE
FFFE
FFFE
FFFE
FC00
FC00
FC00
FC00
FFF8
FFF8
FFF8
FFF8
FFF8
FC00
FC00
FC00
FC00
FC00
FFFE
FFFE
FFFE
FFFE
FFFE
ENDCHAR
STARTCHAR 0113
ENCODING 275
SWIDTH 526 0
DWIDTH 19 0
BBX 17 26 1 0
BITMAP
1FFC00
1FFC00
1FFC00
1FFC00
000000
000000
000000
000000
03F000
0FFC00
1FFE00
3FFF00
7FFF00
7E1F00
7C1F80
FFFF80
FFFF80
FFFF80
FFFF80
FC0000
7E0000
7FFE00
3FFE00
1FFF00
0FFE00
03F800
ENDCHAR
STARTCHAR 0114
ENCODING 276
SWIDTH 553 0
DWIDTH 20 0
BBX 15 31 3 0
BITMAP
783C
3C78
3FF8
3FF8
1FF0
0100
0000
FFFE
FFFE
FFFE
FFFE
FFFE
FC00
FC00
FC00
FC00
FFF8
FFF8
FFF8
FFF8
FFF8
FC00
FC00
FC00
FC00
FC00
FFFE
FFFE
FFFE
FFFE
FFFE
ENDCHAR
STARTCHAR 0115
ENCODING 277
SWIDTH 526 0
DWIDTH 19 0
BBX 17 26 1 1
BITMAP
1C1E00
1E1E00
1FFE00
0FFC00
0FF800
01E000
000000
000000
03F000
0FFC00
1FFE00
3FFF00
7FFF00
7E1F00
7C1F80
FFFF80
FFFF80
FFFF80
FFFF80
FC0000
7E0000
7FFE00
3FFE00
1FFF00
0FFE00
03F800
ENDCHAR
STARTCHAR 0116
ENCODING 278
SWIDTH 553 0
DWIDTH 20 0
BBX 15 32 3 0
BITMAP
0380
07E0
0FE0
0FE0
0FE0
07C0
0000
0000
FFFE
FFFE
FFFE
FFFE
FFFE
FC00
FC00
FC00
FC00
FFF8
FFF8
FFF8
FFF8
FFF8
FC00
FC00
FC00
FC00
FC00
FFFE
FFFE
FFFE
FFFE
FFFE
ENDCHAR
STARTCHAR 0117
ENCODING 279
SWIDTH 526 0
DWIDTH 19 0
BBX 17 26 1 0
BITMAP
01E000
03F000
03F000
03F000
03F000
01E000
000000
000000
03F000
0FFC00
1FFE00
3FFF00
7FFF00
7E1F00
7C1F80
FFFF80
FFFF80
FFFF80
FFFF80
FC0000
7E0000
7FFE00
3FFE00
1FFF00
0FFE00
03F800
ENDCHAR
STARTCHAR 0118
ENCODING 280
SWIDTH 553 0
DWIDTH 20 0
BBX 16 32 3 -8
BITMAP
FFFE
FFFE
FFFE
FFFE
FFFE
FC00
FC00
FC00
FC00
FFF8
FFF8
FFF8
FFF8
FFF8
FC00
FC00
FC00
FC00
FC00
FFFE
FFFE
FFFE
FFFE
FFFE
0038
0070
00F0
00F0
01FE
00FE
00FF
007C
ENDCHAR
STARTCHAR 0119
ENCODING 281
SWIDTH 526 0
DWIDTH 19 0
BBX 17 26 1 -8
BITMAP
03F000
0FFC00
1FFE00
3FFF00
7FFF00
7E1F00
7C1F80
FFFF80
FFFF80
FFFF80
FFFF80
FC0000
7E0000
7FFE00
3FFE00
1FFF00
0FFE00
03FC00
003800
007000
007000
00F000
00FE00
00FF00
007F00
003E00
ENDCHAR
STARTCHAR 011A
ENCODING 282
SWIDTH 553 0
DWIDTH 20 0
BBX 15 31 3 1
BITMAP
3838
7C7C
3FF8
1FF0
0FE0
0000
0000
FFFE
FFFE
FFFE
FFFE
FFFE
FC00
FC00
FC00
FC00
FFF8
FFF8
FFF8
FFF8
FFF8
FC00
FC00
FC00
FC00
FC00
FFFE
FFFE
FFFE
FFFE
FFFE
ENDCHAR
STARTCHAR 011B
ENCODING 283
SWIDTH 526 0
DWIDTH 19 0
BBX 17 28 1 0
BITMAP
180400
3C0E00
3F3E00
1FFE00
0FFC00
0FF800
07F000
000000
000000
000000
03F000
0FFC00
1FFE00
3FFF00
7FFF00
7E1F00
7C1F80
FFFF80
FFFF80
FFFF80
FFFF80
FC0000
7E0000
7FFE00
3FFE00
1FFF00
0FFE00
03F800
ENDCHAR
STARTCHAR 011C
ENCODING 284
SWIDTH 636 0
DWIDTH 23 0
BBX 19 30 2 0
BITMAP
00FE00
01FF00
03FF80
07C7C0
038380
000000
00FE00
07FF80
0FFFC0
1FFFE0
3FFFC0
7FEF80
7F0100
FE0000
FE0000
FC0000
FC3FE0
FC3FE0
FC3FE0
FC3FE0
FC3FE0
FE03E0
FE03E0
7F03E0
7FE7E0
3FFFE0
3FFFE0
0FFFE0
07FF80
00FE00
ENDCHAR
STARTCHAR 011D
ENCODING 285
SWIDTH 553 0
DWIDTH 20 0
BBX 18 35 1 -8
BITMAP
03F800
07FC00
0FFC00
1FFE00
3F3F00
1E0E00
080400
000000
000000
07FFC0
1FFFC0
3FFFC0
7FFFC0
7E7E00
7C3F00
7C3F00
7E3E00
7FFE00
3FFE00
1FFC00
3FF000
7C0000
7C0000
7FF800
7FFF00
3FFF80
1FFFC0
7FFFC0
780FC0
F80FC0
FC1FC0
FFFF80
7FFF00
3FFC00
0FE000
ENDCHAR
STARTCHAR 011E
ENCODING 286
SWIDTH 636 0
DWIDTH 23 0
BBX 19 31 2 0
BITMAP
008200
0783C0
03FF80
03FF80
01FF00
00FC00
000000
00FE00
07FF80
0FFFC0
1FFFE0
3FFFC0
7FEF80
7F0100
FE0000
FE0000
FC0000
FC3FE0
FC3FE0
FC3FE0
FC3FE0
FC3FE0
FE03E0
FE03E0
7F03E0
7FE7E0
3FFFE0
3FFFE0
0FFFE0
07FF80
00FE00
ENDCHAR
STARTCHAR 011F
ENCODING 287
SWIDTH 553 0
DWIDTH 20 0
BBX 18 35 1 -8
BITMAP
1E0F00
1E1E00
1FFE00
0FFE00
07FC00
03F000
000000
000000
000000
07FFC0
1FFFC0
3FFFC0
7FFFC0
7E7E00
7C3F00
7C3F00
7E3E00
7FFE00
3FFE00
1FFC00
3FF000
7C0000
7C0000
7FF800
7FFF00
3FFF80
1FFFC0
7FFFC0
780FC0
F80FC0
FC1FC0
FFFF80
7FFF00
3FFC00
0FE000
ENDCHAR
STARTCHAR 0120
ENCODING 288
SWIDTH 636 0
DWIDTH 23 0
BBX 19 31 2 0
BITMAP
007C00
00FE00
00FE00
00FE00
00FC00
007800
000000
00FE00
07FF80
0FFFC0
1FFFE0
3FFFC0
7FEF80
7F0100
FE0000
FE0000
FC0000
FC3FE0
FC3FE0
FC3FE0
FC3FE0
FC3FE0
FE03E0
FE03E0
7F03E0
7FE7E0
3FFFE0
3FFFE0
0FFFE0
07FF80
00FE00
ENDCHAR
STARTCHAR 0121
ENCODING 289
SWIDTH 553 0
DWIDTH 20 0
BBX 18 34 1 -8
BITMAP
01E000
03F000
03F800
03F800
03F000
01E000
000000
000000
07FFC0
1FFFC0
3FFFC0
7FFFC0
7E7E00
7C3F00
7C3F00
7E3E00
7FFE00
3FFE00
1FFC00
3FF000
7C0000
7C0000
7FF800
7FFF00
3FFF80
1FFFC0
7FFFC0
780FC0
F80FC0
FC1FC0
FFFF80
7FFF00
3FFC00
0FE000
ENDCHAR
STARTCHAR 0122
ENCODING 290
SWIDTH 636 0
DWIDTH 23 0
BBX 19 32 2 -8
BITMAP
00FE00
07FF80
0FFFC0
1FFFE0
3FFFC0
7FEF80
7F0100
FE0000
FE0000
FC0000
FC3FE0
FC3FE0
FC3FE0
FC3FE0
FC3FE0
FE03E0
FE03E0
7F03E0
7FE7E0
3FFFE0
3FFFE0
0FFFE0
07FF80
00FE00
000000
007800
007C00
003E00
001E00
003E00
01FC00
01F800
ENDCHAR
STARTCHAR 0123
ENCODING 291
SWIDTH 553 0
DWIDTH 20 0
BBX 18 35 1 -8
BITMAP
00F800
03F800
03E000
03C000
03E000
03F000
00E000
000000
000000
07FFC0
1FFFC0
3FFFC0
7FFFC0
7E7E00
7C3F00
7C3F00
7E3E00
7FFE00
3FFE00
1FFC00
3FF000
7C0000
7C0000
7FF800
7FFF00
3FFF80
1FFFC0
7FFFC0
780FC0
F80FC0
FC1FC0
FFFF80
7FFF00
3FFC00
0FE000
ENDCHAR
STARTCHAR 0124
ENCODING 292
SWIDTH 692 0
DWIDTH 25 0
BBX 19 31 3 0
BITMAP
03F800
07FC00
0FFC00
1FBE00
1E1E00
040C00
000000
FC07E0
FC07E0
FC07E0
FC07E0
FC07E0
FC07E0
FC07E0
FC07E0
FC07E0
FFFFE0
FFFFE0
FFFFE0
FFFFE0
FFFFE0
FC07E0
FC07E0
FC07E0
FC07E0
FC07E0
FC07E0
FC07E0
FC07E0
FC07E0
FC07E0
ENDCHAR
STARTCHAR 0125
ENCODING 293
SWIDTH 581 0
DWIDTH 21 0
BBX 20 33 -1 0
BITMAP
1FC000
3FC000
7FE000
F9F000
F0F000
204000
000000
1F8000
1F8000
1F8000
1F8000
1F8000
1F8000
1F8000
1F8000
1F8F80
1FBFC0
1FFFE0
1FFFF0
1FFFF0
1FE7F0
1F83F0
1F83F0
1F83F0
1F83F0
1F83F0
1F83F0
1F83F0
1F83F0
1F83F0
1F83F0
1F83F0
1F83F0
ENDCHAR
STARTCHAR 0126
ENCODING 294
SWIDTH 720 0
DWIDTH 26 0
BBX 24 24 1 0
BITMAP
3F80FC
3F80FC
3F80FC
FFFFFF
FFFFFF
FFFFFF
3F80FC
3F80FC
3F80FC
3FFFFC
3FFFFC
3FFFFC
3FFFFC
3FFFFC
3F80FC
3F80FC
3F80FC
3F80FC
3F80FC
3F80FC
3F80FC
3F80FC
3F80FC
3F80FC
ENDCHAR
STARTCHAR 0127
ENCODING 295
SWIDTH 581 0
DWIDTH 21 0
BBX 19 26 0 0
BITMAP
3F0000
3F0000
FFFC00
FFFC00
FFFC00
3F0000
3F0000
3F0000
3F0000
3F3F00
3F7FC0
3FFFC0
3FFFE0
3FFFE0
3F8FE0
3F07E0
3F07E0
3F07E0
3F07E0
3F07E0
3F07E0
3F07E0
3F07E0
3F07E0
3F07E0
3F07E0
ENDCHAR
STARTCHAR 0128
ENCODING 296
SWIDTH 304 0
DWIDTH 11 0
BBX 15 31 -2 0
BITMAP
3F1E
7F9E
7FFE
7FFC
FBFC
00F0
0000
07E0
07E0
07E0
07E0
07E0
07E0
07E0
07E0
07E0
07E0
07E0
07E0
07E0
07E0
07E0
07E0
07E0
07E0
07E0
07E0
07E0
07E0
07E0
07E0
ENDCHAR
STARTCHAR 0129
ENCODING 297
SWIDTH 276 0
DWIDTH 10 0
BBX 14 27 -2 0
BITMAP
1E38
7F3C
7FFC
FFFC
FBF8
F1F0
0000
0000
0000
0FC0
0FC0
0FC0
0FC0
0FC0
0FC0
0FC0
0FC0
0FC0
0FC0
0FC0
0FC0
0FC0
0FC0
0FC0
0FC0
0FC0
0FC0
ENDCHAR
STARTCHAR 012A
ENCODING 298
SWIDTH 304 0
DWIDTH 11 0
BBX 11 30 0 0
BITMAP
FFE0
FFE0
FFE0
FFE0
0000
0000
1F80
1F80
1F80
1F80
1F80
1F80
1F80
1F80
1F80
1F80
1F80
1F80
1F80
1F80
1F80
1F80
1F80
1F80
1F80
1F80
1F80
1F80
1F80
1F80
ENDCHAR
STARTCHAR 012B
ENCODING 299
SWIDTH 276 0
DWIDTH 10 0
BBX 11 26 0 0
BITMAP
FFE0
FFE0
FFE0
FFE0
0000
0000
0000
0000
3F00
3F00
3F00
3F00
3F00
3F00
3F00
3F00
3F00
3F00
3F00
3F00
3F00
3F00
3F00
3F00
3F00
3F00
ENDCHAR
STARTCHAR 012C
ENCODING 300
SWIDTH 304 0
DWIDTH 11 0
BBX 12 31 0 0
BITMAP
E0F0
F0F0
FFE0
7FE0
3FC0
0400
0000
1F80
1F80
1F80
1F80
1F80
1F80
1F80
1F80
1F80
1F80
1F80
1F80
1F80
1F80
1F80
1F80
1F80
1F80
1F80
1F80
1F80
1F80
1F80
1F80
ENDCHAR
STARTCHAR 012D
ENCODING 301
SWIDTH 276 0
DWIDTH 10 0
BBX 12 27 -1 0
BITMAP
F070
F0F0
FFF0
7FF0
3FE0
1F80
0000
0000
0000
1F80
1F80
1F80
1F80
1F80
1F80
1F80
1F80
1F80
1F80
1F80
1F80
1F80
1F80
1F80
1F80
1F80
1F80
ENDCHAR
STARTCHAR 012E
ENCODING 302
SWIDTH 304 0
DWIDTH 11 0
BBX 8 32 2 -8
BITMAP
7E
7E
7E
7E
7E
7E
7E
7E
7E
7E
7E
7E
7E
7E
7E
7E
7E
7E
7E
7E
7E
7E
7E
7E
3C
70
F0
F0
FE
FF
FF
7C
ENDCHAR
STARTCHAR 012F
ENCODING 303
SWIDTH 276 0
DWIDTH 10 0
BBX 7 34 2 -8
BITMAP
7C
FC
FE
FE
FC
78
00
00
FC
FC
FC
FC
FC
FC
FC
FC
FC
FC
FC
FC
FC
FC
FC
FC
FC
FC
78
70
F0
F0
FE
FE
FE
7E
ENDCHAR
STARTCHAR 0130
ENCODING 304
SWIDTH 304 0
DWIDTH 11 0
BBX 7 32 2 0
BITMAP
3C
7E
FE
FE
7E
7C
00
00
7E
7E
7E
7E
7E
7E
7E
7E
7E
7E
7E
7E
7E
7E
7E
7E
7E
7E
7E
7E
7E
7E
7E
7E
ENDCHAR
STARTCHAR 0131
ENCODING 305
SWIDTH 276 0
DWIDTH 10 0
BBX 6 18 2 0
BITMAP
FC
FC
FC
FC
FC
FC
FC
FC
FC
FC
FC
FC
FC
FC
FC
FC
FC
FC
ENDCHAR
STARTCHAR 0132
ENCODING 306
SWIDTH 636 0
DWIDTH 23 0
BBX 17 31 3 -7
BITMAP
FC1F80
FC1F80
FC1F80
FC1F80
FC1F80
FC1F80
FC1F80
FC1F80
FC1F80
FC1F80
FC1F80
FC1F80
FC1F80
FC1F80
FC1F80
FC1F80
FC1F80
FC1F80
FC1F80
FC1F80
FC1F80
FC1F80
FC1F80
FC1F80
001F80
001F80
00FF80
00FF00
01FF00
01FE00
01F800
ENDCHAR
STARTCHAR 0133
ENCODING 307
SWIDTH 581 0
DWIDTH 21 0
BBX 17 33 2 -7
BITMAP
7C1F00
FC1F80
FE3F80
FE3F80
FC1F80
780F00
000000
000000
FC1F80
FC1F80
FC1F80
FC1F80
FC1F80
FC1F80
FC1F80
FC1F80
FC1F80
FC1F80
FC1F80
FC1F80
FC1F80
FC1F80
FC1F80
FC1F80
FC1F80
FC1F80
001F80
003F80
01FF00
01FF00
01FE00
01FC00
03F800
ENDCHAR
STARTCHAR 0134
ENCODING 308
SWIDTH 526 0
DWIDTH 19 0
BBX 19 31 0 0
BITMAP
003F80
007F80
00FFC0
01F3E0
01E1E0
0040C0
000000
003F00
003F00
003F00
003F00
003F00
003F00
003F00
003F00
003F00
003F00
003F00
003F00
003F00
003F00
003F00
003F00
083F00
183F00
3E7F00
FFFF00
7FFE00
3FFC00
1FF800
07E000
ENDCHAR
STARTCHAR 0135
ENCODING 309
SWIDTH 276 0
DWIDTH 10 0
BBX 14 34 -2 -7
BITMAP
0FE0
1FF0
3FF8
7FF8
FCFC
7838
2010
0000
0000
0FC0
0FC0
0FC0
0FC0
0FC0
0FC0
0FC0
0FC0
0FC0
0FC0
0FC0
0FC0
0FC0
0FC0
0FC0
0FC0
0FC0
0FC0
0FC0
0FC0
7FC0
7FC0
FF80
FF00
FC00
ENDCHAR
STARTCHAR 0136
ENCODING 310
SWIDTH 636 0
DWIDTH 23 0
BBX 20 33 3 -9
BITMAP
FC0FC0
FC1FC0
FC3F80
FC3F00
FC7E00
FCFE00
FCFC00
FDF800
FFF800
FFF000
FFF000
FFF800
FFF800
FFFC00
FFFC00
FFFE00
FE7F00
FC3F00
FC3F80
FC1F80
FC1FC0
FC0FE0
FC0FE0
FC07F0
000000
000000
01E000
03F000
00F800
00F800
03F000
07E000
078000
ENDCHAR
STARTCHAR 0137
ENCODING 311
SWIDTH 581 0
DWIDTH 21 0
BBX 18 35 2 -9
BITMAP
FC0000
FC0000
FC0000
FC0000
FC0000
FC0000
FC0000
FC0000
FC1FC0
FC3F80
FC7F00
FC7E00
FCFC00
FDF800
FFF000
FFF000
FFF000
FFF800
FFFC00
FFFC00
FE7E00
FC7E00
FC3F00
FC3F80
FC1F80
FC1FC0
000000
000000
01E000
03F000
00F800
00F800
07F000
07E000
078000
ENDCHAR
STARTCHAR 0138
ENCODING 312
SWIDTH 581 0
DWIDTH 21 0
BBX 18 18 2 0
BITMAP
FC1FC0
FC3F80
FC7F00
FC7E00
FCFC00
FDF800
FFF800
FFF000
FFF000
FFF800
FFFC00
FFFC00
FEFE00
FE7F00
FC3F00
FC3F80
FC1F80
FC1FC0
ENDCHAR
STARTCHAR 0139
ENCODING 313
SWIDTH 526 0
DWIDTH 19 0
BBX 15 33 3 0
BITMAP
0200
0F00
1F80
3F80
FF00
FE00
7800
3000
0000
FC00
FC00
FC00
FC00
FC00
FC00
FC00
FC00
FC00
FC00
FC00
FC00
FC00
FC00
FC00
FC00
FC00
FC00
FC00
FFFE
FFFE
FFFE
FFFE
FFFE
ENDCHAR
STARTCHAR 013A
ENCODING 314
SWIDTH 304 0
DWIDTH 11 0
BBX 10 35 2 1
BITMAP
0300
0F80
1F80
3FC0
7F00
7E00
3800
1000
0000
FC00
FC00
FC00
FC00
FC00
FC00
FC00
FC00
FC00
FC00
FC00
FC00
FC00
FC00
FC00
FC00
FC00
FC00
FC00
FC00
FE00
FF00
7F00
7F00
3F80
1F80
ENDCHAR
STARTCHAR 013B
ENCODING 315
SWIDTH 526 0
DWIDTH 19 0
BBX 15 33 3 -9
BITMAP
FC00
FC00
FC00
FC00
FC00
FC00
FC00
FC00
FC00
FC00
FC00
FC00
FC00
FC00
FC00
FC00
FC00
FC00
FC00
FFFE
FFFE
FFFE
FFFE
FFFE
0000
0000
0780
07E0
03E0
01E0
0FE0
1FC0
1F00
ENDCHAR
STARTCHAR 013C
ENCODING 316
SWIDTH 304 0
DWIDTH 11 0
BBX 9 34 2 -8
BITMAP
FC00
FC00
FC00
FC00
FC00
FC00
FC00
FC00
FC00
FC00
FC00
FC00
FC00
FC00
FC00
FC00
FC00
FC00
FC00
FC00
FE00
FF00
7F00
7F00
3F80
1F80
0000
1E00
1F00
0F80
0F80
0F80
7F00
7C00
ENDCHAR
STARTCHAR 013D
ENCODING 317
SWIDTH 526 0
DWIDTH 19 0
BBX 15 27 3 0
BITMAP
003C
003C
003C
FC38
FC38
FC38
FC38
FC38
FC00
FC00
FC00
FC00
FC00
FC00
FC00
FC00
FC00
FC00
FC00
FC00
FC00
FC00
FFFE
FFFE
FFFE
FFFE
FFFE
ENDCHAR
STARTCHAR 013E
ENCODING 318
SWIDTH 332 0
DWIDTH 12 0
BBX 11 29 2 0
BITMAP
01E0
01E0
00E0
FCE0
FCE0
FCE0
FCE0
FCC0
FC00
FC00
FC00
FC00
FC00
FC00
FC00
FC00
FC00
FC00
FC00
FC00
FC00
FC00
FC00
FE00
FF00
7F00
7F00
3F80
1F80
ENDCHAR
STARTCHAR 013F
ENCODING 319
SWIDTH 526 0
DWIDTH 19 0
BBX 16 24 3 0
BITMAP
FC00
FC00
FC00
FC00
FC00
FC00
FC00
FC00
FC1C
FC7E
FC7F
FC7F
FC7F
FC7E
FC3E
FC00
FC00
FC00
FC00
FFFE
FFFE
FFFE
FFFE
FFFE
ENDCHAR
STARTCHAR 0140
ENCODING 320
SWIDTH 498 0
DWIDTH 18 0
BBX 16 26 2 0
BITMAP
FC00
FC00
FC00
FC00
FC00
FC00
FC00
FC00
FC00
FC00
FC3E
FC7E
FCFF
FCFF
FC7E
FC7E
FC3C
FC00
FC00
FC00
FE00
FF00
7F00
7F00
3F80
1F80
ENDCHAR
STARTCHAR 0141
ENCODING 321
SWIDTH 526 0
DWIDTH 19 0
BBX 19 24 -1 0
BITMAP
0FC000
0FC000
0FC000
0FC000
0FC000
0FC000
0FC300
0FC700
0FDF80
0FFFC0
0FFF00
0FFC00
1FF800
7FE000
FFC000
7FC000
7FC000
2FC000
0FC000
0FFFE0
0FFFE0
0FFFE0
0FFFE0
0FFFE0
ENDCHAR
STARTCHAR 0142
ENCODING 322
SWIDTH 304 0
DWIDTH 11 0
BBX 13 26 -1 0
BITMAP
0FC0
0FC0
0FC0
0FC0
0FC0
0FC0
0FC0
0FC0
0FF0
0FF0
0FF8
0FF8
3FF0
FFC0
FFC0
7FC0
3FC0
0FC0
0FC0
0FC0
0FC0
0FE0
0FF0
0FF0
07F0
03F0
ENDCHAR
STARTCHAR 0143
ENCODING 323
SWIDTH 664 0
DWIDTH 24 0
BBX 19 33 3 0
BITMAP
000800
001C00
007E00
00FF00
01FE00
03F800
01F000
00C000
000000
FC07E0
FE07E0
FE07E0
FF07E0
FF07E0
FF87E0
FF87E0
FFC7E0
FFC7E0
FBE7E0
FBE7E0
FBE7E0
F9F7E0
F9F7E0
F8FFE0
FCFFE0
FC7FE0
FC7FE0
FC3FE0
FC3FE0
FC1FE0
FC1FE0
FC0FE0
FC0FE0
ENDCHAR
STARTCHAR 0144
ENCODING 324
SWIDTH 581 0
DWIDTH 21 0
BBX 17 30 2 0
BITMAP
000C00
001E00
003F00
007F80
007F00
00FE00
01FC00
00F000
006000
000000
000000
000000
F87C00
F9FE00
FFFF00
FFFF80
FFFF80
FF3F80
FC1F80
FC1F80
FC1F80
FC1F80
FC1F80
FC1F80
FC1F80
FC1F80
FC1F80
FC1F80
FC1F80
FC1F80
ENDCHAR
STARTCHAR 0145
ENCODING 325
SWIDTH 664 0
DWIDTH 24 0
BBX 19 33 3 -9
BITMAP
FC07E0
FE07E0
FE07E0
FF07E0
FF07E0
FF87E0
FF87E0
FFC7E0
FFC7E0
FBE7E0
FBE7E0
FBE7E0
F9F7E0
F9F7E0
F8FFE0
FCFFE0
FC7FE0
FC7FE0
FC3FE0
FC3FE0
FC1FE0
FC1FE0
FC0FE0
FC0FE0
000000
000000
00F000
01F800
00F800
007800
03F800
07F000
03C000
ENDCHAR
STARTCHAR 0146
ENCODING 326
SWIDTH 581 0
DWIDTH 21 0
BBX 17 27 2 -9
BITMAP
F87C00
F9FE00
FFFF00
FFFF80
FFFF80
FF3F80
FC1F80
FC1F80
FC1F80
FC1F80
FC1F80
FC1F80
FC1F80
FC1F80
FC1F80
FC1F80
FC1F80
FC1F80
000000
000000
01E000
03F000
00F000
00F000
07F000
0FE000
078000
ENDCHAR
STARTCHAR 0147
ENCODING 327
SWIDTH 664 0
DWIDTH 24 0
BBX 19 31 3 1
BITMAP
0E0E00
1F3E00
0FFC00
07FC00
07F800
000000
000000
FC07E0
FE07E0
FE07E0
FF07E0
FF07E0
FF87E0
FF87E0
FFC7E0
FFC7E0
FBE7E0
FBE7E0
FBE7E0
F9F7E0
F9F7E0
F8FFE0
FCFFE0
FC7FE0
FC7FE0
FC3FE0
FC3FE0
FC1FE0
FC1FE0
FC0FE0
FC0FE0
ENDCHAR
STARTCHAR 0148
ENCODING 328
SWIDTH 581 0
DWIDTH 21 0
BBX 17 28 2 0
BITMAP
0C0000
1E0F00
1F1F00
1FFE00
0FFC00
07FC00
03F800
000000
000000
000000
F87C00
F9FE00
FFFF00
FFFF80
FFFF80
FF3F80
FC1F80
FC1F80
FC1F80
FC1F80
FC1F80
FC1F80
FC1F80
FC1F80
FC1F80
FC1F80
FC1F80
FC1F80
ENDCHAR
STARTCHAR 0149
ENCODING 329
SWIDTH 886 0
DWIDTH 32 0
BBX 27 26 3 0
BITMAP
78000000
FC000000
FC000000
FC000000
FE000000
FE000000
1E000000
1E000000
1C3E1F00
1C3E7F80
3C3EFFC0
783FFFC0
F03FFFE0
E03FCFE0
003F07E0
003F07E0
003F07E0
003F07E0
003F07E0
003F07E0
003F07E0
003F07E0
003F07E0
003F07E0
003F07E0
003F07E0
ENDCHAR
STARTCHAR 014A
ENCODING 330
SWIDTH 664 0
DWIDTH 24 0
BBX 20 24 3 0
BITMAP
FC7E00
FDFF00
FFFF80
FFFFC0
FFFFE0
FF9FE0
FE0FE0
FC07F0
FC07F0
FC07F0
FC07F0
FC03F0
FC03F0
FC03F0
FC07F0
FC07F0
FC07F0
FC07E0
FC3FE0
FC7FE0
FC7FC0
FC7FC0
FC7F80
FC7E00
ENDCHAR
STARTCHAR 014B
ENCODING 331
SWIDTH 581 0
DWIDTH 21 0
BBX 17 25 2 -7
BITMAP
F87C00
F9FE00
FFFF00
FFFF80
FFFF80
FF3F80
FC1F80
FC1F80
FC1F80
FC1F80
FC1F80
FC1F80
FC1F80
FC1F80
FC1F80
FC1F80
FC1F80
FC1F80
001F80
003F80
00FF80
01FF00
01FF00
01FE00
01F800
ENDCHAR
STARTCHAR 014C
ENCODING 332
SWIDTH 692 0
DWIDTH 25 0
BBX 21 30 2 0
BITMAP
07FF00
07FF00
07FF00
07FF00
000000
000000
01FC00
07FF00
1FFFC0
3FFFE0
3FFFE0
7FDFF0
7F07F8
FE03F8
FC01F8
FC01F8
FC01F8
FC01F8
FC01F8
FC01F8
FC01F8
FE01F8
FE03F8
7F07F0
7FDFF0
3FFFE0
3FFFE0
1FFFC0
07FF00
01FC00
ENDCHAR
STARTCHAR 014D
ENCODING 333
SWIDTH 553 0
DWIDTH 20 0
BBX 18 26 1 0
BITMAP
0FFE00
0FFE00
0FFE00
0FFE00
000000
000000
000000
000000
03F000
0FFC00
1FFE00
3FFF00
7FFF80
7F1F80
7E1FC0
FE0FC0
FE0FC0
FE0FC0
FE0FC0
FE1FC0
7F1F80
7FFF80
3FFF00
1FFE00
0FFC00
03F000
ENDCHAR
STARTCHAR 014E
ENCODING 334
SWIDTH 692 0
DWIDTH 25 0
BBX 21 31 2 0
BITMAP
010400
0F0780
07FF00
07FF00
03FE00
01F800
000000
01FC00
07FF00
1FFFC0
3FFFE0
3FFFE0
7FDFF0
7F07F8
FE03F8
FC01F8
FC01F8
FC01F8
FC01F8
FC01F8
FC01F8
FC01F8
FE01F8
FE03F8
7F07F0
7FDFF0
3FFFE0
3FFFE0
1FFFC0
07FF00
01FC00
ENDCHAR
STARTCHAR 014F
ENCODING 335
SWIDTH 553 0
DWIDTH 20 0
BBX 18 26 1 1
BITMAP
1E0E00
1E1E00
1FFE00
0FFC00
07F800
01E000
000000
000000
03F000
0FFC00
1FFE00
3FFF00
7FFF80
7F1F80
7E1FC0
FE0FC0
FE0FC0
FE0FC0
FE0FC0
FE1FC0
7F1F80
7FFF80
3FFF00
1FFE00
0FFC00
03F000
ENDCHAR
STARTCHAR 0150
ENCODING 336
SWIDTH 692 0
DWIDTH 25 0
BBX 21 32 2 0
BITMAP
00C1C0
00F1E0
01F3E0
03E3C0
03C7C0
078F80
018300
000000
01FC00
07FF00
1FFFC0
3FFFE0
3FFFE0
7FDFF0
7F07F8
FE03F8
FC01F8
FC01F8
FC01F8
FC01F8
FC01F8
FC01F8
FC01F8
FE01F8
FE03F8
7F07F0
7FDFF0
3FFFE0
3FFFE0
1FFFC0
07FF00
01FC00
ENDCHAR
STARTCHAR 0151
ENCODING 337
SWIDTH 553 0
DWIDTH 20 0
BBX 18 28 1 0
BITMAP
010200
03C780
03E7C0
07CF80
07CF00
079F00
0F1E00
030400
000000
000000
03F000
0FFC00
1FFE00
3FFF00
7FFF80
7F1F80
7E1FC0
FE0FC0
FE0FC0
FE0FC0
FE0FC0
FE1FC0
7F1F80
7FFF80
3FFF00
1FFE00
0FFC00
03F000
ENDCHAR
STARTCHAR 0152
ENCODING 338
SWIDTH 886 0
DWIDTH 32 0
BBX 28 24 2 0
BITMAP
00FFFFE0
07FFFFE0
1FFFFFE0
3FFFFFE0
3FFFFFE0
7F87E000
7F07E000
FE07E000
FC07E000
FC07FFC0
FC07FFC0
FC07FFC0
FC07FFC0
FC07FFC0
FC07E000
FE07E000
FE07E000
7F07E000
7F87E000
3FFFFFF0
3FFFFFF0
1FFFFFF0
07FFFFF0
01FFFFF0
ENDCHAR
STARTCHAR 0153
ENCODING 339
SWIDTH 803 0
DWIDTH 29 0
BBX 27 18 1 0
BITMAP
03F07E00
0FF8FF00
1FFDFF80
3FFFFFC0
7FFFFFC0
7E3FC7E0
FE1F83E0
FE1FFFE0
FC1FFFE0
FC1FFFE0
FE1FFFE0
FE1F8000
7E3FC080
7FFFFF80
3FFFFFC0
1FFDFFC0
0FF8FFC0
03E07E00
ENDCHAR
STARTCHAR 0154
ENCODING 340
SWIDTH 636 0
DWIDTH 23 0
BBX 19 33 3 0
BITMAP
001000
003800
007C00
01FE00
03FC00
03F000
01E000
008000
000000
FFF800
FFFE00
FFFF00
FFFF80
FFFF80
FC1FC0
FC0FC0
FC0FC0
FC0FC0
FC1FC0
FC3FC0
FFFF80
FFFF80
FFFF00
FFFC00
FFFE00
FCFE00
FC7F00
FC7F00
FC3F80
FC3F80
FC1FC0
FC1FC0
FC0FE0
ENDCHAR
STARTCHAR 0155
ENCODING 341
SWIDTH 415 0
DWIDTH 15 0
BBX 15 30 2 0
BITMAP
0030
0078
00FC
01FE
01FC
03F8
07F0
03C0
0180
0000
0000
0000
F878
F9F8
FBF8
FFF0
FFF0
FF90
FF00
FE00
FC00
FC00
FC00
FC00
FC00
FC00
FC00
FC00
FC00
FC00
ENDCHAR
STARTCHAR 0156
ENCODING 342
SWIDTH 636 0
DWIDTH 23 0
BBX 19 33 3 -9
BITMAP
FFF800
FFFE00
FFFF00
FFFF80
FFFF80
FC1FC0
FC0FC0
FC0FC0
FC0FC0
FC1FC0
FC3FC0
FFFF80
FFFF80
FFFF00
FFFC00
FFFE00
FCFE00
FC7F00
FC7F00
FC3F80
FC3F80
FC1FC0
FC1FC0
FC0FE0
000000
000000
01E000
03F000
00F800
00F800
03F000
07E000
078000
ENDCHAR
STARTCHAR 0157
ENCODING 343
SWIDTH 415 0
DWIDTH 15 0
BBX 14 27 1 -9
BITMAP
7C3C
7CFC
7DFC
7FF8
7FF8
7FC8
7F80
7F00
7E00
7E00
7E00
7E00
7E00
7E00
7E00
7E00
7E00
7E00
0000
0000
3C00
3F00
1F00
1F00
7F00
FE00
F000
ENDCHAR
STARTCHAR 0158
ENCODING 344
SWIDTH 636 0
DWIDTH 23 0
BBX 19 31 3 1
BITMAP
1C1C00
3E3C00
1FFC00
0FF800
07F000
000000
000000
FFF800
FFFE00
FFFF00
FFFF80
FFFF80
FC1FC0
FC0FC0
FC0FC0
FC0FC0
FC1FC0
FC3FC0
FFFF80
FFFF80
FFFF00
FFFC00
FFFE00
FCFE00
FC7F00
FC7F00
FC3F80
FC3F80
FC1FC0
FC1FC0
FC0FE0
ENDCHAR
STARTCHAR 0159
ENCODING 345
SWIDTH 415 0
DWIDTH 15 0
BBX 14 28 2 0
BITMAP
3000
783C
7C7C
7FF8
3FF0
1FF0
0FE0
0000
0000
0000
F878
F9F8
FBF8
FFF0
FFF0
FF90
FF00
FE00
FC00
FC00
FC00
FC00
FC00
FC00
FC00
FC00
FC00
FC00
ENDCHAR
STARTCHAR 015A
ENCODING 346
SWIDTH 553 0
DWIDTH 20 0
BBX 18 32 1 1
BITMAP
000C00
003E00
007F00
00FF00
01FC00
00F800
00E000
004000
01F800
0FFE00
1FFF80
3FFF80
3FFF00
7F9F00
7E0200
7F0000
7F8000
7FF000
3FFC00
1FFF00
0FFF80
07FFC0
00FFC0
003FC0
000FC0
180FC0
3F3FC0
7FFFC0
FFFF80
7FFF00
1FFE00
07F000
ENDCHAR
STARTCHAR 015B
ENCODING 347
SWIDTH 443 0
DWIDTH 16 0
BBX 15 30 1 0
BITMAP
0010
0038
007C
00FE
01FE
01FC
03F0
03E0
01C0
0080
0000
0000
07E0
1FF8
3FFC
7FFC
7FF8
7C10
7F00
7FE0
3FF8
1FFC
07FC
00FC
307C
7FFC
FFFC
FFF8
7FF0
0FC0
ENDCHAR
STARTCHAR 015C
ENCODING 348
SWIDTH 553 0
DWIDTH 20 0
BBX 18 30 1 0
BITMAP
03F800
07FC00
0FFE00
0F1F00
0E0E00
000000
01F800
0FFE00
1FFF80
3FFF80
3FFF00
7F9F00
7E0200
7F0000
7F8000
7FF000
3FFC00
1FFF00
0FFF80
07FFC0
00FFC0
003FC0
000FC0
180FC0
3F3FC0
7FFFC0
FFFF80
7FFF00
1FFE00
07F000
ENDCHAR
STARTCHAR 015D
ENCODING 349
SWIDTH 443 0
DWIDTH 16 0
BBX 14 27 1 0
BITMAP
0FE0
0FF0
1FF8
3FFC
7E7C
7C3C
3018
0000
0000
07E0
1FF8
3FFC
7FFC
7FF8
7C10
7F00
7FE0
3FF8
1FFC
07FC
00FC
307C
7FFC
FFFC
FFF8
7FF0
0FC0
ENDCHAR
STARTCHAR 015E
ENCODING 350
SWIDTH 553 0
DWIDTH 20 0
BBX 18 32 1 -8
BITMAP
01F800
0FFE00
1FFF80
3FFF80
3FFF00
7F9F00
7E0200
7F0000
7F8000
7FE000
3FFC00
1FFF00
0FFF80
07FFC0
00FFC0
003FC0
000FC0
180FC0
3E1FC0
7FFFC0
FFFF80
7FFF00
1FFE00
07F800
01E000
01C000
03F000
01F800
00F800
00F800
07F000
07C000
ENDCHAR
STARTCHAR 015F
ENCODING 351
SWIDTH 443 0
DWIDTH 16 0
BBX 14 26 1 -8
BITMAP
07E0
1FF8
3FFC
7FFC
7FF8
7C10
7E00
7FC0
3FF0
1FF8
0FFC
01FC
207C
78FC
7FFC
FFF8
7FF0
1FC0
0380
0780
07C0
03E0
01E0
03E0
1FE0
0F80
ENDCHAR
STARTCHAR 0160
ENCODING 352
SWIDTH 553 0
DWIDTH 20 0
BBX 18 31 1 0
BITMAP
040400
0F0F00
0FBE00
07FE00
07FC00
03F800
000000
01F800
0FFE00
1FFF80
3FFF80
3FFF00
7F9F00
7E0200
7F0000
7F8000
7FF000
3FFC00
1FFF00
0FFF80
07FFC0
00FFC0
003FC0
000FC0
180FC0
3F3FC0
7FFFC0
FFFF80
7FFF00
1FFE00
07F000
ENDCHAR
STARTCHAR 0161
ENCODING 353
SWIDTH 443 0
DWIDTH 16 0
BBX 14 28 1 0
BITMAP
3008
783C
7E7C
3FFC
1FF8
1FF0
0FE0
0000
0000
0000
07E0
1FF8
3FFC
7FFC
7FF8
7C10
7F00
7FE0
3FF8
1FFC
07FC
00FC
307C
7FFC
FFFC
FFF8
7FF0
0FC0
ENDCHAR
STARTCHAR 0162
ENCODING 354
SWIDTH 553 0
DWIDTH 20 0
BBX 18 33 1 -9
BITMAP
FFFFC0
FFFFC0
FFFFC0
FFFFC0
FFFFC0
03F000
03F000
03F000
03F000
03F000
03F000
03F000
03F000
03F000
03F000
03F000
03F000
03F000
03F000
03F000
03F000
03F000
03F000
03F000
01E000
01E000
03E000
03F800
00F800
007800
03F800
07F000
078000
ENDCHAR
STARTCHAR 0163
ENCODING 355
SWIDTH 387 0
DWIDTH 14 0
BBX 13 31 1 -8
BITMAP
1F00
1F00
1F00
3F00
3F00
FFF0
FFF0
FFF0
FFF0
FFF0
3F00
3F00
3F00
3F00
3F00
3F00
3F00
3F00
3FF0
3FF0
1FF0
0FF8
07F0
0380
0780
07E0
03F0
01F0
01F0
0FE0
0F80
ENDCHAR
STARTCHAR 0164
ENCODING 356
SWIDTH 553 0
DWIDTH 20 0
BBX 18 31 1 1
BITMAP
0E0E00
1F3E00
0FFC00
07FC00
07F800
000000
000000
FFFFC0
FFFFC0
FFFFC0
FFFFC0
FFFFC0
03F000
03F000
03F000
03F000
03F000
03F000
03F000
03F000
03F000
03F000
03F000
03F000
03F000
03F000
03F000
03F000
03F000
03F000
03F000
ENDCHAR
STARTCHAR 0165
ENCODING 357
SWIDTH 387 0
DWIDTH 14 0
BBX 13 28 1 0
BITMAP
0078
0078
0078
0078
0078
1F70
1F70
1F70
3F00
3F00
FFF0
FFF0
FFF0
FFF0
FFF0
3F00
3F00
3F00
3F00
3F00
3F00
3F00
3F80
3FF0
1FF0
1FF0
0FF8
03F0
ENDCHAR
STARTCHAR 0166
ENCODING 358
SWIDTH 553 0
DWIDTH 20 0
BBX 18 24 1 0
BITMAP
FFFFC0
FFFFC0
FFFFC0
FFFFC0
FFFFC0
03F000
03F000
03F000
03F000
03F000
03F000
3FFF00
3FFF00
3FFF00
03F000
03F000
03F000
03F000
03F000
03F000
03F000
03F000
03F000
03F000
ENDCHAR
STARTCHAR 0167
ENCODING 359
SWIDTH 387 0
DWIDTH 14 0
BBX 13 23 1 0
BITMAP
1F00
1F00
1F00
3F00
3F00
FFF0
FFF0
FFF0
FFF0
FFF0
3F00
3F00
FFF0
FFF0
FFF0
3F00
3F00
3F80
3FF0
1FF0
1FF0
0FF8
03F0
ENDCHAR
STARTCHAR 0168
ENCODING 360
SWIDTH 664 0
DWIDTH 24 0
BBX 20 31 2 0
BITMAP
07C380
0FF780
1FFF80
1FFF80
1E7F00
003E00
000000
FE03F0
FE03F0
FE03F0
FE03F0
FE03F0
FE03F0
FE03F0
FE03F0
FE03F0
FE03F0
FE03F0
FE03F0
FE03F0
FE03F0
7E03F0
7E03F0
7E07E0
7F07E0
7F9FE0
3FFFC0
3FFFC0
1FFF80
0FFF00
03FC00
ENDCHAR
STARTCHAR 0169
ENCODING 361
SWIDTH 581 0
DWIDTH 21 0
BBX 17 27 2 0
BITMAP
0F0C00
1FDE00
3FFE00
3FFE00
7DFE00
78FC00
000000
000000
000000
FC1F80
FC1F80
FC1F80
FC1F80
FC1F80
FC1F80
FC1F80
FC1F80
FC1F80
FC1F80
FC1F80
FC3F80
FE7F80
FFFF80
FFFF80
7FFF80
3FDF80
1F0F80
ENDCHAR
STARTCHAR 016A
ENCODING 362
SWIDTH 664 0
DWIDTH 24 0
BBX 20 30 2 0
BITMAP
0FFF00
0FFF00
0FFF00
0FFF00
000000
000000
FE03F0
FE03F0
FE03F0
FE03F0
FE03F0
FE03F0
FE03F0
FE03F0
FE03F0
FE03F0
FE03F0
FE03F0
FE03F0
FE03F0
7E03F0
7E03F0
7E07E0
7F07E0
7F9FE0
3FFFC0
3FFFC0
1FFF80
0FFF00
03FC00
ENDCHAR
STARTCHAR 016B
ENCODING 363
SWIDTH 581 0
DWIDTH 21 0
BBX 17 26 2 0
BITMAP
1FFC00
1FFC00
1FFC00
1FFC00
000000
000000
000000
000000
FC1F80
FC1F80
FC1F80
FC1F80
FC1F80
FC1F80
FC1F80
FC1F80
FC1F80
FC1F80
FC1F80
FC3F80
FE7F80
FFFF80
FFFF80
7FFF80
3FDF80
1F0F80
ENDCHAR
STARTCHAR 016C
ENCODING 364
SWIDTH 664 0
DWIDTH 24 0
BBX 20 31 2 0
BITMAP
0F0700
0F0F00
0FFF00
07FE00
03FC00
000000
000000
FE03F0
FE03F0
FE03F0
FE03F0
FE03F0
FE03F0
FE03F0
FE03F0
FE03F0
FE03F0
FE03F0
FE03F0
FE03F0
FE03F0
7E03F0
7E03F0
7E07E0
7F07E0
7F9FE0
3FFFC0
3FFFC0
1FFF80
0FFF00
03FC00
ENDCHAR
STARTCHAR 016D
ENCODING 365
SWIDTH 581 0
DWIDTH 21 0
BBX 17 27 2 0
BITMAP
3C1E00
3E3E00
1FFC00
1FFC00
0FF800
07E000
000000
000000
000000
FC1F80
FC1F80
FC1F80
FC1F80
FC1F80
FC1F80
FC1F80
FC1F80
FC1F80
FC1F80
FC1F80
FC3F80
FE7F80
FFFF80
FFFF80
7FFF80
3FDF80
1F0F80
ENDCHAR
STARTCHAR 016E
ENCODING 366
SWIDTH 664 0
DWIDTH 24 0
BBX 20 33 2 0
BITMAP
00F800
01FC00
039C00
039C00
039C00
03FC00
01F800
000000
000000
FE03F0
FE03F0
FE03F0
FE03F0
FE03F0
FE03F0
FE03F0
FE03F0
FE03F0
FE03F0
FE03F0
FE03F0
FE03F0
FE03F0
7E03F0
7E03F0
7E07E0
7F07E0
7F9FE0
3FFFC0
3FFFC0
1FFF80
0FFF00
03FC00
ENDCHAR
STARTCHAR 016F
ENCODING 367
SWIDTH 581 0
DWIDTH 21 0
BBX 17 28 2 0
BITMAP
03E000
0FF800
0F7800
1E3C00
0E3800
0FF800
07F000
000000
000000
000000
FC1F80
FC1F80
FC1F80
FC1F80
FC1F80
FC1F80
FC1F80
FC1F80
FC1F80
FC1F80
FC1F80
FC3F80
FE7F80
FFFF80
FFFF80
7FFF80
3FDF80
1F0F80
ENDCHAR
STARTCHAR 0170
ENCODING 368
SWIDTH 664 0
DWIDTH 24 0
BBX 20 33 2 0
BITMAP
008100
00E1C0
01F3E0
03E3E0
03E7C0
07CF80
038700
000000
000000
FE03F0
FE03F0
FE03F0
FE03F0
FE03F0
FE03F0
FE03F0
FE03F0
FE03F0
FE03F0
FE03F0
FE03F0
FE03F0
FE03F0
7E03F0
7E03F0
7E07E0
7F07E0
7F9FE0
3FFFC0
3FFFC0
1FFF80
0FFF00
03FC00
ENDCHAR
STARTCHAR 0171
ENCODING 369
SWIDTH 581 0
DWIDTH 21 0
BBX 17 28 2 0
BITMAP
038600
03EF80
07CF80
078F00
0F9E00
0F1E00
0E1C00
020400
000000
000000
FC1F80
FC1F80
FC1F80
FC1F80
FC1F80
FC1F80
FC1F80
FC1F80
FC1F80
FC1F80
FC1F80
FC3F80
FE7F80
FFFF80
FFFF80
7FFF80
3FDF80
1F0F80
ENDCHAR
STARTCHAR 0172
ENCODING 370
SWIDTH 664 0
DWIDTH 24 0
BBX 20 32 2 -8
BITMAP
FE03F0
FE03F0
FE03F0
FE03F0
FE03F0
FE03F0
FE03F0
FE03F0
FE03F0
FE03F0
FE03F0
FE03F0
FE03F0
FE03F0
7E03F0
7E03F0
7E07F0
7F07E0
7F9FE0
3FFFE0
3FFFC0
1FFF80
0FFF00
03FC00
00F000
00E000
01E000
01E000
01FC00
01FE00
01FE00
007800
ENDCHAR
STARTCHAR 0173
ENCODING 371
SWIDTH 581 0
DWIDTH 21 0
BBX 17 26 2 -8
BITMAP
FC1F80
FC1F80
FC1F80
FC1F80
FC1F80
FC1F80
FC1F80
FC1F80
FC1F80
FC1F80
FC1F80
FC3F80
FE7F80
FFFF80
7FFF80
7FFF80
3FDF80
1F0F80
001E00
003C00
003C00
003C00
007F80
003F80
003F80
001F80
ENDCHAR
STARTCHAR 0174
ENCODING 372
SWIDTH 830 0
DWIDTH 30 0
BBX 29 31 0 0
BITMAP
001FC000
001FE000
003FF000
007CF800
00787800
00302000
00000000
FE0FC1F8
7E0FC1F8
7E0FC1F8
7E0FC1F8
7E0FE1F8
7E1FE1F0
7F1FE1F0
3F1FE1F0
3F1FE3F0
3F3FF3F0
3F3FF3F0
3F3DF3F0
3F3DF3E0
1F3CF3E0
1F3CFBE0
1FFCFBE0
1FFCFBE0
1FF8FFE0
0FF87FC0
0FF87FC0
0FF87FC0
0FF87FC0
0FF07FC0
0FF07FC0
ENDCHAR
STARTCHAR 0175
ENCODING 373
SWIDTH 803 0
DWIDTH 29 0
BBX 27 27 1 0
BITMAP
003F8000
007FC000
00FFE000
01FFF000
01F1F000
01E0F000
00802000
00000000
00000000
FC1F07E0
FC1F87E0
FC3F87C0
7E3F87C0
7E3F8FC0
7E3F8FC0
7E7FCF80
3E7BCF80
3F7BCF80
3F7BCF80
3F7BFF80
1F7BFF00
1FF3FF00
1FF1FF00
1FF1FF00
0FF1FE00
0FF1FE00
0FE1FE00
ENDCHAR
STARTCHAR 0176
ENCODING 374
SWIDTH 553 0
DWIDTH 20 0
BBX 20 31 0 0
BITMAP
03F800
03FC00
07FE00
0F9F00
0F0F00
060400
000000
FC07F0
FE07E0
7E07E0
7E0FC0
3F0FC0
3F0FC0
1F9F80
1F9F80
1F9F00
0FFF00
0FFE00
07FE00
07FC00
03FC00
03F800
01F800
01F800
01F800
01F800
01F800
01F800
01F800
01F800
01F800
ENDCHAR
STARTCHAR 0177
ENCODING 375
SWIDTH 553 0
DWIDTH 20 0
BBX 18 34 1 -7
BITMAP
07F800
07F800
0FFC00
1FFE00
3F3F00
1C0E00
080400
000000
000000
FC0FC0
FC0FC0
FC0F80
7E1F80
7E1F80
3E1F00
3F1F00
3F3F00
1F3E00
1FBE00
0FBE00
0FFC00
0FFC00
07FC00
07F800
07F800
03F800
03F000
03F000
07E000
3FE000
3FC000
3FC000
7F8000
7E0000
ENDCHAR
STARTCHAR 0178
ENCODING 376
SWIDTH 553 0
DWIDTH 20 0
BBX 20 31 0 0
BITMAP
0E0F00
1F1F80
1F9F80
1F1F80
1F0F00
040600
000000
FC07F0
FE07E0
7E07E0
7E0FC0
3F0FC0
3F0FC0
1F9F80
1F9F80
1F9F00
0FFF00
0FFE00
07FE00
07FC00
03FC00
03F800
01F800
01F800
01F800
01F800
01F800
01F800
01F800
01F800
01F800
ENDCHAR
STARTCHAR 0179
ENCODING 377
SWIDTH 553 0
DWIDTH 20 0
BBX 17 33 1 0
BITMAP
000800
001C00
007E00
00FF00
01FE00
01F800
01F000
00C000
000000
7FFF80
7FFF80
7FFF80
7FFF80
7FFF80
003F00
007F00
00FE00
00FC00
01FC00
03F800
03F000
07F000
0FE000
0FE000
1FC000
1F8000
3F8000
7F0000
7FFF80
FFFF80
FFFF80
FFFF80
FFFF80
ENDCHAR
STARTCHAR 017A
ENCODING 378
SWIDTH 470 0
DWIDTH 17 0
BBX 15 30 1 0
BITMAP
0010
0038
007C
00FE
01FE
01FC
03F0
01E0
00C0
0000
0000
0000
7FFE
7FFE
7FFE
7FFE
7FFC
01FC
03F8
07F0
07E0
0FE0
1FC0
1F80
3F80
7FFE
7FFE
FFFE
FFFE
FFFE
ENDCHAR
STARTCHAR 017B
ENCODING 379
SWIDTH 553 0
DWIDTH 20 0
BBX 17 32 1 0
BITMAP
01E000
03F000
03F800
03F800
03F000
01F000
000000
000000
7FFF80
7FFF80
7FFF80
7FFF80
7FFF80
003F00
007F00
00FE00
00FC00
01FC00
03F800
03F000
07F000
0FE000
0FE000
1FC000
1F8000
3F8000
7F0000
7FFF80
FFFF80
FFFF80
FFFF80
FFFF80
ENDCHAR
STARTCHAR 017C
ENCODING 380
SWIDTH 470 0
DWIDTH 17 0
BBX 15 26 1 0
BITMAP
03C0
07E0
07E0
07E0
07E0
03C0
0000
0000
7FFE
7FFE
7FFE
7FFE
7FFC
01FC
03F8
07F0
07E0
0FE0
1FC0
1F80
3F80
7FFE
7FFE
FFFE
FFFE
FFFE
ENDCHAR
STARTCHAR 017D
ENCODING 381
SWIDTH 553 0
DWIDTH 20 0
BBX 17 32 1 0
BITMAP
040000
0E0E00
1F3E00
0FFE00
07FC00
07F800
000000
000000
7FFF80
7FFF80
7FFF80
7FFF80
7FFF80
003F00
007F00
00FE00
00FC00
01FC00
03F800
03F000
07F000
0FE000
0FE000
1FC000
1F8000
3F8000
7F0000
7FFF80
FFFF80
FFFF80
FFFF80
FFFF80
ENDCHAR
STARTCHAR 017E
ENCODING 382
SWIDTH 470 0
DWIDTH 17 0
BBX 15 28 1 0
BITMAP
1008
3C3E
7E7E
3FFC
1FF8
0FF0
07E0
0000
0000
0000
7FFE
7FFE
7FFE
7FFE
7FFC
01FC
03F8
07F0
07E0
0FE0
1FC0
1F80
3F80
7FFE
7FFE
FFFE
FFFE
FFFE
ENDCHAR
STARTCHAR 0180
ENCODING 384
SWIDTH 581 0
DWIDTH 21 0
BBX 20 26 0 0
BITMAP
3F0000
3F0000
FFFC00
FFFC00
FFFC00
3F0000
3F0000
3F0000
3F0000
3F3E00
3F7F80
3FFFC0
3FFFE0
3FFFE0
3F8FE0
3F07F0
3F07F0
3F07F0
3F07F0
3F07E0
3F8FE0
3FFFE0
3FFFC0
3FFF80
3EFF00
3E3E00
ENDCHAR
STARTCHAR 018F
ENCODING 399
SWIDTH 692 0
DWIDTH 25 0
BBX 21 24 2 0
BITMAP
01FC00
0FFF00
1FFFC0
3FFFE0
1FFFE0
0E0FF0
0C07F0
0003F8
0003F8
0001F8
FFFFF8
FFFFF8
FFFFF8
FFFFF8
FC01F8
FC01F8
FE03F0
7E03F0
7F0FF0
7FFFE0
3FFFC0
1FFF80
0FFF00
01FC00
ENDCHAR
STARTCHAR 0192
ENCODING 402
SWIDTH 553 0
DWIDTH 20 0
BBX 17 28 1 -4
BITMAP
001F80
007F80
00FF80
01FF80
01FF00
01F800
03F000
03F000
03F000
1FFE00
1FFE00
1FFE00
1FFE00
03E000
07E000
07E000
07E000
07E000
07E000
07E000
07E000
0FC000
0FC000
7FC000
7FC000
7F8000
FF0000
7C0000
ENDCHAR
STARTCHAR 0193
ENCODING 403
SWIDTH 636 0
DWIDTH 23 0
BBX 21 30 2 0
BITMAP
000078
0001F8
0003F8
0007F8
0007F8
0007C0
00FFC0
07FFC0
0FFFE0
1FFFC0
3FFF80
7FEF80
7F0100
FE0000
FE0000
FC0000
FC3FE0
FC3FE0
FC3FE0
FC3FE0
FC3FE0
FE03E0
FE03E0
7F03E0
7FE7E0
3FFFE0
3FFFE0
0FFFE0
07FF80
00FE00
ENDCHAR
STARTCHAR 01A0
ENCODING 416
SWIDTH 692 0
DWIDTH 25 0
BBX 23 30 2 0
BITMAP
000004
00001C
00007C
00007E
00007E
00007C
01FC7C
07FFF8
1FFFF0
3FFFE0
3FFFE0
7FDFF0
7F07F0
FE03F8
FC01F8
FC01F8
FC01F8
FC01F8
FC01F8
FC01F8
FC01F8
FE01F8
FE03F8
7F07F0
7FDFF0
3FFFE0
3FFFE0
1FFFC0
07FF00
01FC00
ENDCHAR
STARTCHAR 01A1
ENCODING 417
SWIDTH 553 0
DWIDTH 20 0
BBX 20 24 1 0
BITMAP
0000E0
0003F0
0001F0
0001F0
0001F0
0003E0
03F7E0
0FFFC0
1FFF00
3FFF00
7FFF80
7F1F80
7E1FC0
FE0FC0
FE0FC0
FE0FC0
FE0FC0
FE1FC0
7F1F80
7FFF80
3FFF00
1FFE00
0FFC00
03F000
ENDCHAR
STARTCHAR 01AF
ENCODING 431
SWIDTH 692 0
DWIDTH 25 0
BBX 25 31 2 0
BITMAP
00000100
00000F00
00001F80
00000F80
00000F80
00000F80
00001F00
FE03FF00
FE03FC00
FE03F000
FE03F000
FE03F000
FE03F000
FE03F000
FE03F000
FE03F000
FE03F000
FE03F000
FE03F000
FE03F000
FE03F000
7E03F000
7E03F000
7E07E000
7F07E000
7F9FE000
3FFFC000
3FFFC000
1FFF8000
0FFF0000
03FC0000
ENDCHAR
STARTCHAR 01B0
ENCODING 432
SWIDTH 581 0
DWIDTH 21 0
BBX 21 26 2 0
BITMAP
000030
0000F0
0001F0
0001F8
0001F8
0001F0
0001F0
0003F0
FC1FE0
FC1FC0
FC1F80
FC1F80
FC1F80
FC1F80
FC1F80
FC1F80
FC1F80
FC1F80
FC1F80
FC3F80
FE7F80
FFFF80
FFFF80
7FFF80
3FDF80
1F0F80
ENDCHAR
STARTCHAR 01C2
ENCODING 450
SWIDTH 360 0
DWIDTH 13 0
BBX 12 36 0 -9
BITMAP
0F00
0F00
0F00
0F00
0F00
0F00
0F00
0F00
0F00
0F00
0F00
0F00
FFF0
FFF0
FFF0
0F00
0F00
0F00
0F00
0F00
FFF0
FFF0
FFF0
0F00
0F00
0F00
0F00
0F00
0F00
0F00
0F00
0F00
0F00
0F00
0F00
0F00
ENDCHAR
STARTCHAR 01CD
ENCODING 461
SWIDTH 581 0
DWIDTH 21 0
BBX 21 31 0 1
BITMAP
070700
0F8F00
07FF00
03FE00
01FC00
000000
000000
01FC00
03FE00
03FE00
03FE00
07FF00
07DF00
07DF00
07DF80
0FDF80
0F8F80
0F8F80
1F8FC0
1F8FC0
1F0FC0
3FFFE0
3FFFE0
3FFFE0
3FFFF0
7FFFF0
7E03F0
7E03F0
FE03F8
FC01F8
FC01F8
ENDCHAR
STARTCHAR 01CE
ENCODING 462
SWIDTH 526 0
DWIDTH 19 0
BBX 16 28 1 0
BITMAP
0804
1E0E
1F3F
1FFE
0FFC
07F8
03F8
0000
0000
0000
07F0
1FFC
7FFE
3FFE
3FFF
183F
003F
03FF
1FFF
3FFF
7F3F
7C3F
FC3F
FFFF
7FFF
7FFF
3FDF
1F1F
ENDCHAR
STARTCHAR 01CF
ENCODING 463
SWIDTH 304 0
DWIDTH 11 0
BBX 12 32 0 0
BITMAP
0040
E0E0
F9F0
FFE0
7FC0
3F80
0000
0000
1F80
1F80
1F80
1F80
1F80
1F80
1F80
1F80
1F80
1F80
1F80
1F80
1F80
1F80
1F80
1F80
1F80
1F80
1F80
1F80
1F80
1F80
1F80
1F80
ENDCHAR
STARTCHAR 01D0
ENCODING 464
SWIDTH 276 0
DWIDTH 10 0
BBX 13 28 -1 0
BITMAP
4030
F078
F9F8
FFF0
7FE0
3FC0
1FC0
0000
0000
0000
1F80
1F80
1F80
1F80
1F80
1F80
1F80
1F80
1F80
1F80
1F80
1F80
1F80
1F80
1F80
1F80
1F80
1F80
ENDCHAR
STARTCHAR 01D1
ENCODING 465
SWIDTH 692 0
DWIDTH 25 0
BBX 21 31 2 0
BITMAP
020200
0F8F80
07DF00
07FF00
03FE00
01FC00
000000
01FC00
07FF00
1FFFC0
3FFFE0
3FFFE0
7FDFF0
7F07F8
FE03F8
FC01F8
FC01F8
FC01F8
FC01F8
FC01F8
FC01F8
FC01F8
FE01F8
FE03F8
7F07F0
7FDFF0
3FFFE0
3FFFE0
1FFFC0
07FF00
01FC00
ENDCHAR
STARTCHAR 01D2
ENCODING 466
SWIDTH 553 0
DWIDTH 20 0
BBX 18 28 1 0
BITMAP
080400
1E0E00
3F3F00
1FFE00
0FFC00
07F800
03F800
000000
000000
000000
03F000
0FFC00
1FFE00
3FFF00
7FFF80
7F1F80
7E1FC0
FE0FC0
FE0FC0
FE0FC0
FE0FC0
FE1FC0
7F1F80
7FFF80
3FFF00
1FFE00
0FFC00
03F000
ENDCHAR
STARTCHAR 01D3
ENCODING 467
SWIDTH 664 0
DWIDTH 24 0
BBX 20 31 2 1
BITMAP
070700
0F9F00
07FE00
03FE00
03FC00
000000
000000
FE03F0
FE03F0
FE03F0
FE03F0
FE03F0
FE03F0
FE03F0
FE03F0
FE03F0
FE03F0
FE03F0
FE03F0
FE03F0
FE03F0
7E03F0
7E03F0
7E07E0
7F07E0
7F9FE0
3FFFC0
3FFFC0
1FFF80
0FFF00
03FC00
ENDCHAR
STARTCHAR 01D4
ENCODING 468
SWIDTH 581 0
DWIDTH 21 0
BBX 17 28 2 0
BITMAP
180C00
3C1E00
3F7E00
1FFC00
1FF800
0FF800
07F000
000000
000000
000000
FC1F80
FC1F80
FC1F80
FC1F80
FC1F80
FC1F80
FC1F80
FC1F80
FC1F80
FC1F80
FC1F80
FC3F80
FE7F80
FFFF80
FFFF80
7FFF80
3FDF80
1F0F80
ENDCHAR
STARTCHAR 01D5
ENCODING 469
SWIDTH 664 0
DWIDTH 24 0
BBX 20 35 2 0
BITMAP
0FFF00
0FFF00
0FFF00
000000
060700
0F0F00
0F0F80
0F0F80
0F0700
000000
000000
FE03F0
FE03F0
FE03F0
FE03F0
FE03F0
FE03F0
FE03F0
FE03F0
FE03F0
FE03F0
FE03F0
FE03F0
FE03F0
FE03F0
7E03F0
7E03F0
7E07E0
7F07E0
7F9FE0
3FFFC0
3FFFC0
1FFF80
0FFF00
03FC00
ENDCHAR
STARTCHAR 01D6
ENCODING 470
SWIDTH 581 0
DWIDTH 21 0
BBX 17 31 2 0
BITMAP
1FFC00
1FFC00
1FFC00
000000
000000
1C1C00
3E3E00
3E3E00
3E3E00
1C1C00
000000
000000
000000
FC1F80
FC1F80
FC1F80
FC1F80
FC1F80
FC1F80
FC1F80
FC1F80
FC1F80
FC1F80
FC1F80
FC3F80
FE7F80
FFFF80
FFFF80
7FFF80
3FDF80
1F0F80
ENDCHAR
STARTCHAR 01D7
ENCODING 471
SWIDTH 664 0
DWIDTH 24 0
BBX 20 38 2 0
BITMAP
001000
003C00
003E00
007C00
007800
00F000
006000
060700
0F0F00
0F0F80
0F0F80
0F0700
000000
000000
FE03F0
FE03F0
FE03F0
FE03F0
FE03F0
FE03F0
FE03F0
FE03F0
FE03F0
FE03F0
FE03F0
FE03F0
FE03F0
FE03F0
7E03F0
7E03F0
7E07E0
7F07E0
7F9FE0
3FFFC0
3FFFC0
1FFF80
0FFF00
03FC00
ENDCHAR
STARTCHAR 01D8
ENCODING 472
SWIDTH 581 0
DWIDTH 21 0
BBX 17 33 2 0
BITMAP
004000
00F000
00F000
01E000
01E000
01C000
000000
1C1C00
3E3E00
3E3E00
3E3E00
1C1C00
000000
000000
000000
FC1F80
FC1F80
FC1F80
FC1F80
FC1F80
FC1F80
FC1F80
FC1F80
FC1F80
FC1F80
FC1F80
FC3F80
FE7F80
FFFF80
FFFF80
7FFF80
3FDF80
1F0F80
ENDCHAR
STARTCHAR 01D9
ENCODING 473
SWIDTH 664 0
DWIDTH 24 0
BBX 20 37 2 0
BITMAP
070E00
0F9F00
07FE00
03FC00
01F800
000000
060700
0F0F00
0F0F80
0F0F80
0F0700
000000
000000
FE03F0
FE03F0
FE03F0
FE03F0
FE03F0
FE03F0
FE03F0
FE03F0
FE03F0
FE03F0
FE03F0
FE03F0
FE03F0
FE03F0
7E03F0
7E03F0
7E07E0
7F07E0
7F9FE0
3FFFC0
3FFFC0
1FFF80
0FFF00
03FC00
ENDCHAR
STARTCHAR 01DA
ENCODING 474
SWIDTH 581 0
DWIDTH 21 0
BBX 17 33 2 0
BITMAP
0C1800
1E3C00
0FF800
07F000
07E000
000000
000000
1C1C00
3E3E00
3E3E00
3E3E00
1C1C00
000000
000000
000000
FC1F80
FC1F80
FC1F80
FC1F80
FC1F80
FC1F80
FC1F80
FC1F80
FC1F80
FC1F80
FC1F80
FC3F80
FE7F80
FFFF80
FFFF80
7FFF80
3FDF80
1F0F80
ENDCHAR
STARTCHAR 01DB
ENCODING 475
SWIDTH 664 0
DWIDTH 24 0
BBX 20 38 2 0
BITMAP
008000
01C000
07C000
03E000
01F000
00F000
006000
060700
0F0F00
0F0F80
0F0F80
0F0700
000000
000000
FE03F0
FE03F0
FE03F0
FE03F0
FE03F0
FE03F0
FE03F0
FE03F0
FE03F0
FE03F0
FE03F0
FE03F0
FE03F0
FE03F0
7E03F0
7E03F0
7E07E0
7F07E0
7F9FE0
3FFFC0
3FFFC0
1FFF80
0FFF00
03FC00
ENDCHAR
STARTCHAR 01DC
ENCODING 476
SWIDTH 581 0
DWIDTH 21 0
BBX 17 33 2 0
BITMAP
010000
070000
078000
03C000
03C000
01C000
000000
1C1C00
3E3E00
3E3E00
3E3E00
1C1C00
000000
000000
000000
FC1F80
FC1F80
FC1F80
FC1F80
FC1F80
FC1F80
FC1F80
FC1F80
FC1F80
FC1F80
FC1F80
FC3F80
FE7F80
FFFF80
FFFF80
7FFF80
3FDF80
1F0F80
ENDCHAR
STARTCHAR 01E2
ENCODING 482
SWIDTH 858 0
DWIDTH 31 0
BBX 30 31 -1 0
BITMAP
0003FFC0
0003FFC0
0003FFC0
0003FFC0
00000000
00000000
00000000
001FFFFC
003FFFFC
003FFFFC
007FFFFC
007FFFFC
00FDF800
00FDF800
00FDF800
01F9F800
01F9FFF0
03F1FFF0
03F1FFF0
07F1FFF0
07E1FFF0
0FFFF800
0FFFF800
0FFFF800
1FFFF800
1FFFF800
3F81FFFC
3F01FFFC
7F01FFFC
7E01FFFC
FE01FFFC
ENDCHAR
STARTCHAR 01E3
ENCODING 483
SWIDTH 775 0
DWIDTH 28 0
BBX 25 26 2 0
BITMAP
01FFC000
01FFC000
01FFC000
01FFC000
00000000
00000000
00000000
00000000
0FC1F800
3FF3FC00
FFFFFE00
7FFFFF00
7FFFFF00
307F1F80
007E0F80
0FFFFF80
3FFFFF80
7FFFFF80
FF7FFF80
FC7E0000
FC3F0200
FFFFFE00
FFFFFF00
FFFFFF00
7FC7FE00
1F01F800
ENDCHAR
STARTCHAR 01E6
ENCODING 486
SWIDTH 636 0
DWIDTH 23 0
BBX 19 31 2 0
BITMAP
010100
0787C0
03EF80
03FF00
01FF00
00FE00
000000
00FE00
07FF80
0FFFC0
1FFFE0
3FFFC0
7FEF80
7F0100
FE0000
FE0000
FC0000
FC3FE0
FC3FE0
FC3FE0
FC3FE0
FC3FE0
FE03E0
FE03E0
7F03E0
7FE7E0
3FFFE0
3FFFE0
0FFFE0
07FF80
00FE00
ENDCHAR
STARTCHAR 01E7
ENCODING 487
SWIDTH 553 0
DWIDTH 20 0
BBX 18 36 1 -8
BITMAP
0C0600
1E0F00
1F3F00
1FFE00
0FFC00
07F800
03F800
000000
000000
000000
07FFC0
1FFFC0
3FFFC0
7FFFC0
7E7E00
7C3F00
7C3F00
7E3E00
7FFE00
3FFE00
1FFC00
3FF000
7C0000
7C0000
7FF800
7FFF00
3FFF80
1FFFC0
7FFFC0
780FC0
F80FC0
FC1FC0
FFFF80
7FFF00
3FFC00
0FE000
ENDCHAR
STARTCHAR 01EA
ENCODING 490
SWIDTH 692 0
DWIDTH 25 0
BBX 21 32 2 -8
BITMAP
01FC00
07FF00
1FFFC0
3FFFE0
3FFFE0
7FDFF0
7F07F0
FE03F8
FC01F8
FC01F8
FC01F8
FC01F8
FC01F8
FC01F8
FC01F8
FE01F8
FE03F8
7F07F0
7F8FF0
3FFFE0
3FFFE0
1FFFC0
07FF00
01FC00
007800
00F000
01E000
01F000
01FE00
01FE00
00FE00
007C00
ENDCHAR
STARTCHAR 01EB
ENCODING 491
SWIDTH 553 0
DWIDTH 20 0
BBX 18 26 1 -8
BITMAP
03F000
0FFC00
1FFE00
3FFF00
7FFF80
7F1F80
7E1FC0
FE0FC0
FE0FC0
FE0FC0
FE0FC0
FE1FC0
7E1FC0
7FFF80
3FFF00
1FFE00
0FFC00
03F000
01E000
01C000
03C000
03C000
03F800
03F800
03FC00
01F800
ENDCHAR
STARTCHAR 01F4
ENCODING 500
SWIDTH 636 0
DWIDTH 23 0
BBX 19 32 2 1
BITMAP
000700
000F80
001FC0
003FC0
00FF00
007E00
003800
000000
00FE00
07FF80
0FFFC0
1FFFE0
3FFFC0
7FEF80
7F0100
FE0000
FE0000
FC0000
FC3FE0
FC3FE0
FC3FE0
FC3FE0
FC3FE0
FE03E0
FE03E0
7F03E0
7FE7E0
3FFFE0
3FFFE0
0FFFE0
07FF80
00FE00
ENDCHAR
STARTCHAR 01F5
ENCODING 501
SWIDTH 553 0
DWIDTH 20 0
BBX 18 38 1 -8
BITMAP
000C00
001E00
003F00
007F80
007F00
00FE00
01F800
00F000
006000
000000
000000
000000
07FFC0
1FFFC0
3FFFC0
7FFFC0
7E7E00
7C3F00
7C3F00
7E3E00
7FFE00
3FFE00
1FFC00
3FF000
7C0000
7C0000
7FF800
7FFF00
3FFF80
1FFFC0
7FFFC0
780FC0
F80FC0
FC1FC0
FFFF80
7FFF00
3FFC00
0FE000
ENDCHAR
STARTCHAR 01F8
ENCODING 504
SWIDTH 664 0
DWIDTH 24 0
BBX 19 33 3 0
BITMAP
040000
0F0000
1F8000
1FC000
1FE000
07F000
01E000
00C000
000000
FC07E0
FE07E0
FE07E0
FF07E0
FF07E0
FF87E0
FF87E0
FFC7E0
FFC7E0
FBE7E0
FBE7E0
FBE7E0
F9F7E0
F9F7E0
F8FFE0
FCFFE0
FC7FE0
FC7FE0
FC3FE0
FC3FE0
FC1FE0
FC1FE0
FC0FE0
FC0FE0
ENDCHAR
STARTCHAR 01F9
ENCODING 505
SWIDTH 581 0
DWIDTH 21 0
BBX 17 30 2 0
BITMAP
060000
0F0000
1F0000
3F8000
1FC000
0FE000
07F000
03E000
01C000
000000
000000
000000
F87C00
F9FE00
FFFF00
FFFF80
FFFF80
FF3F80
FC1F80
FC1F80
FC1F80
FC1F80
FC1F80
FC1F80
FC1F80
FC1F80
FC1F80
FC1F80
FC1F80
FC1F80
ENDCHAR
STARTCHAR 01FC
ENCODING 508
SWIDTH 858 0
DWIDTH 31 0
BBX 30 34 -1 0
BITMAP
00000100
00000380
00000FC0
00001FC0
00003FC0
00007F00
00003E00
00001800
00000000
00000000
001FFFFC
003FFFFC
003FFFFC
007FFFFC
007FFFFC
00FDF800
00FDF800
00FDF800
01F9F800
01F9FFF0
03F1FFF0
03F1FFF0
07F1FFF0
07E1FFF0
0FFFF800
0FFFF800
0FFFF800
1FFFF800
1FFFF800
3F81FFFC
3F01FFFC
7F01FFFC
7E01FFFC
FE01FFFC
ENDCHAR
STARTCHAR 01FD
ENCODING 509
SWIDTH 775 0
DWIDTH 28 0
BBX 25 30 2 0
BITMAP
00008000
0001C000
0003E000
0007F000
000FF000
000FE000
001FC000
001F0000
000E0000
00040000
00000000
00000000
0FC1F800
3FF3FC00
FFFFFE00
7FFFFF00
7FFFFF00
307F1F80
007E0F80
0FFFFF80
3FFFFF80
7FFFFF80
FF7FFF80
FC7E0000
FC3F0200
FFFFFE00
FFFFFF00
FFFFFF00
7FC7FE00
1F01F800
ENDCHAR
STARTCHAR 0218
ENCODING 536
SWIDTH 553 0
DWIDTH 20 0
BBX 18 32 1 -8
BITMAP
01F800
0FFE00
1FFF80
3FFF80
3FFF00
7F9F00
7E0200
7F0000
7F8000
7FF000
3FFC00
1FFF00
0FFF80
07FFC0
00FFC0
003FC0
000FC0
180FC0
3F3FC0
7FFFC0
FFFF80
7FFF00
1FFE00
07F000
000000
01E000
01F000
00F800
00F800
00F800
07F000
07C000
ENDCHAR
STARTCHAR 0219
ENCODING 537
SWIDTH 443 0
DWIDTH 16 0
BBX 14 26 1 -8
BITMAP
07E0
1FF8
3FFC
7FFC
7FF8
7C10
7F00
7FE0
3FF8
1FFC
07FC
00FC
307C
7FFC
FFFC
FFF8
7FF0
0FC0
0000
0380
07E0
03E0
01E0
03E0
1FC0
1F80
ENDCHAR
STARTCHAR 021A
ENCODING 538
SWIDTH 553 0
DWIDTH 20 0
BBX 18 33 1 -9
BITMAP
FFFFC0
FFFFC0
FFFFC0
FFFFC0
FFFFC0
03F000
03F000
03F000
03F000
03F000
03F000
03F000
03F000
03F000
03F000
03F000
03F000
03F000
03F000
03F000
03F000
03F000
03F000
03F000
000000
000000
01E000
01F000
00F800
00F800
03F000
07F000
078000
ENDCHAR
STARTCHAR 021B
ENCODING 539
SWIDTH 387 0
DWIDTH 14 0
BBX 13 31 1 -8
BITMAP
1F00
1F00
1F00
3F00
3F00
FFF0
FFF0
FFF0
FFF0
FFF0
3F00
3F00
3F00
3F00
3F00
3F00
3F00
3F80
3FF0
1FF0
1FF0
0FF8
03F0
0000
0380
07E0
03E0
01E0
03E0
0FE0
0F80
ENDCHAR
STARTCHAR 0237
ENCODING 567
SWIDTH 276 0
DWIDTH 10 0
BBX 10 25 -2 -7
BITMAP
0FC0
0FC0
0FC0
0FC0
0FC0
0FC0
0FC0
0FC0
0FC0
0FC0
0FC0
0FC0
0FC0
0FC0
0FC0
0FC0
0FC0
0FC0
0FC0
0FC0
7FC0
7FC0
FF80
FF00
FC00
ENDCHAR
STARTCHAR 0243
ENCODING 579
SWIDTH 636 0
DWIDTH 23 0
BBX 21 24 1 0
BITMAP
1FFE00
1FFFC0
1FFFE0
1FFFF0
1F8FF0
1F83F0
1F83F0
1F83E0
1F87E0
1FFFC0
1FFF00
1FFFE0
1FFFF0
1F83F0
1F81F8
FFF9F8
FFF9F8
FFF9F8
1F83F8
1F8FF0
1FFFF0
1FFFE0
1FFFC0
1FFF00
ENDCHAR
STARTCHAR 0250
ENCODING 592
SWIDTH 553 0
DWIDTH 20 0
BBX 16 18 2 0
BITMAP
F8F8
F9FE
FBFE
FFFF
FFFF
FE3F
FC3F
FC7E
FFFE
FFF8
FFE0
FC00
FE0C
FFFE
7FFE
3FFF
1FFC
07E0
ENDCHAR
STARTCHAR 0251
ENCODING 593
SWIDTH 581 0
DWIDTH 21 0
BBX 18 18 1 0
BITMAP
03C7C0
0FF7C0
1FFFC0
3FFFC0
7FFFC0
7F1FC0
7E0FC0
FE0FC0
FE0FC0
FE0FC0
FE0FC0
7E0FC0
7F1FC0
7FFFC0
3FFFC0
3FFFC0
1FFFC0
07C7C0
ENDCHAR
STARTCHAR 0252
ENCODING 594
SWIDTH 581 0
DWIDTH 21 0
BBX 18 18 2 0
BITMAP
F8F800
F9FE00
FFFF00
FFFF00
FFFF80
FE3F80
FC1F80
FC1FC0
FC1FC0
FC1FC0
FC1FC0
FC1F80
FE3F80
FFFF80
FFFF00
FFFE00
FBFC00
F8F000
ENDCHAR
STARTCHAR 0253
ENCODING 595
SWIDTH 581 0
DWIDTH 21 0
BBX 18 26 2 0
BITMAP
07E000
1FF000
3FE000
7FE000
7FE000
FE0000
FE0000
FC0000
FCF800
FDFE00
FFFF00
FFFF80
FFFF80
FE3F80
FC1F80
FC1FC0
FC1FC0
FC1FC0
FC1FC0
FC1F80
FE3F80
FFFF80
FFFF00
FFFE00
FBFC00
F8F800
ENDCHAR
STARTCHAR 0254
ENCODING 596
SWIDTH 470 0
DWIDTH 17 0
BBX 15 18 1 0
BITMAP
1F80
7FE0
FFF0
7FF8
3FFC
01FC
00FE
00FE
00FE
007E
00FE
00FE
21FC
7FFC
7FF8
FFF0
7FE0
1F80
ENDCHAR
STARTCHAR 0255
ENCODING 597
SWIDTH 470 0
DWIDTH 17 0
BBX 16 20 1 -2
BITMAP
01F8
0FFE
1FFE
3FFC
7FF8
7E00
FE00
FCF8
FFFE
FFFE
FFFF
FF9F
7F1F
7FFF
7FFE
7FFE
FFFC
FBF0
F800
3000
ENDCHAR
STARTCHAR 0256
ENCODING 598
SWIDTH 581 0
DWIDTH 21 0
BBX 21 33 1 -7
BITMAP
000FC0
000FC0
000FC0
000FC0
000FC0
000FC0
000FC0
000FC0
07CFC0
0FFFC0
1FFFC0
3FFFC0
7FFFC0
7F1FC0
7E0FC0
FE0FC0
FE0FC0
FE0FC0
FE0FC0
7E0FC0
7F1FC0
7FFFC0
3FFFC0
3FFFC0
1FEFC0
07CFC0
000FC0
000FC0
000FF0
000FF8
0007F8
0003F8
0001F8
ENDCHAR
STARTCHAR 0257
ENCODING 599
SWIDTH 581 0
DWIDTH 21 0
BBX 21 26 1 0
BITMAP
0000F8
0003F8
0007F8
0007F8
000FF0
000FC0
000FC0
000FC0
07CFC0
0FFFC0
1FFFC0
3FFFC0
7FFFC0
7F1FC0
7E0FC0
FE0FC0
FE0FC0
FE0FC0
FE0FC0
7E0FC0
7F1FC0
7FFFC0
3FFFC0
3FFFC0
1FFFC0
07C7C0
ENDCHAR
STARTCHAR 0258
ENCODING 600
SWIDTH 526 0
DWIDTH 19 0
BBX 17 18 1 0
BITMAP
03E000
0FF800
3FFC00
3FFE00
7FFF00
7C3F00
7C1F80
FFFF80
FFFF80
FFFF80
FFFF80
001F80
003F00
3FFF00
3FFE00
7FFC00
3FF800
0FE000
ENDCHAR
STARTCHAR 0259
ENCODING 601
SWIDTH 526 0
DWIDTH 19 0
BBX 17 18 1 0
BITMAP
0FE000
3FF800
3FFC00
3FFE00
1FFF00
103F00
001F80
FFFF80
FFFF80
FFFF80
FFFF80
FC1F80
7C3F00
7FFF00
3FFE00
3FFC00
1FF800
07E000
ENDCHAR
STARTCHAR 025A
ENCODING 602
SWIDTH 720 0
DWIDTH 26 0
BBX 26 18 1 0
BITMAP
0FE00000
3FF80000
3FFC2000
3FFEFC00
1FFFFC00
103FFC00
007FFE80
03FF9F80
0FFF9FC0
7FFF8780
FF9F8000
FE1F8000
7C3F0000
7FFF0000
3FFE0000
3FFC0000
1FF80000
07E00000
ENDCHAR
STARTCHAR 025B
ENCODING 603
SWIDTH 470 0
DWIDTH 17 0
BBX 14 18 2 0
BITMAP
07F0
3FFC
7FF8
7FF8
FFF0
FE00
7E00
7FE0
1FE0
7FE0
FFE0
FC00
FC00
FFF8
FFF8
7FFC
3FFC
0FF0
ENDCHAR
STARTCHAR 025C
ENCODING 604
SWIDTH 470 0
DWIDTH 17 0
BBX 14 18 2 0
BITMAP
3F80
FFE0
FFF0
7FF8
7FF8
01F8
01F8
3FF0
3FC0
3FF0
3FF8
00FC
00FC
7FFC
FFF8
FFF8
FFF0
3F80
ENDCHAR
STARTCHAR 025E
ENCODING 606
SWIDTH 581 0
DWIDTH 21 0
BBX 18 18 2 0
BITMAP
0FE000
3FFC00
7FFE00
7FFF00
FFFF80
FE3F80
7E1F80
7F9FC0
1F9FC0
7F9FC0
FF9FC0
FC1F80
FC3F80
FFFF80
FFFF00
7FFE00
3FFC00
0FE000
ENDCHAR
STARTCHAR 025F
ENCODING 607
SWIDTH 332 0
DWIDTH 12 0
BBX 13 25 -1 -7
BITMAP
0FC0
0FC0
0FC0
0FC0
0FC0
0FC0
0FC0
7FF8
7FF8
7FF8
0FC0
0FC0
0FC0
0FC0
0FC0
0FC0
0FC0
0FC0
0FC0
0FC0
7FC0
7F80
FF80
FF00
FC00
ENDCHAR
STARTCHAR 0260
ENCODING 608
SWIDTH 581 0
DWIDTH 21 0
BBX 20 31 2 -7
BITMAP
0001F0
0007F0
000FF0
000FF0
001FF0
001FC0
079F80
1FFF80
3FFF80
7FFF80
7FFF80
FE3F80
FC1F80
FC1F80
FC1F80
FC1F80
FC1F80
FC1F80
FE3F80
FFFF80
7FFF80
3FFF80
1FFF80
0F9F80
001F80
303F80
3FFF80
7FFF00
7FFE00
7FFC00
0FF000
ENDCHAR
STARTCHAR 0261
ENCODING 609
SWIDTH 581 0
DWIDTH 21 0
BBX 17 25 2 -7
BITMAP
078F80
1FEF80
3FFF80
7FFF80
7FFF80
FE3F80
FC1F80
FC1F80
FC1F80
FC1F80
FC1F80
FC1F80
FE3F80
FFFF80
7FFF80
3FFF80
1FFF80
0F9F80
001F80
303F80
3FFF80
7FFF00
7FFE00
7FFC00
0FF000
ENDCHAR
STARTCHAR 0262
ENCODING 610
SWIDTH 526 0
DWIDTH 19 0
BBX 17 18 1 0
BITMAP
01F800
0FFE00
1FFF00
3FFE00
7FFC00
7F0000
7E0000
FE7F80
FC7F80
FC7F80
FE7F80
FE1F80
7F1F80
7FFF80
3FFF80
1FFF80
0FFE00
03F800
ENDCHAR
STARTCHAR 0263
ENCODING 611
SWIDTH 553 0
DWIDTH 20 0
BBX 19 26 0 -8
BITMAP
FE07E0
7E07E0
7E07C0
3F0FC0
3F0FC0
3F0F80
1F0F80
1F9F80
0F9F00
0F9F00
0FFE00
07FE00
07FE00
07FC00
03FC00
07FE00
07FE00
0FFF00
0F9F00
0F9F00
0F9F00
0F9F00
0FFF00
07FE00
03FC00
00F000
ENDCHAR
STARTCHAR 0264
ENCODING 612
SWIDTH 581 0
DWIDTH 21 0
BBX 20 18 1 0
BITMAP
7E07E0
FF1FF0
FFBFE0
7FFFE0
7FFFC0
07FC00
07FC00
0FFE00
1FFF00
1F9F80
3F1F80
3F1F80
3F1F80
1FFF80
1FFF00
0FFF00
07FE00
03F800
ENDCHAR
STARTCHAR 0265
ENCODING 613
SWIDTH 581 0
DWIDTH 21 0
BBX 17 24 2 -6
BITMAP
FC1F80
FC1F80
FC1F80
FC1F80
FC1F80
FC1F80
FC1F80
FC1F80
FC1F80
FC1F80
FC1F80
FC3F80
FE7F80
FFFF80
7FFF80
7FFF80
3FDF80
1F1F80
001F80
001F80
001F80
001F80
001F80
001F80
ENDCHAR
STARTCHAR 0266
ENCODING 614
SWIDTH 581 0
DWIDTH 21 0
BBX 17 26 2 0
BITMAP
07E000
1FF000
3FE000
7FE000
7FE000
FE0000
FE0000
FC0000
FC7C00
FDFE00
FFFF00
FFFF80
FFFF80
FF3F80
FC1F80
FC1F80
FC1F80
FC1F80
FC1F80
FC1F80
FC1F80
FC1F80
FC1F80
FC1F80
FC1F80
FC1F80
ENDCHAR
STARTCHAR 0267
ENCODING 615
SWIDTH 581 0
DWIDTH 21 0
BBX 17 33 2 -7
BITMAP
07E000
1FF000
3FE000
7FE000
7FE000
FE0000
FE0000
FC0000
FC7C00
FDFE00
FFFF00
FFFF80
FFFF80
FF3F80
FC1F80
FC1F80
FC1F80
FC1F80
FC1F80
FC1F80
FC1F80
FC1F80
FC1F80
FC1F80
FC1F80
FC1F80
001F80
003F80
00FF80
01FF00
01FF00
01FE00
01F800
ENDCHAR
STARTCHAR 0268
ENCODING 616
SWIDTH 332 0
DWIDTH 12 0
BBX 11 26 1 0
BITMAP
1E00
3F00
3F80
3F80
3F00
1E00
0000
0000
3F00
3F00
3F00
3F00
3F00
3F00
3F00
FFE0
FFE0
FFE0
3F00
3F00
3F00
3F00
3F00
3F00
3F00
3F00
ENDCHAR
STARTCHAR 026A
ENCODING 618
SWIDTH 415 0
DWIDTH 15 0
BBX 11 18 2 0
BITMAP
FFE0
FFE0
FFE0
FFE0
FFE0
3F80
3F80
3F80
3F80
3F80
3F80
3F80
3F80
FFE0
FFE0
FFE0
FFE0
FFE0
ENDCHAR
STARTCHAR 026C
ENCODING 620
SWIDTH 415 0
DWIDTH 15 0
BBX 14 26 0 0
BITMAP
07F0
07F0
07F0
07F0
07F0
07F0
07F0
3FF0
7FF0
FFF0
E7F0
E7F0
FFFC
FFFC
3FFC
07F0
07F0
07F0
07F0
07F0
07F0
03F8
03FC
03FC
01FC
00FC
ENDCHAR
STARTCHAR 026D
ENCODING 621
SWIDTH 304 0
DWIDTH 11 0
BBX 10 32 2 -7
BITMAP
FC00
FC00
FC00
FC00
FC00
FC00
FC00
FC00
FC00
FC00
FC00
FC00
FC00
FC00
FC00
FC00
FC00
FC00
FC00
FC00
FC00
FC00
FC00
FC00
FC00
FC00
FE00
FF80
7F80
7F80
3FC0
0FC0
ENDCHAR
STARTCHAR 026E
ENCODING 622
SWIDTH 664 0
DWIDTH 24 0
BBX 21 32 2 -7
BITMAP
FC0000
FC0000
FC0000
FC0000
FC0000
FC0000
FC0000
FFFFF0
FFFFF0
FFFFF0
FFFFF0
FFFFE0
FC0FE0
FC0FC0
FC1F80
FC3F00
FC7F00
FC7FC0
FCFFE0
FC7FF0
FC7FF8
FC03F8
FC01F8
FC01F8
FC01F8
0001F8
01C3F8
03FFF0
07FFF0
03FFE0
01FFC0
007F00
ENDCHAR
STARTCHAR 026F
ENCODING 623
SWIDTH 858 0
DWIDTH 31 0
BBX 27 18 2 0
BITMAP
FC1F87E0
FC1F87E0
FC1F87E0
FC1F87E0
FC1F87E0
FC1F87E0
FC1F87E0
FC1F87E0
FC1F87E0
FC1F87E0
FC1F87E0
FC1F87E0
FE3F8FE0
FFFFFFE0
7FFFFFE0
7FFFFFE0
3FCFFBE0
1F87F3E0
ENDCHAR
STARTCHAR 0270
ENCODING 624
SWIDTH 858 0
DWIDTH 31 0
BBX 27 24 2 -6
BITMAP
FC1F87E0
FC1F87E0
FC1F87E0
FC1F87E0
FC1F87E0
FC1F87E0
FC1F87E0
FC1F87E0
FC1F87E0
FC1F87E0
FC1F87E0
FE3F87E0
FE7FDFE0
FFFFFFE0
7FFFFFE0
7FEFFFE0
3FCFF7E0
1F03E7E0
000007E0
000007E0
000007E0
000007E0
000007E0
000007E0
ENDCHAR
STARTCHAR 0271
ENCODING 625
SWIDTH 858 0
DWIDTH 31 0
BBX 27 25 2 -7
BITMAP
F87C1F00
F9FE3FC0
FFFF7FC0
FFFFFFE0
FFFFFFE0
FF3FEFE0
FC3F87E0
FC1F87E0
FC1F87E0
FC1F87E0
FC1F87E0
FC1F87E0
FC1F87E0
FC1F87E0
FC1F87E0
FC1F87E0
FC1F87E0
FC1F87E0
000007E0
000007E0
00001FE0
00003FE0
00003FC0
00003F80
00003E00
ENDCHAR
STARTCHAR 0272
ENCODING 626
SWIDTH 581 0
DWIDTH 21 0
BBX 20 25 -1 -7
BITMAP
1F1FC0
1F3FE0
1FFFE0
1FFFF0
1FFFF0
1FC7F0
1F83F0
1F83F0
1F83F0
1F83F0
1F83F0
1F83F0
1F83F0
1F83F0
1F83F0
1F83F0
1F83F0
1F83F0
1F8000
1F8000
7F8000
FF8000
FF0000
FE0000
FC0000
ENDCHAR
STARTCHAR 0273
ENCODING 627
SWIDTH 581 0
DWIDTH 21 0
BBX 21 25 2 -7
BITMAP
F8FE00
F9FF00
FFFF00
FFFF80
FFFF80
FE3F80
FC1F80
FC1F80
FC1F80
FC1F80
FC1F80
FC1F80
FC1F80
FC1F80
FC1F80
FC1F80
FC1F80
FC1F80
001F80
001F80
001FF0
000FF0
000FF0
0007F0
0001F8
ENDCHAR
STARTCHAR 0274
ENCODING 628
SWIDTH 581 0
DWIDTH 21 0
BBX 16 18 2 0
BITMAP
FC1F
FE1F
FE1F
FF1F
FF1F
FF9F
FF9F
FFDF
FBDF
FFFF
FDFF
FDFF
FCFF
FCFF
FC7F
FC7F
FC3F
FC3F
ENDCHAR
STARTCHAR 0275
ENCODING 629
SWIDTH 553 0
DWIDTH 20 0
BBX 18 18 1 0
BITMAP
03F000
0FFC00
1FFF00
3FFF00
7FFF80
7E1F80
7C0FC0
FFFFC0
FFFFC0
FFFFC0
FFFFC0
FC0FC0
7E1F80
7FFF80
3FFF00
1FFF00
0FFC00
03F000
ENDCHAR
STARTCHAR 0276
ENCODING 630
SWIDTH 747 0
DWIDTH 27 0
BBX 25 18 1 0
BITMAP
07FFFF00
0FFFFF00
1FFFFF00
3FFFFF00
7FFF8000
7F1F8000
FE1F8000
FE1FFE00
FE1FFE00
FE1FFE00
FE1FFE00
FE1F8000
7E1F8000
7FFF8000
3FFFFF80
3FFFFF80
1FFFFF80
07FFFF80
ENDCHAR
STARTCHAR 0278
ENCODING 632
SWIDTH 747 0
DWIDTH 27 0
BBX 25 31 1 -6
BITMAP
003F0000
003F0000
003F0000
003F0000
003F0000
003F0000
003F0000
01FFE000
07FFF800
1FFFFC00
3FFFFE00
7FFFFF00
7F3F3F80
7E3F3F80
FE3F1F80
FE3F1F80
FE3F1F80
FE3F1F80
7E3F3F80
7F3F3F80
7FFFFF00
3FFFFE00
1FFFFC00
07FFF800
01FFC000
003F0000
003F0000
003F0000
003F0000
003F0000
003F0000
ENDCHAR
STARTCHAR 0279
ENCODING 633
SWIDTH 415 0
DWIDTH 15 0
BBX 13 18 0 0
BITMAP
01F8
01F8
01F8
01F8
01F8
01F8
01F8
01F8
01F8
01F8
03F8
03F8
4FF8
7FF8
7FF8
FEF8
FCF8
F0F8
ENDCHAR
STARTCHAR 027A
ENCODING 634
SWIDTH 415 0
DWIDTH 15 0
BBX 13 26 0 0
BITMAP
01F8
01F8
01F8
01F8
01F8
01F8
01F8
01F8
01F8
01F8
01F8
01F8
01F8
01F8
01F8
01F8
01F8
01F8
03F8
03F8
4FF8
7FF8
7FF8
FEF8
FCF8
F0F8
ENDCHAR
STARTCHAR 027B
ENCODING 635
SWIDTH 415 0
DWIDTH 15 0
BBX 16 25 0 -7
BITMAP
01F8
01F8
01F8
01F8
01F8
01F8
01F8
01F8
01F8
01F8
03F8
03F8
4FF8
7FF8
7FF8
FFF8
FDF8
F1F8
00F8
00F8
00FF
00FF
00FF
007F
001F
ENDCHAR
STARTCHAR 027D
ENCODING 637
SWIDTH 415 0
DWIDTH 15 0
BBX 13 25 2 -7
BITMAP
F878
F9F8
FBF8
FFF0
FFF0
FF90
FF00
FE00
FC00
FC00
FC00
FC00
FC00
FC00
FC00
FC00
FC00
FC00
FC00
FE00
FF80
7F80
7F80
3FC0
0FC0
ENDCHAR
STARTCHAR 027E
ENCODING 638
SWIDTH 387 0
DWIDTH 14 0
BBX 12 18 2 0
BITMAP
07F0
1FF0
3FF0
7FF0
7FF0
FF20
FE00
FE00
FC00
FC00
FC00
FC00
FC00
FC00
FC00
FC00
FC00
FC00
ENDCHAR
STARTCHAR 0280
ENCODING 640
SWIDTH 553 0
DWIDTH 20 0
BBX 17 18 2 0
BITMAP
FFF000
FFFC00
FFFE00
FFFE00
FFFE00
FC7F00
FC7F00
FC7F00
FC7E00
FFFE00
FFFC00
FFF800
FFFC00
FCFC00
FCFE00
FC7F00
FC7F00
FC3F80
ENDCHAR
STARTCHAR 0281
ENCODING 641
SWIDTH 553 0
DWIDTH 20 0
BBX 17 18 1 0
BITMAP
FE3F80
FE3F80
7F3F80
3F3F80
3FBF80
1FFF80
0FFF80
1FFF80
3FFF80
7F3F80
7E3F80
7E3F80
7E3F80
7FFF80
3FFF80
3FFF80
1FFF80
07FF80
ENDCHAR
STARTCHAR 0282
ENCODING 642
SWIDTH 443 0
DWIDTH 16 0
BBX 14 25 1 -7
BITMAP
07E0
1FF8
3FFC
7FFC
7FF8
7C10
7F00
7FE0
3FF8
1FFC
07FC
00FC
207C
7FFC
FFFC
FFF8
FFF0
FFC0
F800
FC00
FF00
FF80
7F80
3F80
1F80
ENDCHAR
STARTCHAR 0283
ENCODING 643
SWIDTH 276 0
DWIDTH 10 0
BBX 15 33 -2 -7
BITMAP
007E
01FC
03FC
07FC
07FC
0FE0
0FC0
0FC0
0FC0
0FC0
0FC0
0FC0
0FC0
0FC0
0FC0
0FC0
0FC0
0FC0
0FC0
0FC0
0FC0
0FC0
0FC0
0FC0
0FC0
0FC0
0FC0
0FC0
7FC0
7FC0
FF80
FF00
FC00
ENDCHAR
STARTCHAR 0284
ENCODING 644
SWIDTH 332 0
DWIDTH 12 0
BBX 14 33 -1 -7
BITMAP
00FC
03FC
07FC
07FC
07F8
0FE0
0FC0
0FC0
0FC0
0FC0
0FC0
0FC0
0FC0
0FC0
0FC0
7FF8
7FF8
7FF8
0FC0
0FC0
0FC0
0FC0
0FC0
0FC0
0FC0
0FC0
0FC0
0FC0
7FC0
7F80
FF80
FF00
FC00
ENDCHAR
STARTCHAR 0288
ENCODING 648
SWIDTH 387 0
DWIDTH 14 0
BBX 13 30 1 -7
BITMAP
1F00
1F00
1F00
3F00
3F00
FFF0
FFF0
FFF0
FFF0
FFF0
3F00
3F00
3F00
3F00
3F00
3F00
3F00
3F00
3F00
3F00
3F00
3F00
3F00
3F00
3F80
3FF0
1FF0
1FF0
0FF8
03F0
ENDCHAR
STARTCHAR 0289
ENCODING 649
SWIDTH 636 0
DWIDTH 23 0
BBX 21 18 1 0
BITMAP
3F07E0
3F07E0
3F07E0
3F07E0
3F07E0
FFFFF8
FFFFF8
FFFFF8
3F07E0
3F07E0
3F07E0
3F0FE0
3F9FE0
3FFFE0
1FFFE0
1FFFE0
0FF3E0
07C3E0
ENDCHAR
STARTCHAR 028A
ENCODING 650
SWIDTH 553 0
DWIDTH 20 0
BBX 18 18 1 0
BITMAP
FF3FC0
FF3FC0
FF3FC0
FF3FC0
FF1FC0
3E1F00
7E0F80
7E0F80
7E0FC0
FE0FC0
FE0FC0
FE1FC0
7F1FC0
7FFF80
3FFF80
3FFF00
0FFE00
03F000
ENDCHAR
STARTCHAR 028B
ENCODING 651
SWIDTH 553 0
DWIDTH 20 0
BBX 17 18 2 0
BITMAP
FCF800
FCFE00
FCFF00
FCFF00
FC7F80
FC3F80
FC1F80
FC1F80
FC1F80
FC1F80
FC3F80
FC3F00
FE3F00
7FFF00
7FFE00
3FFC00
1FF800
07E000
ENDCHAR
STARTCHAR 028C
ENCODING 652
SWIDTH 553 0
DWIDTH 20 0
BBX 18 18 1 0
BITMAP
07F000
07F800
0FF800
0FF800
0FFC00
1F7C00
1F7C00
1F7E00
3F3E00
3E3E00
3E3F00
7E3F00
7E1F00
7C1F80
7C1F80
FC1F80
FC0FC0
F80FC0
ENDCHAR
STARTCHAR 028D
ENCODING 653
SWIDTH 803 0
DWIDTH 29 0
BBX 27 18 1 0
BITMAP
0FE1FE00
0FF1FE00
1FF1FE00
1FF1FE00
1FF1FF00
1FF3DF00
3EFBDF00
3EFBDF00
3EFBDF80
3E7BDF80
3E7BDF80
7E7B8F80
7E7F8FC0
7C3F8FC0
7C3F8FC0
FC3F0FC0
FC3F07E0
FC3F07E0
ENDCHAR
STARTCHAR 028E
ENCODING 654
SWIDTH 553 0
DWIDTH 20 0
BBX 19 26 0 0
BITMAP
000FC0
003FC0
007F80
007F80
00FF80
01F800
01F800
01F000
03F000
03F800
03F800
07FC00
07FC00
07FC00
0FBE00
0FBE00
0FBF00
1F3F00
1F1F00
1F1F80
3F1F80
3E0FC0
7E0FC0
7E0FC0
7E07E0
FC07E0
ENDCHAR
STARTCHAR 028F
ENCODING 655
SWIDTH 498 0
DWIDTH 18 0
BBX 18 18 0 0
BITMAP
FC1FC0
FE1F80
7E1F80
7E3F00
3F3F00
3F3E00
1F7E00
1FFC00
0FFC00
0FF800
07F800
07F800
03F000
03F000
03F000
03F000
03F000
03F000
ENDCHAR
STARTCHAR 0290
ENCODING 656
SWIDTH 470 0
DWIDTH 17 0
BBX 18 25 1 -7
BITMAP
7FFE00
7FFE00
7FFE00
7FFE00
7FFC00
01FC00
03F800
07F000
07E000
0FE000
1FC000
1F8000
3F8000
7FFE00
7FFE00
FFFE00
FFFE00
FFFE00
007E00
007E00
007F80
007FC0
003FC0
001FC0
000FC0
ENDCHAR
STARTCHAR 0291
ENCODING 657
SWIDTH 526 0
DWIDTH 19 0
BBX 18 21 1 -3
BITMAP
7FFE00
7FFE00
7FFE00
7FFC00
7FFC00
01F800
03F000
07F000
07E780
0FCFC0
1FDFC0
1FBDC0
3F39C0
7FF7C0
7FFFC0
FFFFC0
FFFF80
FFFE00
00E000
01C000
00C000
ENDCHAR
STARTCHAR 0292
ENCODING 658
SWIDTH 470 0
DWIDTH 17 0
BBX 15 25 1 -7
BITMAP
FFFC
FFFC
FFFC
FFFC
FFFC
01F8
03F0
07E0
0FC0
0FC0
1FF0
3FF8
1FFC
0FFE
00FE
007E
007E
007E
007E
70FE
FFFE
FFFC
FFF8
7FF0
1FC0
ENDCHAR
STARTCHAR 0294
ENCODING 660
SWIDTH 470 0
DWIDTH 17 0
BBX 16 26 0 0
BITMAP
0FE0
3FF8
7FFC
FFFE
7FFE
787F
203F
003F
003F
007F
007F
00FE
01FE
03FC
0FF8
0FF0
0FE0
0FE0
0FE0
0FE0
0FE0
0FE0
0FE0
0FE0
0FE0
0FE0
ENDCHAR
STARTCHAR 0295
ENCODING 661
SWIDTH 526 0
DWIDTH 19 0
BBX 16 26 2 0
BITMAP
07F0
1FFC
3FFE
7FFF
FFFE
FE1C
FC08
FC00
FC00
FC00
FE00
7F00
7F80
3FC0
1FE0
0FE0
07E0
07E0
07E0
07E0
07E0
07E0
07E0
07E0
07E0
07E0
ENDCHAR
STARTCHAR 0298
ENCODING 664
SWIDTH 581 0
DWIDTH 21 0
BBX 17 26 2 0
BITMAP
07E000
0FF800
1FFC00
3FFE00
7FFE00
7E3F00
FC3F00
FC1F00
FC1F80
F81F80
F9DF80
FBFF80
FBFF80
FBFF80
F9DF80
F81F80
FC1F80
FC1F80
FC1F00
7C3F00
7E3F00
7FFE00
3FFE00
1FFC00
0FF800
07E000
ENDCHAR
STARTCHAR 0299
ENCODING 665
SWIDTH 526 0
DWIDTH 19 0
BBX 16 18 2 0
BITMAP
FFF0
FFFC
FFFE
FFFE
FC7F
FC3E
FC7E
FFFC
FFF8
FFFC
FFFF
FC3F
FC3F
FC3F
FFFF
FFFE
FFFC
FFF0
ENDCHAR
STARTCHAR 029C
ENCODING 668
SWIDTH 581 0
DWIDTH 21 0
BBX 17 18 2 0
BITMAP
FC1F80
FC1F80
FC1F80
FC1F80
FC1F80
FC1F80
FFFF80
FFFF80
FFFF80
FFFF80
FFFF80
FC1F80
FC1F80
FC1F80
FC1F80
FC1F80
FC1F80
FC1F80
ENDCHAR
STARTCHAR 029D
ENCODING 669
SWIDTH 387 0
DWIDTH 14 0
BBX 17 35 -1 -9
BITMAP
00F000
01F800
03F800
03F800
01F800
00F000
000000
000000
01F800
01F800
01F800
01F800
01F800
01F800
01F800
01F800
01F800
01F800
01F800
01F800
01F800
01F800
1FF800
7FF800
FFF800
FFF800
F1F800
F1FC00
FFFE00
FFFF00
7FFF00
7FDF80
1F0F80
000F80
000600
ENDCHAR
STARTCHAR 029F
ENCODING 671
SWIDTH 443 0
DWIDTH 16 0
BBX 13 18 2 0
BITMAP
FC00
FC00
FC00
FC00
FC00
FC00
FC00
FC00
FC00
FC00
FC00
FC00
FC00
FFF8
FFF8
FFF8
FFF8
FFF8
ENDCHAR
STARTCHAR 02A1
ENCODING 673
SWIDTH 498 0
DWIDTH 18 0
BBX 17 25 0 1
BITMAP
07F000
1FFC00
7FFE00
FFFF00
7FFF00
387F00
103F80
003F80
003F80
003F00
003F00
007E00
00FC00
01F800
FFFF80
FFFF80
FFFF80
FFFF80
FFFF80
07E000
07E000
07E000
07E000
07E000
07E000
ENDCHAR
STARTCHAR 02A2
ENCODING 674
SWIDTH 498 0
DWIDTH 18 0
BBX 16 25 1 1
BITMAP
07F0
1FFC
3FFF
7FFF
7FFE
FE1E
FE04
FC00
FC00
FE00
7E00
3F00
3F80
1FC0
FFFF
FFFF
FFFF
FFFF
FFFF
07F0
07F0
07F0
07F0
07F0
07F0
ENDCHAR
STARTCHAR 02B0
ENCODING 688
SWIDTH 387 0
DWIDTH 14 0
BBX 12 16 1 14
BITMAP
F800
F800
F800
F800
FBC0
F7E0
FFF0
FFF0
F9F0
F8F0
F8F0
F8F0
F8F0
F8F0
F8F0
F8F0
ENDCHAR
STARTCHAR 02B2
ENCODING 690
SWIDTH 193 0
DWIDTH 7 0
BBX 7 22 -1 9
BITMAP
1C
3E
3E
1C
00
00
3E
3E
3E
3E
3E
3E
3E
3E
3E
3E
3E
3E
3E
FC
FC
F8
ENDCHAR
STARTCHAR 02B3
ENCODING 691
SWIDTH 276 0
DWIDTH 10 0
BBX 9 12 1 14
BITMAP
F380
F780
FF80
FF80
F800
F800
F800
F800
F800
F800
F800
F800
ENDCHAR
STARTCHAR 02B7
ENCODING 695
SWIDTH 526 0
DWIDTH 19 0
BBX 18 12 1 14
BITMAP
F1E3C0
F1E380
F3E780
F3E780
7BF780
7BF780
7B7700
7F7700
3F7700
3F3F00
3F3E00
3E3E00
ENDCHAR
STARTCHAR 02B8
ENCODING 696
SWIDTH 360 0
DWIDTH 13 0
BBX 12 16 1 9
BITMAP
F0F0
F1E0
F1E0
79E0
79C0
3BC0
3FC0
3F80
1F80
1F80
0F00
0F00
1E00
7E00
7C00
F800
ENDCHAR
STARTCHAR 02B9
ENCODING 697
SWIDTH 332 0
DWIDTH 12 0
BBX 7 12 3 13
BITMAP
7E
7E
FC
FC
FC
FC
FC
F8
F8
F8
F0
F0
ENDCHAR
STARTCHAR 02BB
ENCODING 699
SWIDTH 332 0
DWIDTH 12 0
BBX 7 13 2 12
BITMAP
0C
1E
3C
78
70
F0
E0
FC
FE
FE
FE
7C
3C
ENDCHAR
STARTCHAR 02BC
ENCODING 700
SWIDTH 332 0
DWIDTH 12 0
BBX 7 13 3 12
BITMAP
78
FC
FC
FC
FE
7E
1E
1C
1C
3C
F8
F0
E0
ENDCHAR
STARTCHAR 02BE
ENCODING 702
SWIDTH 193 0
DWIDTH 7 0
BBX 5 7 1 20
BITMAP
F0
F8
38
38
38
F8
F0
ENDCHAR
STARTCHAR 02BF
ENCODING 703
SWIDTH 193 0
DWIDTH 7 0
BBX 6 7 0 20
BITMAP
3C
7C
70
E0
F0
7C
3C
ENDCHAR
STARTCHAR 02C1
ENCODING 705
SWIDTH 360 0
DWIDTH 13 0
BBX 11 17 1 13
BITMAP
1F80
3FC0
7FE0
FDC0
F800
F000
F800
7C00
7E00
3F00
1F00
0F00
0F00
0F00
0F00
0F00
0F00
ENDCHAR
STARTCHAR 02C6
ENCODING 710
SWIDTH 553 0
DWIDTH 20 0
BBX 14 7 3 20
BITMAP
0FE0
1FF0
3FF0
7FF8
FCFC
7038
2010
ENDCHAR
STARTCHAR 02C7
ENCODING 711
SWIDTH 553 0
DWIDTH 20 0
BBX 14 7 3 21
BITMAP
2010
7038
FCFC
7FF8
3FF0
1FF0
1FE0
ENDCHAR
STARTCHAR 02C8
ENCODING 712
SWIDTH 166 0
DWIDTH 6 0
BBX 5 8 0 19
BITMAP
F8
F8
F8
78
78
78
78
78
ENDCHAR
STARTCHAR 02C9
ENCODING 713
SWIDTH 332 0
DWIDTH 12 0
BBX 11 4 0 22
BITMAP
FFE0
FFE0
FFE0
FFE0
ENDCHAR
STARTCHAR 02CA
ENCODING 714
SWIDTH 249 0
DWIDTH 9 0
BBX 10 10 2 21
BITMAP
0400
0600
0F00
1F80
3FC0
7F00
FE00
7C00
3800
1000
ENDCHAR
STARTCHAR 02CB
ENCODING 715
SWIDTH 249 0
DWIDTH 9 0
BBX 9 9 -3 22
BITMAP
1800
3C00
7E00
FF00
7F00
3F80
0F80
0700
0200
ENDCHAR
STARTCHAR 02CC
ENCODING 716
SWIDTH 166 0
DWIDTH 6 0
BBX 5 8 0 -10
BITMAP
78
78
78
78
78
F8
F8
F8
ENDCHAR
STARTCHAR 02D0
ENCODING 720
SWIDTH 332 0
DWIDTH 12 0
BBX 8 18 2 0
BITMAP
FF
FE
7E
7C
3C
38
18
10
00
00
10
18
38
3C
7C
7E
FE
FF
ENDCHAR
STARTCHAR 02D1
ENCODING 721
SWIDTH 332 0
DWIDTH 12 0
BBX 8 8 2 10
BITMAP
FF
FE
7E
7C
3C
38
18
10
ENDCHAR
STARTCHAR 02D8
ENCODING 728
SWIDTH 553 0
DWIDTH 20 0
BBX 12 6 4 21
BITMAP
F070
F0F0
FFF0
7FF0
3FE0
1F80
ENDCHAR
STARTCHAR 02D9
ENCODING 729
SWIDTH 553 0
DWIDTH 20 0
BBX 6 6 7 20
BITMAP
78
FC
FC
FC
FC
78
ENDCHAR
STARTCHAR 02DA
ENCODING 730
SWIDTH 553 0
DWIDTH 20 0
BBX 10 7 5 21
BITMAP
3F00
7FC0
F3C0
F3C0
F3C0
7FC0
3F00
ENDCHAR
STARTCHAR 02DB
ENCODING 731
SWIDTH 553 0
DWIDTH 20 0
BBX 8 8 7 -8
BITMAP
38
70
F0
F0
FE
FE
FF
38
ENDCHAR
STARTCHAR 02DC
ENCODING 732
SWIDTH 553 0
DWIDTH 20 0
BBX 14 6 3 21
BITMAP
1E38
7F3C
7FFC
FFFC
F3F8
F1F0
ENDCHAR
STARTCHAR 02DD
ENCODING 733
SWIDTH 553 0
DWIDTH 20 0
BBX 14 8 5 20
BITMAP
1020
3E7C
3E7C
7CF8
78F0
F9F0
F1E0
3040
ENDCHAR
STARTCHAR 02DE
ENCODING 734
SWIDTH 193 0
DWIDTH 7 0
BBX 12 9 -4 8
BITMAP
0200
0E00
7F00
FF00
FF00
FFA0
C7E0
03F0
01E0
ENDCHAR
STARTCHAR 02E0
ENCODING 736
SWIDTH 360 0
DWIDTH 13 0
BBX 12 17 1 8
BITMAP
F0F0
F1E0
F1E0
79E0
79C0
7BC0
3F80
3F80
1F80
1F80
3F80
3BC0
3BC0
3BC0
3FC0
1F80
0400
ENDCHAR
STARTCHAR 02E1
ENCODING 737
SWIDTH 193 0
DWIDTH 7 0
BBX 6 17 1 13
BITMAP
F8
F8
F8
F8
F8
F8
F8
F8
F8
F8
F8
F8
F8
F8
7C
7C
3C
ENDCHAR
STARTCHAR 02E2
ENCODING 738
SWIDTH 304 0
DWIDTH 11 0
BBX 9 13 1 13
BITMAP
3F00
7F80
FF80
F300
F800
FE00
7F80
3F80
0780
6780
FF80
FF00
3E00
ENDCHAR
STARTCHAR 02E3
ENCODING 739
SWIDTH 360 0
DWIDTH 13 0
BBX 12 12 1 14
BITMAP
F1E0
F9E0
7BC0
3FC0
3F80
1F80
1F00
3F80
7FC0
7BC0
F3E0
F1F0
ENDCHAR
STARTCHAR 0300
ENCODING 768
SWIDTH 0 0
DWIDTH 0 0
BBX 9 10 -7 21
BITMAP
1000
3800
7C00
FC00
FE00
7F00
3F80
1F80
0F00
0200
ENDCHAR
STARTCHAR 0301
ENCODING 769
SWIDTH 0 0
DWIDTH 0 0
BBX 9 10 -2 21
BITMAP
0400
0E00
1F00
1F80
3F80
7F00
FE00
FC00
7800
2000
ENDCHAR
STARTCHAR 0302
ENCODING 770
SWIDTH 0 0
DWIDTH 0 0
BBX 14 7 -7 20
BITMAP
1FE0
1FE0
3FF0
7FF8
FCFC
7038
2010
ENDCHAR
STARTCHAR 0303
ENCODING 771
SWIDTH 0 0
DWIDTH 0 0
BBX 14 6 -7 21
BITMAP
3E38
7F3C
7FFC
FFFC
F3F8
F1F0
ENDCHAR
STARTCHAR 0304
ENCODING 772
SWIDTH 0 0
DWIDTH 0 0
BBX 12 4 -6 22
BITMAP
FFF0
FFF0
FFF0
FFF0
ENDCHAR
STARTCHAR 0305
ENCODING 773
SWIDTH 0 0
DWIDTH 0 0
BBX 12 4 -6 22
BITMAP
FFF0
FFF0
FFF0
FFF0
ENDCHAR
STARTCHAR 0306
ENCODING 774
SWIDTH 0 0
DWIDTH 0 0
BBX 12 6 -6 21
BITMAP
E070
F0F0
FFF0
7FE0
7FE0
1F80
ENDCHAR
STARTCHAR 0307
ENCODING 775
SWIDTH 0 0
DWIDTH 0 0
BBX 6 6 -3 20
BITMAP
78
FC
FC
FC
FC
78
ENDCHAR
STARTCHAR 0308
ENCODING 776
SWIDTH 0 0
DWIDTH 0 0
BBX 14 6 -7 20
BITMAP
7878
F87C
FCFC
FCFC
F87C
3030
ENDCHAR
STARTCHAR 0309
ENCODING 777
SWIDTH 0 0
DWIDTH 0 0
BBX 8 8 -4 21
BITMAP
70
7C
7E
FF
1F
1F
3E
3C
ENDCHAR
STARTCHAR 030A
ENCODING 778
SWIDTH 0 0
DWIDTH 0 0
BBX 10 7 -5 21
BITMAP
3F00
7F80
F3C0
F3C0
F3C0
7F80
3F00
ENDCHAR
STARTCHAR 030B
ENCODING 779
SWIDTH 0 0
DWIDTH 0 0
BBX 14 8 -5 20
BITMAP
1020
3E7C
3E7C
7CF8
78F0
F9F0
F1E0
2040
ENDCHAR
STARTCHAR 030C
ENCODING 780
SWIDTH 0 0
DWIDTH 0 0
BBX 14 7 -7 21
BITMAP
2010
7038
FCFC
7FF8
3FF0
1FE0
1FE0
ENDCHAR
STARTCHAR 030F
ENCODING 783
SWIDTH 0 0
DWIDTH 0 0
BBX 14 8 -9 20
BITMAP
1020
F9F0
F9F0
7CF8
3C78
3E7C
1E3C
0810
ENDCHAR
STARTCHAR 0311
ENCODING 785
SWIDTH 0 0
DWIDTH 0 0
BBX 12 6 -6 20
BITMAP
0F00
3FC0
7FE0
FFF0
F0F0
E070
ENDCHAR
STARTCHAR 0312
ENCODING 786
SWIDTH 0 0
DWIDTH 0 0
BBX 5 7 -3 23
BITMAP
38
70
60
F0
F8
F8
78
ENDCHAR
STARTCHAR 0313
ENCODING 787
SWIDTH 0 0
DWIDTH 0 0
BBX 5 7 -2 21
BITMAP
F0
F0
F8
F0
30
70
E0
ENDCHAR
STARTCHAR 0318
ENCODING 792
SWIDTH 0 0
DWIDTH 0 0
BBX 7 7 -3 -9
BITMAP
0E
0E
FE
FE
FE
0E
0E
ENDCHAR
STARTCHAR 0319
ENCODING 793
SWIDTH 0 0
DWIDTH 0 0
BBX 7 7 -4 -9
BITMAP
E0
E0
FE
FE
FE
E0
E0
ENDCHAR
STARTCHAR 031A
ENCODING 794
SWIDTH 0 0
DWIDTH 0 0
BBX 7 6 -3 20
BITMAP
FE
FE
FE
0E
0E
0E
ENDCHAR
STARTCHAR 031B
ENCODING 795
SWIDTH 0 0
DWIDTH 0 0
BBX 7 9 0 15
BITMAP
04
3E
7E
3E
3E
7E
FC
F8
E0
ENDCHAR
STARTCHAR 031C
ENCODING 796
SWIDTH 0 0
DWIDTH 0 0
BBX 5 7 -3 -9
BITMAP
38
78
E0
E0
E0
78
38
ENDCHAR
STARTCHAR 031D
ENCODING 797
SWIDTH 0 0
DWIDTH 0 0
BBX 8 7 -4 -9
BITMAP
3C
3C
3C
3C
FF
FF
FF
ENDCHAR
STARTCHAR 031E
ENCODING 798
SWIDTH 0 0
DWIDTH 0 0
BBX 8 7 -4 -10
BITMAP
FF
FF
FF
3C
3C
3C
3C
ENDCHAR
STARTCHAR 031F
ENCODING 799
SWIDTH 0 0
DWIDTH 0 0
BBX 8 7 -4 -9
BITMAP
3C
3C
FF
FF
FF
3C
3C
ENDCHAR
STARTCHAR 0320
ENCODING 800
SWIDTH 0 0
DWIDTH 0 0
BBX 8 3 -4 -7
BITMAP
FF
FF
FF
ENDCHAR
STARTCHAR 0323
ENCODING 803
SWIDTH 0 0
DWIDTH 0 0
BBX 6 6 -3 -8
BITMAP
78
FC
FC
FC
FC
78
ENDCHAR
STARTCHAR 0324
ENCODING 804
SWIDTH 0 0
DWIDTH 0 0
BBX 14 6 -7 -8
BITMAP
3030
F87C
FCFC
FCFC
F87C
7878
ENDCHAR
STARTCHAR 0325
ENCODING 805
SWIDTH 0 0
DWIDTH 0 0
BBX 10 8 -5 -9
BITMAP
3F00
7F80
FBC0
F3C0
F3C0
F3C0
7F80
3F00
ENDCHAR
STARTCHAR 0326
ENCODING 806
SWIDTH 0 0
DWIDTH 0 0
BBX 8 7 -4 -9
BITMAP
3C
7E
1F
1F
FE
FC
F0
ENDCHAR
STARTCHAR 0327
ENCODING 807
SWIDTH 0 0
DWIDTH 0 0
BBX 8 9 -4 -9
BITMAP
3C
38
78
7E
1F
1F
FE
FC
F0
ENDCHAR
STARTCHAR 0328
ENCODING 808
SWIDTH 0 0
DWIDTH 0 0
BBX 8 8 -3 -8
BITMAP
38
70
F0
F0
FE
FE
FF
38
ENDCHAR
STARTCHAR 0329
ENCODING 809
SWIDTH 0 0
DWIDTH 0 0
BBX 4 8 -2 -10
BITMAP
F0
F0
F0
F0
F0
F0
F0
F0
ENDCHAR
STARTCHAR 032A
ENCODING 810
SWIDTH 0 0
DWIDTH 0 0
BBX 10 5 -5 -8
BITMAP
FFC0
FFC0
FFC0
E1C0
E1C0
ENDCHAR
STARTCHAR 032C
ENCODING 812
SWIDTH 0 0
DWIDTH 0 0
BBX 14 7 -7 -8
BITMAP
2010
7038
FCFC
7FF8
3FF0
1FE0
1FE0
ENDCHAR
STARTCHAR 032E
ENCODING 814
SWIDTH 0 0
DWIDTH 0 0
BBX 12 6 -6 -8
BITMAP
F070
F0F0
FFF0
7FE0
3FC0
0F00
ENDCHAR
STARTCHAR 032F
ENCODING 815
SWIDTH 0 0
DWIDTH 0 0
BBX 12 6 -6 -10
BITMAP
0F00
3FC0
7FE0
FFF0
F0F0
E070
ENDCHAR
STARTCHAR 0330
ENCODING 816
SWIDTH 0 0
DWIDTH 0 0
BBX 14 6 -7 -8
BITMAP
3E38
7F3C
7FFC
FFFC
F3F8
F1F0
ENDCHAR
STARTCHAR 0331
ENCODING 817
SWIDTH 0 0
DWIDTH 0 0
BBX 12 4 -6 -7
BITMAP
FFF0
FFF0
FFF0
FFF0
ENDCHAR
STARTCHAR 0334
ENCODING 820
SWIDTH 0 0
DWIDTH 0 0
BBX 14 6 -7 6
BITMAP
3E3C
7FBC
FFFC
FFF8
F3F8
71F0
ENDCHAR
STARTCHAR 0339
ENCODING 825
SWIDTH 0 0
DWIDTH 0 0
BBX 5 7 -2 -9
BITMAP
E0
F0
38
38
38
F0
E0
ENDCHAR
STARTCHAR 033A
ENCODING 826
SWIDTH 0 0
DWIDTH 0 0
BBX 10 5 -5 -8
BITMAP
E1C0
E1C0
FFC0
FFC0
FFC0
ENDCHAR
STARTCHAR 033B
ENCODING 827
SWIDTH 0 0
DWIDTH 0 0
BBX 10 7 -5 -9
BITMAP
FFC0
FFC0
E1C0
E1C0
E1C0
FFC0
FFC0
ENDCHAR
STARTCHAR 033C
ENCODING 828
SWIDTH 0 0
DWIDTH 0 0
BBX 14 7 -7 -10
BITMAP
18E0
7FF8
7FFC
FFFC
E79C
E31C
2300
ENDCHAR
STARTCHAR 033D
ENCODING 829
SWIDTH 0 0
DWIDTH 0 0
BBX 8 7 -4 19
BITMAP
24
7E
7E
3C
7E
FF
66
ENDCHAR
STARTCHAR 0342
ENCODING 834
SWIDTH 0 0
DWIDTH 0 0
BBX 14 6 -7 21
BITMAP
3E38
7F3C
7FFC
FFFC
F3F8
F1F0
ENDCHAR
STARTCHAR 0345
ENCODING 837
SWIDTH 0 0
DWIDTH 0 0
BBX 6 6 -2 -8
BITMAP
F0
F0
FC
FC
7C
3C
ENDCHAR
STARTCHAR 0361
ENCODING 865
SWIDTH 0 0
DWIDTH 0 0
BBX 33 7 -17 19
BITMAP
001FFE0000
01FFFFE000
0FFFFFFC00
3FFFFFFF00
FFC000FF80
7C00000F80
2000000300
ENDCHAR
STARTCHAR 0374
ENCODING 884
SWIDTH 332 0
DWIDTH 12 0
BBX 7 12 3 13
BITMAP
7E
7E
FC
FC
FC
FC
FC
F8
F8
F8
F0
F0
ENDCHAR
STARTCHAR 0375
ENCODING 885
SWIDTH 332 0
DWIDTH 12 0
BBX 7 12 2 0
BITMAP
1E
3E
3C
3C
7C
7C
7C
7C
FC
FC
FC
FC
ENDCHAR
STARTCHAR 037A
ENCODING 890
SWIDTH 553 0
DWIDTH 20 0
BBX 7 6 8 -8
BITMAP
F0
F0
FC
FC
7C
3E
ENDCHAR
STARTCHAR 037E
ENCODING 894
SWIDTH 332 0
DWIDTH 12 0
BBX 8 25 2 -8
BITMAP
3C
7E
FE
FE
FE
7E
7C
00
00
00
00
3C
7E
FF
FF
FF
7F
3F
0F
0F
1E
7E
FC
F8
E0
ENDCHAR
STARTCHAR 0384
ENCODING 900
SWIDTH 553 0
DWIDTH 20 0
BBX 7 9 8 20
BITMAP
70
7E
7C
FC
FC
F8
F8
F8
70
ENDCHAR
STARTCHAR 0385
ENCODING 901
SWIDTH 553 0
DWIDTH 20 0
BBX 14 9 3 21
BITMAP
0300
03C0
03C0
03C0
639C
F3BC
F7BC
F73C
0300
ENDCHAR
STARTCHAR 0386
ENCODING 902
SWIDTH 636 0
DWIDTH 23 0
BBX 23 25 0 0
BITMAP
400000
FC7F80
F8FF80
F8FF80
F8FFC0
F8FFC0
F1F7C0
F1F7C0
71F7E0
03F7E0
03F3E0
03E3F0
03E3F0
07E3F0
07E1F0
07FFF8
0FFFF8
0FFFF8
0FFFFC
1FFFFC
1F80FC
1F80FE
1F80FE
3F007E
3F007E
ENDCHAR
STARTCHAR 0387
ENCODING 903
SWIDTH 332 0
DWIDTH 12 0
BBX 7 7 2 10
BITMAP
3C
7E
FE
FE
FE
7E
7C
ENDCHAR
STARTCHAR 0388
ENCODING 904
SWIDTH 692 0
DWIDTH 25 0
BBX 23 25 0 0
BITMAP
400000
FCFFFE
F8FFFE
F8FFFE
F8FFFE
F8FFFE
F0FC00
F0FC00
70FC00
00FC00
00FFFC
00FFFC
00FFFC
00FFFC
00FFFC
00FC00
00FC00
00FC00
00FC00
00FC00
00FFFE
00FFFE
00FFFE
00FFFE
00FFFE
ENDCHAR
STARTCHAR 0389
ENCODING 905
SWIDTH 830 0
DWIDTH 30 0
BBX 27 25 0 0
BITMAP
40000000
FCFC07E0
F8FC07E0
F8FC07E0
F8FC07E0
F8FC07E0
F0FC07E0
F0FC07E0
F0FC07E0
00FC07E0
00FFFFE0
00FFFFE0
00FFFFE0
00FFFFE0
00FFFFE0
00FC07E0
00FC07E0
00FC07E0
00FC07E0
00FC07E0
00FC07E0
00FC07E0
00FC07E0
00FC07E0
00FC07E0
ENDCHAR
STARTCHAR 038A
ENCODING 906
SWIDTH 443 0
DWIDTH 16 0
BBX 14 25 0 0
BITMAP
4000
FCFC
F8FC
F8FC
F8FC
F8FC
F0FC
F0FC
F0FC
00FC
00FC
00FC
00FC
00FC
00FC
00FC
00FC
00FC
00FC
00FC
00FC
00FC
00FC
00FC
00FC
ENDCHAR
STARTCHAR 038C
ENCODING 908
SWIDTH 803 0
DWIDTH 29 0
BBX 27 25 0 0
BITMAP
40000000
FC07F000
F81FFC00
F87FFF00
F8FFFF80
F8FFFF80
F1FF7FC0
F1FC1FC0
F3F80FE0
03F007E0
03F007E0
03F007E0
03F007E0
03F007E0
03F007E0
03F007E0
03F80FE0
03F80FE0
01FC1FC0
01FF7FC0
00FFFF80
00FFFF80
007FFF00
001FFC00
0007F000
ENDCHAR
STARTCHAR 038E
ENCODING 910
SWIDTH 747 0
DWIDTH 27 0
BBX 27 25 0 0
BITMAP
40000000
FDFC07E0
F8FC0FE0
F8FC0FC0
F8FE0FC0
F87E1F80
F07E1F80
F03F1F00
F03F3F00
001F3E00
001FFE00
000FFC00
000FFC00
000FFC00
0007F800
0007F800
0003F000
0003F000
0003F000
0003F000
0003F000
0003F000
0003F000
0003F000
0003F000
ENDCHAR
STARTCHAR 038F
ENCODING 911
SWIDTH 830 0
DWIDTH 30 0
BBX 30 25 -1 0
BITMAP
60000000
7C01FC00
7C0FFF00
7C1FFF80
783FFFC0
787FFFE0
78FF9FF0
F8FE07F0
70FC03F8
01FC03F8
01FC03F8
01FC01F8
01F801F8
01FC01F8
01FC03F8
00FC03F0
00FC03F0
007E03F0
007E07E0
003F0FC0
01FF9FFC
01FF9FFC
01FF9FFC
01FF9FFC
01FF9FFC
ENDCHAR
STARTCHAR 0390
ENCODING 912
SWIDTH 304 0
DWIDTH 11 0
BBX 14 30 -2 0
BITMAP
0300
03C0
03C0
03C0
739C
F3BC
F7BC
F73C
0300
0000
0000
0000
0FC0
0FC0
0FC0
0FC0
0FC0
0FC0
0FC0
0FC0
0FC0
0FC0
0FC0
0FC0
0FC0
0FF8
0FF8
07F8
03F8
01F8
ENDCHAR
STARTCHAR 0391
ENCODING 913
SWIDTH 581 0
DWIDTH 21 0
BBX 21 24 0 0
BITMAP
01FC00
03FE00
03FE00
03FE00
07FF00
07DF00
07DF00
07DF80
0FDF80
0F8F80
0F8F80
1F8FC0
1F8FC0
1F0FC0
3FFFE0
3FFFE0
3FFFE0
3FFFF0
7FFFF0
7E03F0
7E03F0
FE03F8
FC01F8
FC01F8
ENDCHAR
STARTCHAR 0392
ENCODING 914
SWIDTH 609 0
DWIDTH 22 0
BBX 18 24 3 0
BITMAP
FFF800
FFFE00
FFFF00
FFFF80
FFFF80
FC3F80
FC1F80
FC1F80
FC3F00
FFFF00
FFFE00
FFFC00
FFFF00
FFFF80
FC1FC0
FC0FC0
FC0FC0
FC0FC0
FC1FC0
FFFFC0
FFFF80
FFFF00
FFFE00
FFF800
ENDCHAR
STARTCHAR 0393
ENCODING 915
SWIDTH 526 0
DWIDTH 19 0
BBX 15 24 3 0
BITMAP
FFFE
FFFE
FFFE
FFFE
FFFE
FC00
FC00
FC00
FC00
FC00
FC00
FC00
FC00
FC00
FC00
FC00
FC00
FC00
FC00
FC00
FC00
FC00
FC00
FC00
ENDCHAR
STARTCHAR 0394
ENCODING 916
SWIDTH 664 0
DWIDTH 24 0
BBX 22 24 1 0
BITMAP
01FE00
01FE00
03FF00
03FF00
03FF00
07DF80
07DF80
07CF80
0FCFC0
0F8FC0
0F8FC0
1F87E0
1F87E0
1F07E0
3F03F0
3F03F0
3F03F0
7E03F8
7E01F8
7FFFF8
FFFFFC
FFFFFC
FFFFFC
FFFFFC
ENDCHAR
STARTCHAR 0395
ENCODING 917
SWIDTH 553 0
DWIDTH 20 0
BBX 15 24 3 0
BITMAP
FFFE
FFFE
FFFE
FFFE
FFFE
FC00
FC00
FC00
FC00
FFF8
FFF8
FFF8
FFF8
FFF8
FC00
FC00
FC00
FC00
FC00
FFFE
FFFE
FFFE
FFFE
FFFE
ENDCHAR
STARTCHAR 0396
ENCODING 918
SWIDTH 553 0
DWIDTH 20 0
BBX 17 24 1 0
BITMAP
7FFF80
7FFF80
7FFF80
7FFF80
7FFF80
003F00
007F00
00FE00
00FC00
01FC00
03F800
03F000
07F000
0FE000
0FE000
1FC000
1F8000
3F8000
7F0000
7FFF80
FFFF80
FFFF80
FFFF80
FFFF80
ENDCHAR
STARTCHAR 0397
ENCODING 919
SWIDTH 692 0
DWIDTH 25 0
BBX 19 24 3 0
BITMAP
FC07E0
FC07E0
FC07E0
FC07E0
FC07E0
FC07E0
FC07E0
FC07E0
FC07E0
FFFFE0
FFFFE0
FFFFE0
FFFFE0
FFFFE0
FC07E0
FC07E0
FC07E0
FC07E0
FC07E0
FC07E0
FC07E0
FC07E0
FC07E0
FC07E0
ENDCHAR
STARTCHAR 0398
ENCODING 920
SWIDTH 692 0
DWIDTH 25 0
BBX 21 24 2 0
BITMAP
01FC00
07FF00
1FFFC0
3FFFE0
3FFFE0
7FDFF0
7F07F8
FE03F8
FC01F8
FDFDF8
FDFDF8
FDFDF8
FDFDF8
FDFDF8
FC01F8
FE01F8
FE03F8
7F07F0
7FDFF0
3FFFE0
3FFFE0
1FFFC0
07FF00
01FC00
ENDCHAR
STARTCHAR 0399
ENCODING 921
SWIDTH 304 0
DWIDTH 11 0
BBX 6 24 3 0
BITMAP
FC
FC
FC
FC
FC
FC
FC
FC
FC
FC
FC
FC
FC
FC
FC
FC
FC
FC
FC
FC
FC
FC
FC
FC
ENDCHAR
STARTCHAR 039A
ENCODING 922
SWIDTH 636 0
DWIDTH 23 0
BBX 20 24 3 0
BITMAP
FC0FC0
FC1FC0
FC3F80
FC3F00
FC7E00
FCFE00
FCFC00
FDF800
FFF800
FFF000
FFF000
FFF800
FFF800
FFFC00
FFFC00
FFFE00
FE7F00
FC3F00
FC3F80
FC1F80
FC1FC0
FC0FE0
FC0FE0
FC07F0
ENDCHAR
STARTCHAR 039B
ENCODING 923
SWIDTH 581 0
DWIDTH 21 0
BBX 21 24 0 0
BITMAP
03FC00
03FE00
03FE00
03FE00
07FE00
07FF00
07FF00
0FDF00
0F9F80
0F9F80
0F9F80
1F8F80
1F8FC0
1F0FC0
3F0FC0
3F0FE0
3F07E0
3E07E0
7E07E0
7E07F0
7E03F0
FE03F0
FC03F8
FC03F8
ENDCHAR
STARTCHAR 039C
ENCODING 924
SWIDTH 775 0
DWIDTH 28 0
BBX 22 24 3 0
BITMAP
FC00FC
FE01FC
FE01FC
FF01FC
FF03FC
FF03FC
FF87FC
FF87FC
F787BC
FFCFFC
FFCFFC
FBCF7C
FBEF7C
FBFF7C
F9FE7C
F9FE7C
F9FE7C
F8FC7C
F8FC7C
F8FC7C
F8787C
F8787C
F8007C
F8007C
ENDCHAR
STARTCHAR 039D
ENCODING 925
SWIDTH 664 0
DWIDTH 24 0
BBX 19 24 3 0
BITMAP
FC07E0
FE07E0
FE07E0
FF07E0
FF07E0
FF87E0
FF87E0
FFC7E0
FFC7E0
FBE7E0
FBE7E0
FBE7E0
F9F7E0
F9F7E0
F8FFE0
FCFFE0
FC7FE0
FC7FE0
FC3FE0
FC3FE0
FC1FE0
FC1FE0
FC0FE0
FC0FE0
ENDCHAR
STARTCHAR 039E
ENCODING 926
SWIDTH 581 0
DWIDTH 21 0
BBX 17 24 2 0
BITMAP
FFFF80
FFFF80
FFFF80
FFFF80
FFFF80
000000
000000
000000
000000
3FFE00
3FFE00
3FFE00
3FFE00
3FFE00
000000
000000
000000
000000
000000
FFFF80
FFFF80
FFFF80
FFFF80
FFFF80
ENDCHAR
STARTCHAR 039F
ENCODING 927
SWIDTH 692 0
DWIDTH 25 0
BBX 21 24 2 0
BITMAP
01FC00
07FF00
1FFFC0
3FFFE0
3FFFE0
7FDFF0
7F07F8
FE03F8
FC01F8
FC01F8
FC01F8
FC01F8
FC01F8
FC01F8
FC01F8
FE01F8
FE03F8
7F07F0
7FDFF0
3FFFE0
3FFFE0
1FFFC0
07FF00
01FC00
ENDCHAR
STARTCHAR 03A0
ENCODING 928
SWIDTH 664 0
DWIDTH 24 0
BBX 19 24 3 0
BITMAP
FFFFE0
FFFFE0
FFFFE0
FFFFE0
FFFFE0
FC0FE0
FC0FE0
FC0FE0
FC0FE0
FC0FE0
FC0FE0
FC0FE0
FC0FE0
FC0FE0
FC0FE0
FC0FE0
FC0FE0
FC0FE0
FC0FE0
FC0FE0
FC0FE0
FC0FE0
FC0FE0
FC0FE0
ENDCHAR
STARTCHAR 03A1
ENCODING 929
SWIDTH 609 0
DWIDTH 22 0
BBX 18 24 3 0
BITMAP
FFF000
FFFE00
FFFF00
FFFF80
FFFF80
FC3F80
FC1FC0
FC0FC0
FC0FC0
FC1FC0
FC3F80
FFFF80
FFFF00
FFFE00
FFFC00
FFF000
FC0000
FC0000
FC0000
FC0000
FC0000
FC0000
FC0000
FC0000
ENDCHAR
STARTCHAR 03A3
ENCODING 931
SWIDTH 553 0
DWIDTH 20 0
BBX 18 24 1 0
BITMAP
FFFF80
FFFF80
FFFF80
FFFF80
7FFF80
3F0000
1F8000
0FC000
0FE000
07F000
03F000
01F800
01F800
03F000
07E000
0FE000
1FC000
1F8000
3F0000
7FFFC0
FFFFC0
FFFFC0
FFFFC0
FFFFC0
ENDCHAR
STARTCHAR 03A4
ENCODING 932
SWIDTH 553 0
DWIDTH 20 0
BBX 18 24 1 0
BITMAP
FFFFC0
FFFFC0
FFFFC0
FFFFC0
FFFFC0
03F000
03F000
03F000
03F000
03F000
03F000
03F000
03F000
03F000
03F000
03F000
03F000
03F000
03F000
03F000
03F000
03F000
03F000
03F000
ENDCHAR
STARTCHAR 03A5
ENCODING 933
SWIDTH 553 0
DWIDTH 20 0
BBX 20 24 0 0
BITMAP
FC07F0
FE07E0
7E07E0
7E0FC0
3F0FC0
3F0FC0
1F9F80
1F9F80
1F9F00
0FFF00
0FFE00
07FE00
07FC00
03FC00
03F800
01F800
01F800
01F800
01F800
01F800
01F800
01F800
01F800
01F800
ENDCHAR
STARTCHAR 03A6
ENCODING 934
SWIDTH 775 0
DWIDTH 28 0
BBX 24 25 2 -1
BITMAP
007E00
007E00
007E00
03FFC0
0FFFF0
1FFFFC
3FFFFC
7FFFFE
FE7E7F
FC7E3F
FC7E3F
FC7E3F
FC7E3F
FC7E3F
FC7E3F
FE7E3F
7F7E7E
7FFFFE
3FFFFC
1FFFF8
0FFFF0
01FF80
007E00
007E00
007E00
ENDCHAR
STARTCHAR 03A7
ENCODING 935
SWIDTH 581 0
DWIDTH 21 0
BBX 20 24 1 0
BITMAP
FE07E0
FE0FE0
7F0FC0
7F0FC0
3F9F80
1F9F80
1F9F00
0FFF00
0FFE00
07FE00
07FC00
03FC00
07FC00
07FC00
0FFE00
0FFE00
1FBF00
1FBF00
3F1F80
3F1F80
7E1FC0
7E0FE0
FE0FE0
FC07F0
ENDCHAR
STARTCHAR 03A8
ENCODING 936
SWIDTH 775 0
DWIDTH 28 0
BBX 24 24 2 0
BITMAP
FC7E3F
FC7E3F
FC7E3F
FC7E3F
FC7E3F
FC7E3F
FC7E3F
FC7E3F
FC7E3F
FE7E7F
FE7E7E
7FFFFE
7FFFFC
3FFFFC
1FFFF0
07FFC0
007E00
007E00
007E00
007E00
007E00
007E00
007E00
007E00
ENDCHAR
STARTCHAR 03A9
ENCODING 937
SWIDTH 720 0
DWIDTH 26 0
BBX 23 24 2 0
BITMAP
00FE00
07FF80
0FFFC0
1FFFE0
3FFFF0
7FCFF8
7F03F8
7E01FC
FE01FC
FE01FC
FE00FC
FE00FC
FE00FC
FE00FC
7E01F8
7E01F8
3F01F8
3F03F0
1F87E0
FFCFFE
FFCFFE
FFCFFE
FFCFFE
FFCFFE
ENDCHAR
STARTCHAR 03AA
ENCODING 938
SWIDTH 304 0
DWIDTH 11 0
BBX 14 31 -1 0
BITMAP
7078
F8F8
F8FC
F8FC
F8F8
2030
0000
0FC0
0FC0
0FC0
0FC0
0FC0
0FC0
0FC0
0FC0
0FC0
0FC0
0FC0
0FC0
0FC0
0FC0
0FC0
0FC0
0FC0
0FC0
0FC0
0FC0
0FC0
0FC0
0FC0
0FC0
ENDCHAR
STARTCHAR 03AB
ENCODING 939
SWIDTH 553 0
DWIDTH 20 0
BBX 20 31 0 0
BITMAP
0E0F00
1F1F80
1F9F80
1F1F80
1F0F00
040600
000000
FC07F0
FE07E0
7E07E0
7E0FC0
3F0FC0
3F0FC0
1F9F80
1F9F80
1F9F00
0FFF00
0FFE00
07FE00
07FC00
03FC00
03F800
01F800
01F800
01F800
01F800
01F800
01F800
01F800
01F800
01F800
ENDCHAR
STARTCHAR 03AC
ENCODING 940
SWIDTH 609 0
DWIDTH 22 0
BBX 21 29 1 0
BITMAP
006000
00FC00
00FC00
00FC00
00F800
00F800
00F800
00F000
00F000
000000
000000
03C7F0
0FF7E0
1FFFE0
3FFFE0
7FFFE0
7F3FC0
FE1FC0
FE0FC0
FE0FC0
FE0FC0
FE0F80
FE1F80
7F3FC0
7FFFF0
7FFFF0
3FF7F8
1FE7F8
07C1F0
ENDCHAR
STARTCHAR 03AD
ENCODING 941
SWIDTH 470 0
DWIDTH 17 0
BBX 15 28 1 0
BITMAP
01F8
01F8
01F8
01F0
01F0
01F0
01E0
03E0
0000
0000
07F0
1FFE
3FFE
7FFC
7FFC
7E00
7E00
3FF0
1FF0
3FF0
7FF0
FC00
FC00
FFFC
7FFE
7FFE
1FFE
07F8
ENDCHAR
STARTCHAR 03AE
ENCODING 942
SWIDTH 581 0
DWIDTH 21 0
BBX 17 35 2 -7
BITMAP
00FC00
00FC00
00F800
00F800
01F800
01F000
01F000
01F000
000000
000000
F87C00
F9FE00
FBFF00
FFFF00
FFFF00
FF3F80
FE1F80
FC1F80
FC1F80
FC1F80
FC1F80
FC1F80
FC1F80
FC1F80
FC1F80
FC1F80
FC1F80
FC1F80
001F80
001F80
001F80
003F80
003F80
003F80
003F80
ENDCHAR
STARTCHAR 03AF
ENCODING 943
SWIDTH 304 0
DWIDTH 11 0
BBX 9 29 2 0
BITMAP
3000
3F00
3F00
3E00
7E00
7C00
7C00
7C00
3800
0000
0000
FC00
FC00
FC00
FC00
FC00
FC00
FC00
FC00
FC00
FC00
FC00
FC00
FC00
FF80
FF80
7F80
3F80
1F80
ENDCHAR
STARTCHAR 03B0
ENCODING 944
SWIDTH 553 0
DWIDTH 20 0
BBX 17 30 1 0
BITMAP
00C000
00F000
00F000
01E000
39EE00
3DEF00
7DCF00
3DCF00
01C000
000000
000000
000000
FC0700
7E3F00
7E3F00
7E3F80
7E1F80
7E1F80
7E1F80
7E1F80
7E1F80
7C1F80
7C1F80
7E1F80
7E3F80
7FFF00
3FFF00
3FFE00
1FFC00
07F000
ENDCHAR
STARTCHAR 03B1
ENCODING 945
SWIDTH 609 0
DWIDTH 22 0
BBX 21 18 1 0
BITMAP
03C7F0
0FF7E0
1FFFE0
3FFFE0
7FFFE0
7F3FC0
FE1FC0
FE0FC0
FE0FC0
FE0FC0
FE0F80
FE1F80
7F3FC0
7FFFF0
7FFFF0
3FF7F8
1FE7F8
07C1F0
ENDCHAR
STARTCHAR 03B2
ENCODING 946
SWIDTH 609 0
DWIDTH 22 0
BBX 19 33 2 -7
BITMAP
03F000
0FFC00
3FFF00
3FFF00
7FFF80
7E1F80
FE1F80
FC1F80
FC1F80
FC1F80
FC7F00
FCFE00
FCFF00
FC7F80
FC7FC0
FC0FC0
FC07E0
FC07E0
FC07E0
FC07E0
FF0FE0
FFFFC0
FFFFC0
FFFF80
FDFF00
FC7C00
FC0000
FC0000
FC0000
FC0000
FC0000
FC0000
FC0000
ENDCHAR
STARTCHAR 03B3
ENCODING 947
SWIDTH 553 0
DWIDTH 20 0
BBX 19 25 0 -7
BITMAP
0E07E0
FE07E0
7F07E0
7F07E0
3F07C0
3F87C0
1F8FC0
1F8FC0
0FCF80
0FCF80
07DF80
07FF00
07FF00
03FE00
03FE00
03FC00
03F800
01F800
01F800
01F800
01F800
01F800
01F800
01F800
01F800
ENDCHAR
STARTCHAR 03B4
ENCODING 948
SWIDTH 553 0
DWIDTH 20 0
BBX 18 26 1 0
BITMAP
07F800
0FFF80
1FFF80
3FFF00
3FFF00
3F0300
3F8000
1FC000
1FF000
0FF800
07FC00
0FFE00
1FFF00
3FBF80
7E1F80
7E1FC0
FC0FC0
FC0FC0
FC0FC0
FE1FC0
7E1F80
7FFF80
3FFF00
3FFE00
0FFC00
03F000
ENDCHAR
STARTCHAR 03B5
ENCODING 949
SWIDTH 470 0
DWIDTH 17 0
BBX 15 18 1 0
BITMAP
07F0
1FFE
3FFE
7FFC
7FFC
7E00
7E00
3FF0
1FF0
3FF0
7FF0
FC00
FC00
FFFC
7FFE
7FFE
1FFE
07F8
ENDCHAR
STARTCHAR 03B6
ENCODING 950
SWIDTH 470 0
DWIDTH 17 0
BBX 16 33 1 -7
BITMAP
3FFE
3FFE
3FFE
3FFE
3FFE
01FC
03F8
07F0
0FE0
0FC0
1F80
3F80
3F00
7F00
7E00
7E00
FE00
FE00
FE00
7E00
7F00
7FF0
3FFC
3FFE
1FFE
07FF
00FF
003F
003E
003E
007E
007C
000C
ENDCHAR
STARTCHAR 03B7
ENCODING 951
SWIDTH 581 0
DWIDTH 21 0
BBX 17 25 2 -7
BITMAP
F87C00
F9FE00
FBFF00
FFFF00
FFFF00
FF3F80
FE1F80
FC1F80
FC1F80
FC1F80
FC1F80
FC1F80
FC1F80
FC1F80
FC1F80
FC1F80
FC1F80
FC1F80
001F80
001F80
001F80
003F80
003F80
003F80
003F80
ENDCHAR
STARTCHAR 03B8
ENCODING 952
SWIDTH 553 0
DWIDTH 20 0
BBX 17 26 2 0
BITMAP
07E000
0FF800
1FFC00
3FFE00
7FFE00
7E7F00
FC3F00
FC3F00
FC3F00
FC1F00
FC1F80
FFFF80
FFFF80
FFFF80
FFFF80
FC1F80
FC1F00
FC3F00
FC3F00
FC3F00
7E7E00
7FFE00
3FFC00
1FFC00
0FF800
07E000
ENDCHAR
STARTCHAR 03B9
ENCODING 953
SWIDTH 304 0
DWIDTH 11 0
BBX 9 18 2 0
BITMAP
FC00
FC00
FC00
FC00
FC00
FC00
FC00
FC00
FC00
FC00
FC00
FC00
FC00
FF80
FF80
7F80
3F80
1F80
ENDCHAR
STARTCHAR 03BA
ENCODING 954
SWIDTH 553 0
DWIDTH 20 0
BBX 18 18 2 0
BITMAP
FC0300
FC0F00
FC1F00
FC7F80
FCFF80
FCFF80
FDFC00
FFF000
FFF000
FFF800
FFF800
FEFC00
FEFE00
FC7E00
FC7F00
FC3F80
FC1F80
FC1FC0
ENDCHAR
STARTCHAR 03BB
ENCODING 955
SWIDTH 581 0
DWIDTH 21 0
BBX 19 26 1 0
BITMAP
7F0000
FFC000
7FE000
7FF000
7FF000
43F800
01F800
01F800
01FC00
03FC00
03FC00
03FE00
07FE00
07FE00
0FFF00
0FBF00
1FBF00
1F9F80
1F9F80
3F1F80
3F0FC0
7F0FC0
7E0FC0
FE0FE0
FE07E0
FC07E0
ENDCHAR
STARTCHAR 03BC
ENCODING 956
SWIDTH 609 0
DWIDTH 22 0
BBX 20 25 2 -7
BITMAP
FC1F80
FC1F80
FC1F80
FC1F80
FC1F80
FC1F80
FC1F80
FC1F80
FC1F80
FC1F00
FC1F00
FC3F00
FE7F80
FFFFE0
FFFFF0
FFFFF0
FFEFF0
FF83F0
FC0000
FC0000
FC0000
FC0000
FC0000
FC0000
FC0000
ENDCHAR
STARTCHAR 03BD
ENCODING 957
SWIDTH 553 0
DWIDTH 20 0
BBX 19 18 0 0
BITMAP
0E07E0
FE07E0
7E07E0
7F07C0
3F0FC0
3F8FC0
1F8FC0
1F8F80
0FCF80
0FDF80
07DF00
07DF00
07FE00
07FE00
03FC00
03FC00
03F800
03F800
ENDCHAR
STARTCHAR 03BE
ENCODING 958
SWIDTH 470 0
DWIDTH 17 0
BBX 17 33 0 -7
BITMAP
FFFF00
FFFF00
FFFF00
FFFF00
FFFF00
0FC000
1F8000
1F8000
1F8000
1FC000
0FC000
07FE00
03FE00
07FE00
1FFE00
1F8000
3F0000
3F0000
3F0000
7F0000
3F8000
3FF800
3FFE00
1FFF00
0FFF80
07FF80
007F80
001F80
001F00
001F00
003F00
003E00
000600
ENDCHAR
STARTCHAR 03BF
ENCODING 959
SWIDTH 553 0
DWIDTH 20 0
BBX 18 18 1 0
BITMAP
03F000
0FFC00
1FFE00
3FFF00
7FFF80
7F1F80
7E1FC0
FE0FC0
FE0FC0
FE0FC0
FE0FC0
FE1FC0
7F1F80
7FFF80
3FFF00
1FFE00
0FFC00
03F000
ENDCHAR
STARTCHAR 03C0
ENCODING 960
SWIDTH 664 0
DWIDTH 24 0
BBX 22 18 1 0
BITMAP
FFFFFC
FFFFFC
FFFFFC
FFFFFC
FFFFFC
1F87C0
1F87C0
1F87C0
1F87C0
1F8FC0
1F8FC0
1F8FC0
1F8FE0
1F87F8
1F87F8
1F87FC
3F03FC
3F01FC
ENDCHAR
STARTCHAR 03C1
ENCODING 961
SWIDTH 581 0
DWIDTH 21 0
BBX 17 25 2 -7
BITMAP
03F000
0FFC00
3FFE00
3FFF00
7FFF80
7E3F80
FC1F80
FC1F80
FC1F80
FC1F80
FC1F80
FC1F80
FE3F80
FFFF80
FFFF00
FFFE00
FFFC00
FDF000
FC0000
FC0000
FC0000
FC0000
FC0000
FC0000
FC0000
ENDCHAR
STARTCHAR 03C2
ENCODING 962
SWIDTH 443 0
DWIDTH 16 0
BBX 14 25 1 -7
BITMAP
03F8
0FFC
1FFC
3FFC
7FF8
7F10
7E00
FE00
FE00
FE00
FE00
FE00
7F00
7FC0
3FF0
3FF8
0FFC
07FC
00FC
007C
007C
007C
00F8
01F8
0030
ENDCHAR
STARTCHAR 03C3
ENCODING 963
SWIDTH 581 0
DWIDTH 21 0
BBX 20 18 1 0
BITMAP
03FFF0
0FFFF0
1FFFF0
3FFFF0
7FFFF0
7E3F00
FE1F80
FE1F80
FE1F80
FE1F80
FE1F80
FE1F80
7F3F80
7FFF80
3FFF00
1FFE00
0FFC00
03F000
ENDCHAR
STARTCHAR 03C4
ENCODING 964
SWIDTH 498 0
DWIDTH 18 0
BBX 16 18 1 0
BITMAP
FFFF
FFFF
FFFF
FFFF
FFFF
07E0
07E0
07E0
07E0
07E0
07E0
07E0
07E0
07FC
07FE
03FE
03FE
00FC
ENDCHAR
STARTCHAR 03C5
ENCODING 965
SWIDTH 553 0
DWIDTH 20 0
BBX 17 18 1 0
BITMAP
FC0700
7E3F00
7E3F00
7E3F80
7E1F80
7E1F80
7E1F80
7E1F80
7E1F80
7C1F80
7C1F80
7E1F80
7E3F80
7FFF00
3FFF00
3FFE00
1FFC00
07F000
ENDCHAR
STARTCHAR 03C6
ENCODING 966
SWIDTH 747 0
DWIDTH 27 0
BBX 25 29 1 -7
BITMAP
003F0000
003F0000
003F0000
003F0000
01FFE000
07FFF800
1FFFFC00
3FFFFE00
7FFFFF00
7F3F3F80
7E3F3F80
FE3F1F80
FE3F1F80
FE3F1F80
FE3F1F80
7E3F3F80
7F3F3F80
7FFFFF00
3FFFFE00
1FFFFC00
07FFF800
01FFC000
003F0000
003F0000
003F0000
003F0000
003F0000
003F0000
003F0000
ENDCHAR
STARTCHAR 03C7
ENCODING 967
SWIDTH 553 0
DWIDTH 20 0
BBX 20 25 0 -7
BITMAP
0E07E0
FE0FC0
7F0FC0
3F1F80
3F9F80
1F9F00
1FFF00
0FFE00
07FE00
07FC00
03FC00
03F800
01F800
01FC00
03FE00
07FE00
07FF00
0FFF00
0F9F80
1F9FC0
1F8FC0
3F0FE0
3F07E0
7E07F0
7E0300
ENDCHAR
STARTCHAR 03C8
ENCODING 968
SWIDTH 775 0
DWIDTH 28 0
BBX 25 29 1 -7
BITMAP
003F0000
003F0000
003F0000
003F0000
FC3F0300
7E3F3F80
7E3F1F80
7E3F1F80
7E3F1F80
7E3F1F80
7E3F1F80
7E3F1F80
7E3F1F80
7E3F1F80
7E3F1F80
7E3F1F80
7F3F3F80
3FFFFF00
3FFFFF00
1FFFFE00
0FFFFC00
01FFE000
003F0000
003F0000
003F0000
003F0000
003F0000
003F0000
003F0000
ENDCHAR
STARTCHAR 03C9
ENCODING 969
SWIDTH 775 0
DWIDTH 28 0
BBX 25 18 1 0
BITMAP
10000600
3E003F00
3F007F00
7F003F00
7E003F80
7E001F80
FE3F1F80
FC3F1F80
FC3F1F80
FC3E1F80
FC3E1F80
7C3F1F80
7E7F3F80
7FFFFF00
3FFFFF00
3FF7FE00
1FE3FC00
07C0F800
ENDCHAR
STARTCHAR 03CA
ENCODING 970
SWIDTH 304 0
DWIDTH 11 0
BBX 14 26 -2 0
BITMAP
7838
7C7C
FCFC
FCFC
7C7C
3038
0000
0000
0FC0
0FC0
0FC0
0FC0
0FC0
0FC0
0FC0
0FC0
0FC0
0FC0
0FC0
0FC0
0FC0
0FF8
0FF8
07F8
03F8
01F8
ENDCHAR
STARTCHAR 03CB
ENCODING 971
SWIDTH 553 0
DWIDTH 20 0
BBX 17 26 1 0
BITMAP
1C0C00
3E3E00
3E3F00
3F3F00
3E3E00
1C1E00
000000
000000
FC0700
7E3F00
7E3F00
7E3F80
7E1F80
7E1F80
7E1F80
7E1F80
7E1F80
7C1F80
7C1F80
7E1F80
7E3F80
7FFF00
3FFF00
3FFE00
1FFC00
07F000
ENDCHAR
STARTCHAR 03CC
ENCODING 972
SWIDTH 553 0
DWIDTH 20 0
BBX 18 28 1 0
BITMAP
00FC00
00FC00
00F800
00F800
01F800
01F000
01F000
01E000
000000
000000
03F000
0FFC00
1FFE00
3FFF00
7FFF80
7F1F80
7E1FC0
FE0FC0
FE0FC0
FE0FC0
FE0FC0
FE1FC0
7F1F80
7FFF80
3FFF00
1FFE00
0FFC00
03F000
ENDCHAR
STARTCHAR 03CD
ENCODING 973
SWIDTH 553 0
DWIDTH 20 0
BBX 17 28 1 0
BITMAP
01F800
01F800
01F800
01F000
01F000
01F000
01E000
01E000
000000
000000
FC0700
7E3F00
7E3F00
7E3F80
7E1F80
7E1F80
7E1F80
7E1F80
7E1F80
7C1F80
7C1F80
7E1F80
7E3F80
7FFF00
3FFF00
3FFE00
1FFC00
07F000
ENDCHAR
STARTCHAR 03CE
ENCODING 974
SWIDTH 775 0
DWIDTH 28 0
BBX 25 28 1 0
BITMAP
001F8000
001F8000
001F8000
001F8000
001F0000
001F0000
001E0000
001E0000
00000000
00000000
10000600
3E003F00
3F007F00
7F003F00
7E003F80
7E001F80
FE3F1F80
FC3F1F80
FC3F1F80
FC3E1F80
FC3E1F80
7C3F1F80
7E7F3F80
7FFFFF00
3FFFFF00
3FF7FE00
1FE3FC00
07C0F800
ENDCHAR
STARTCHAR 03D0
ENCODING 976
SWIDTH 609 0
DWIDTH 22 0
BBX 19 26 2 0
BITMAP
07F000
1FFC00
3FFE00
3FFF00
7FFF80
7E3F80
FE1F80
FC1F80
FC1F80
FC3F00
FC7E00
FFFC00
FFFE00
FFFF80
FFFF80
FE0FC0
FC0FC0
FC07E0
FC07E0
FE0FE0
7F9FC0
7FFFC0
3FFFC0
1FFF80
0FFE00
03F800
ENDCHAR
STARTCHAR 03D1
ENCODING 977
SWIDTH 553 0
DWIDTH 20 0
BBX 17 26 2 0
BITMAP
0FC000
1FF000
7FF800
7FFC00
FFFE00
FC7E00
F83F00
F83F00
F83F00
FC3F00
FE1F80
7FFF80
3FFF80
1FFF80
03FF80
001F80
FC1F80
FC1F00
7C3F00
7C3F00
7E3F00
7FFE00
7FFE00
3FFC00
1FF800
07E000
ENDCHAR
STARTCHAR 03D5
ENCODING 981
SWIDTH 747 0
DWIDTH 27 0
BBX 25 25 1 -7
BITMAP
1801F800
1C07FC00
3F0FFE00
7F9FFF00
7F1FFF80
7E3F3F80
FE3F1F80
FE3F1F80
FE3E1F80
FE3E1F80
FE3E1F80
7E3E1F80
7E3E3F00
7FBEFF00
3FFFFE00
1FFFFC00
0FFFF800
01FFC000
003F0000
003F0000
003F0000
003F0000
003F0000
003F0000
003F0000
ENDCHAR
STARTCHAR 03D7
ENCODING 983
SWIDTH 553 0
DWIDTH 20 0
BBX 19 25 2 -7
BITMAP
FC0300
FC0F00
FC1F00
FC3F80
FC7F80
FCFF80
FDFC00
FFF800
FFF000
FFF000
FFF800
FFFC00
FEFC00
FEFE00
FC7F00
FC7F00
FC3F80
FC1FC0
001FE0
001FC0
003F80
003F80
007F00
00FE00
01FE00
ENDCHAR
STARTCHAR 03D9
ENCODING 985
SWIDTH 553 0
DWIDTH 20 0
BBX 18 25 1 -7
BITMAP
03F000
0FFC00
1FFE00
3FFF00
7FFF80
7F1F80
7E1FC0
FE0FC0
FE0FC0
FE0FC0
FE0FC0
FE0FC0
7E1FC0
7E1F80
7FFF80
3FFF00
1FFE00
0FFC00
03F000
03F000
03F000
03F000
03F000
03F000
03F800
ENDCHAR
STARTCHAR 03DB
ENCODING 987
SWIDTH 498 0
DWIDTH 18 0
BBX 16 25 1 -7
BITMAP
01FF
0FFF
1FFF
3FFF
7FFF
7F00
7E00
FE00
FE00
FE00
FE00
FE00
7F00
7FE0
3FF8
3FFE
1FFE
07FE
01FE
003E
003E
003E
007E
00FC
000C
ENDCHAR
STARTCHAR 03DD
ENCODING 989
SWIDTH 443 0
DWIDTH 16 0
BBX 13 25 2 -7
BITMAP
FFF8
FFF8
FFF8
FFF8
FFF8
FC00
FC00
FC00
FC00
FC00
FFF0
FFF0
FFF0
FFF0
FC00
FC00
FC00
FC00
FC00
FC00
FC00
FC00
FC00
FC00
FC00
ENDCHAR
STARTCHAR 03E1
ENCODING 993
SWIDTH 553 0
DWIDTH 20 0
BBX 19 33 0 -7
BITMAP
010000
038000
07C000
0FE000
1FF000
0FF800
07FC00
03FC00
01FE00
00FF00
007F00
01FF80
0FFF80
3FFF80
FFFFC0
7FEFC0
7F8FC0
3E0FE0
380FE0
003FE0
00FFE0
03FFE0
0FFFE0
0FFFE0
07F7E0
07C7E0
0307E0
0207E0
0007E0
0007E0
0007E0
0007E0
0001E0
ENDCHAR
STARTCHAR 0400
ENCODING 1024
SWIDTH 553 0
DWIDTH 20 0
BBX 15 33 3 0
BITMAP
1800
1C00
3E00
7F80
3FC0
1FC0
0780
0100
0000
FFFE
FFFE
FFFE
FFFE
FFFE
FC00
FC00
FC00
FC00
FFF8
FFF8
FFF8
FFF8
FFF8
FC00
FC00
FC00
FC00
FC00
FFFE
FFFE
FFFE
FFFE
FFFE
ENDCHAR
STARTCHAR 0401
ENCODING 1025
SWIDTH 553 0
DWIDTH 20 0
BBX 15 31 3 0
BITMAP
3838
7C7C
7C7C
7C7C
7C7C
1010
0000
FFFE
FFFE
FFFE
FFFE
FFFE
FC00
FC00
FC00
FC00
FFF8
FFF8
FFF8
FFF8
FFF8
FC00
FC00
FC00
FC00
FC00
FFFE
FFFE
FFFE
FFFE
FFFE
ENDCHAR
STARTCHAR 0402
ENCODING 1026
SWIDTH 720 0
DWIDTH 26 0
BBX 23 24 1 0
BITMAP
FFFFE0
FFFFE0
FFFFE0
FFFFE0
FFFFE0
07F000
07F000
07F000
07F000
07FFC0
07FFF0
07FFF8
07FFFC
07FFFE
07F0FE
07F07E
07F07E
07F07E
07F07E
07F1FE
07F3FE
07F3FC
07F3F8
07F3E0
ENDCHAR
STARTCHAR 0403
ENCODING 1027
SWIDTH 526 0
DWIDTH 19 0
BBX 15 33 3 0
BITMAP
0030
0078
00F8
01FC
07F8
07F0
03C0
0180
0000
FFFE
FFFE
FFFE
FFFE
FFFE
FC00
FC00
FC00
FC00
FC00
FC00
FC00
FC00
FC00
FC00
FC00
FC00
FC00
FC00
FC00
FC00
FC00
FC00
FC00
ENDCHAR
STARTCHAR 0404
ENCODING 1028
SWIDTH 581 0
DWIDTH 21 0
BBX 18 24 2 0
BITMAP
01FC00
07FF00
0FFFC0
1FFFC0
3FFF80
7FCF00
7F0200
FE0000
FC0000
FFF800
FFF800
FFF800
FFF800
FFF800
FC0000
FC0000
FE0000
FF0300
7FCF80
7FFFC0
3FFFC0
1FFFC0
07FF00
01FC00
ENDCHAR
STARTCHAR 0405
ENCODING 1029
SWIDTH 553 0
DWIDTH 20 0
BBX 18 24 1 0
BITMAP
01F800
0FFE00
1FFF80
3FFF80
3FFF00
7F9F00
7E0200
7F0000
7F8000
7FF000
3FFC00
1FFF00
0FFF80
07FFC0
00FFC0
003FC0
000FC0
180FC0
3F3FC0
7FFFC0
FFFF80
7FFF00
1FFE00
07F000
ENDCHAR
STARTCHAR 0406
ENCODING 1030
SWIDTH 304 0
DWIDTH 11 0
BBX 6 24 3 0
BITMAP
FC
FC
FC
FC
FC
FC
FC
FC
FC
FC
FC
FC
FC
FC
FC
FC
FC
FC
FC
FC
FC
FC
FC
FC
ENDCHAR
STARTCHAR 0407
ENCODING 1031
SWIDTH 304 0
DWIDTH 11 0
BBX 14 31 -1 0
BITMAP
7078
F8F8
F8FC
F8FC
F8F8
2030
0000
0FC0
0FC0
0FC0
0FC0
0FC0
0FC0
0FC0
0FC0
0FC0
0FC0
0FC0
0FC0
0FC0
0FC0
0FC0
0FC0
0FC0
0FC0
0FC0
0FC0
0FC0
0FC0
0FC0
0FC0
ENDCHAR
STARTCHAR 0408
ENCODING 1032
SWIDTH 526 0
DWIDTH 19 0
BBX 16 24 0 0
BITMAP
003F
003F
003F
003F
003F
003F
003F
003F
003F
003F
003F
003F
003F
003F
003F
003F
083F
183F
3E7F
FFFF
7FFE
3FFC
1FF8
07E0
ENDCHAR
STARTCHAR 0409
ENCODING 1033
SWIDTH 913 0
DWIDTH 33 0
BBX 32 24 0 0
BITMAP
00FFF800
01FFF800
01FFF800
01FFF800
01FFF800
01F1F800
03F1F800
03F1F800
03F1FFE0
03F1FFF8
03F1FFFC
07E1FFFE
07E1FFFF
07E1F87F
07E1F83F
07E1F83F
0FC1F83F
0FC1F83F
7FC1F87F
7F81FFFF
7F81FFFE
7F01FFFC
FE01FFF8
FC01FFE0
ENDCHAR
STARTCHAR 040A
ENCODING 1034
SWIDTH 941 0
DWIDTH 34 0
BBX 29 24 3 0
BITMAP
FC0FE000
FC0FE000
FC0FE000
FC0FE000
FC0FE000
FC0FE000
FC0FE000
FC0FE000
FC0FFF00
FFFFFFC0
FFFFFFF0
FFFFFFF0
FFFFFFF8
FFFFE3F8
FC0FE1F8
FC0FE1F8
FC0FE1F8
FC0FE1F8
FC0FE3F8
FC0FFFF8
FC0FFFF0
FC0FFFF0
FC0FFFC0
FC0FFF00
ENDCHAR
STARTCHAR 040B
ENCODING 1035
SWIDTH 720 0
DWIDTH 26 0
BBX 23 24 1 0
BITMAP
FFFFE0
FFFFE0
FFFFE0
FFFFE0
FFFFE0
07F000
07F000
07F000
07F000
07FFC0
07FFF0
07FFF8
07FFFC
07FFFE
07F0FE
07F07E
07F07E
07F07E
07F07E
07F07E
07F07E
07F07E
07F07E
07F07E
ENDCHAR
STARTCHAR 040C
ENCODING 1036
SWIDTH 636 0
DWIDTH 23 0
BBX 20 33 3 1
BITMAP
000C00
001E00
007F00
00FF00
01FE00
01F800
00E000
004000
000000
FC01E0
FC07E0
FC0FE0
FC1FE0
FC1FE0
FC3FE0
FC7F00
FC7E00
FCFC00
FFFC00
FFF800
FFF800
FFFC00
FFFC00
FCFE00
FC7E00
FC7F00
FC3F00
FC3F80
FC1FC0
FC0FC0
FC0FE0
FC07E0
FC07F0
ENDCHAR
STARTCHAR 040D
ENCODING 1037
SWIDTH 692 0
DWIDTH 25 0
BBX 19 33 3 1
BITMAP
060000
0F8000
1FC000
1FE000
0FF000
03F000
00E000
004000
000000
FC0FE0
FC0FE0
FC1FE0
FC1FE0
FC3FE0
FC3FE0
FC7FE0
FC7FE0
FCFBE0
FCFBE0
FDFFE0
F9F7E0
F9F7E0
FBE7E0
FBE7E0
FFC7E0
FFC7E0
FF87E0
FF87E0
FF07E0
FF07E0
FE07E0
FE07E0
FC07E0
ENDCHAR
STARTCHAR 040E
ENCODING 1038
SWIDTH 581 0
DWIDTH 21 0
BBX 21 31 0 0
BITMAP
0F8FC0
0FCF80
07FF80
07FF00
01FC00
000000
000000
FE03F8
7E03F0
7F03F0
3F07E0
3F07E0
1F87E0
1F8FC0
1F8FC0
0FCF80
0FDF80
07DF80
07FF00
03FF00
03FE00
01FE00
01FE00
00FC00
00FC00
0FFC00
0FF800
1FF000
1FF000
1FE000
1F8000
ENDCHAR
STARTCHAR 040F
ENCODING 1039
SWIDTH 664 0
DWIDTH 24 0
BBX 19 31 3 -7
BITMAP
FC0FE0
FC0FE0
FC0FE0
FC0FE0
FC0FE0
FC0FE0
FC0FE0
FC0FE0
FC0FE0
FC0FE0
FC0FE0
FC0FE0
FC0FE0
FC0FE0
FC0FE0
FC0FE0
FC0FE0
FC0FE0
FC0FE0
FFFFE0
FFFFE0
FFFFE0
FFFFE0
FFFFE0
03F000
03F000
03F000
03F000
03F000
03F000
03F000
ENDCHAR
STARTCHAR 0410
ENCODING 1040
SWIDTH 581 0
DWIDTH 21 0
BBX 21 24 0 0
BITMAP
01FC00
03FE00
03FE00
03FE00
07FF00
07DF00
07DF00
07DF80
0FDF80
0F8F80
0F8F80
1F8FC0
1F8FC0
1F0FC0
3FFFE0
3FFFE0
3FFFE0
3FFFF0
7FFFF0
7E03F0
7E03F0
FE03F8
FC01F8
FC01F8
ENDCHAR
STARTCHAR 0411
ENCODING 1041
SWIDTH 609 0
DWIDTH 22 0
BBX 18 24 3 0
BITMAP
FFFF00
FFFF00
FFFF00
FFFF00
FFFF00
FC0000
FC0000
FC0000
FC0000
FFF800
FFFE00
FFFF00
FFFF80
FFFF80
FC1FC0
FC0FC0
FC0FC0
FC1FC0
FC1F80
FFFF80
FFFF80
FFFF00
FFFE00
FFF000
ENDCHAR
STARTCHAR 0412
ENCODING 1042
SWIDTH 609 0
DWIDTH 22 0
BBX 18 24 3 0
BITMAP
FFF800
FFFE00
FFFF00
FFFF80
FFFF80
FC3F80
FC1F80
FC1F80
FC3F00
FFFF00
FFFE00
FFFC00
FFFF00
FFFF80
FC1FC0
FC0FC0
FC0FC0
FC0FC0
FC1FC0
FFFFC0
FFFF80
FFFF00
FFFE00
FFF800
ENDCHAR
STARTCHAR 0413
ENCODING 1043
SWIDTH 526 0
DWIDTH 19 0
BBX 15 24 3 0
BITMAP
FFFE
FFFE
FFFE
FFFE
FFFE
FC00
FC00
FC00
FC00
FC00
FC00
FC00
FC00
FC00
FC00
FC00
FC00
FC00
FC00
FC00
FC00
FC00
FC00
FC00
ENDCHAR
STARTCHAR 0414
ENCODING 1044
SWIDTH 692 0
DWIDTH 25 0
BBX 24 31 0 -7
BITMAP
01FFF8
03FFF8
03FFF8
03FFF8
03FFF8
03E1F8
03E1F8
07E1F8
07E1F8
07E1F8
07C1F8
07C1F8
0FC1F8
0FC1F8
0FC1F8
0F81F8
1F81F8
1F81F8
3F01F8
FFFFFF
FFFFFF
FFFFFF
FFFFFF
FFFFFF
FC003F
FC003F
FC003F
7C003F
7C003F
7C003F
7C003F
ENDCHAR
STARTCHAR 0415
ENCODING 1045
SWIDTH 553 0
DWIDTH 20 0
BBX 15 24 3 0
BITMAP
FFFE
FFFE
FFFE
FFFE
FFFE
FC00
FC00
FC00
FC00
FFF8
FFF8
FFF8
FFF8
FFF8
FC00
FC00
FC00
FC00
FC00
FFFE
FFFE
FFFE
FFFE
FFFE
ENDCHAR
STARTCHAR 0416
ENCODING 1046
SWIDTH 886 0
DWIDTH 32 0
BBX 32 24 0 0
BITMAP
F807E01F
FE07E07F
7F07E0FF
7F87E0FE
7F87E1FE
7FC7E3FE
0FC7E3F0
07E7E7E0
07E7E7E0
03FFFFC0
03FFFFC0
01FFFFC0
03FFFFC0
07FFFFE0
07E7E7E0
0FC7E3F0
0FC7E3F0
1FC7E1F8
1F87E1F8
3F87E0FC
3F07E0FC
7F07E0FE
7E07E07E
FE07E07F
ENDCHAR
STARTCHAR 0417
ENCODING 1047
SWIDTH 581 0
DWIDTH 21 0
BBX 18 24 1 0
BITMAP
07F800
1FFE00
7FFF00
7FFF80
3FFF80
1F7F80
081F80
001F80
001F80
03FF00
03FF00
03FE00
03FF80
03FF80
001FC0
000FC0
000FC0
180FC0
3E3FC0
7FFFC0
FFFF80
7FFF00
1FFE00
07F800
ENDCHAR
STARTCHAR 0418
ENCODING 1048
SWIDTH 692 0
DWIDTH 25 0
BBX 19 24 3 0
BITMAP
FC0FE0
FC0FE0
FC1FE0
FC1FE0
FC3FE0
FC3FE0
FC7FE0
FC7FE0
FCFBE0
FCFBE0
FDFFE0
F9F7E0
F9F7E0
FBE7E0
FBE7E0
FFC7E0
FFC7E0
FF87E0
FF87E0
FF07E0
FF07E0
FE07E0
FE07E0
FC07E0
ENDCHAR
STARTCHAR 0419
ENCODING 1049
SWIDTH 692 0
DWIDTH 25 0
BBX 19 31 3 0
BITMAP
1F1F00
1F1F00
1FFF00
0FFE00
03F800
000000
000000
FC0FE0
FC0FE0
FC1FE0
FC1FE0
FC3FE0
FC3FE0
FC7FE0
FC7FE0
FCFBE0
FCFBE0
FDFFE0
F9F7E0
F9F7E0
FBE7E0
FBE7E0
FFC7E0
FFC7E0
FF87E0
FF87E0
FF07E0
FF07E0
FE07E0
FE07E0
FC07E0
ENDCHAR
STARTCHAR 041A
ENCODING 1050
SWIDTH 636 0
DWIDTH 23 0
BBX 20 24 3 0
BITMAP
FC01E0
FC07E0
FC0FE0
FC1FE0
FC1FE0
FC3FE0
FC7F00
FC7E00
FCFC00
FFFC00
FFF800
FFF800
FFFC00
FFFC00
FCFE00
FC7E00
FC7F00
FC3F00
FC3F80
FC1FC0
FC0FC0
FC0FE0
FC07E0
FC07F0
ENDCHAR
STARTCHAR 041B
ENCODING 1051
SWIDTH 664 0
DWIDTH 24 0
BBX 22 24 0 0
BITMAP
01FFFC
01FFFC
01FFFC
03FFFC
03FFFC
03F1FC
03F1FC
03E1FC
03E1FC
07E1FC
07E1FC
07E1FC
07E1FC
07C1FC
0FC1FC
0FC1FC
0FC1FC
1F81FC
FF81FC
FF81FC
FF01FC
FF01FC
FE01FC
F801FC
ENDCHAR
STARTCHAR 041C
ENCODING 1052
SWIDTH 775 0
DWIDTH 28 0
BBX 22 24 3 0
BITMAP
FC00FC
FE01FC
FE01FC
FF01FC
FF03FC
FF03FC
FF87FC
FF87FC
F787BC
FFCFFC
FFCFFC
FBCF7C
FBEF7C
FBFF7C
F9FE7C
F9FE7C
F9FE7C
F8FC7C
F8FC7C
F8FC7C
F8787C
F8787C
F8007C
F8007C
ENDCHAR
STARTCHAR 041D
ENCODING 1053
SWIDTH 692 0
DWIDTH 25 0
BBX 19 24 3 0
BITMAP
FC07E0
FC07E0
FC07E0
FC07E0
FC07E0
FC07E0
FC07E0
FC07E0
FC07E0
FFFFE0
FFFFE0
FFFFE0
FFFFE0
FFFFE0
FC07E0
FC07E0
FC07E0
FC07E0
FC07E0
FC07E0
FC07E0
FC07E0
FC07E0
FC07E0
ENDCHAR
STARTCHAR 041E
ENCODING 1054
SWIDTH 692 0
DWIDTH 25 0
BBX 21 24 2 0
BITMAP
01FC00
07FF00
1FFFC0
3FFFE0
3FFFE0
7FDFF0
7F07F8
FE03F8
FC01F8
FC01F8
FC01F8
FC01F8
FC01F8
FC01F8
FC01F8
FE01F8
FE03F8
7F07F0
7FDFF0
3FFFE0
3FFFE0
1FFFC0
07FF00
01FC00
ENDCHAR
STARTCHAR 041F
ENCODING 1055
SWIDTH 664 0
DWIDTH 24 0
BBX 19 24 3 0
BITMAP
FFFFE0
FFFFE0
FFFFE0
FFFFE0
FFFFE0
FC0FE0
FC0FE0
FC0FE0
FC0FE0
FC0FE0
FC0FE0
FC0FE0
FC0FE0
FC0FE0
FC0FE0
FC0FE0
FC0FE0
FC0FE0
FC0FE0
FC0FE0
FC0FE0
FC0FE0
FC0FE0
FC0FE0
ENDCHAR
STARTCHAR 0420
ENCODING 1056
SWIDTH 609 0
DWIDTH 22 0
BBX 18 24 3 0
BITMAP
FFF000
FFFE00
FFFF00
FFFF80
FFFF80
FC3F80
FC1FC0
FC0FC0
FC0FC0
FC1FC0
FC3F80
FFFF80
FFFF00
FFFE00
FFFC00
FFF000
FC0000
FC0000
FC0000
FC0000
FC0000
FC0000
FC0000
FC0000
ENDCHAR
STARTCHAR 0421
ENCODING 1057
SWIDTH 581 0
DWIDTH 21 0
BBX 18 24 2 0
BITMAP
00FC00
07FF00
0FFFC0
1FFFC0
3FFF80
7FCF00
7F0200
FE0000
FE0000
FC0000
FC0000
FC0000
FC0000
FC0000
FC0000
FE0000
FE0000
7F0300
7FCF80
3FFFC0
3FFFC0
1FFFC0
07FF00
01FC00
ENDCHAR
STARTCHAR 0422
ENCODING 1058
SWIDTH 553 0
DWIDTH 20 0
BBX 18 24 1 0
BITMAP
FFFFC0
FFFFC0
FFFFC0
FFFFC0
FFFFC0
03F000
03F000
03F000
03F000
03F000
03F000
03F000
03F000
03F000
03F000
03F000
03F000
03F000
03F000
03F000
03F000
03F000
03F000
03F000
ENDCHAR
STARTCHAR 0423
ENCODING 1059
SWIDTH 581 0
DWIDTH 21 0
BBX 21 24 0 0
BITMAP
FE03F8
7E03F0
7F03F0
3F07E0
3F07E0
1F87E0
1F8FC0
1F8FC0
0FCF80
0FDF80
07DF80
07FF00
03FF00
03FE00
01FE00
01FE00
00FC00
00FC00
0FFC00
0FF800
1FF000
1FF000
1FE000
1F8000
ENDCHAR
STARTCHAR 0424
ENCODING 1060
SWIDTH 775 0
DWIDTH 28 0
BBX 24 24 2 0
BITMAP
007E00
007E00
007E00
03FFC0
0FFFF0
3FFFFC
7FFFFE
7FFFFE
FE7E7F
FC7E3F
FC7E3F
F87E1F
F87E1F
FC7E3F
FC7E3F
FE7E7F
7FFFFE
7FFFFE
3FFFFC
0FFFF0
03FFC0
007E00
007E00
007E00
ENDCHAR
STARTCHAR 0425
ENCODING 1061
SWIDTH 581 0
DWIDTH 21 0
BBX 20 24 1 0
BITMAP
FE07E0
FE0FE0
7F0FC0
7F0FC0
3F9F80
1F9F80
1F9F00
0FFF00
0FFE00
07FE00
07FC00
03FC00
07FC00
07FC00
0FFE00
0FFE00
1FBF00
1FBF00
3F1F80
3F1F80
7E1FC0
7E0FE0
FE0FE0
FC07F0
ENDCHAR
STARTCHAR 0426
ENCODING 1062
SWIDTH 692 0
DWIDTH 25 0
BBX 21 31 3 -7
BITMAP
FC0FC0
FC0FC0
FC0FC0
FC0FC0
FC0FC0
FC0FC0
FC0FC0
FC0FC0
FC0FC0
FC0FC0
FC0FC0
FC0FC0
FC0FC0
FC0FC0
FC0FC0
FC0FC0
FC0FC0
FC0FC0
FC0FC0
FFFFF8
FFFFF8
FFFFF8
FFFFF8
FFFFF8
0001F8
0001F8
0001F8
0001F8
0001F8
0001F8
0001F8
ENDCHAR
STARTCHAR 0427
ENCODING 1063
SWIDTH 636 0
DWIDTH 23 0
BBX 19 24 2 0
BITMAP
FC0FE0
FC0FE0
FC0FE0
FC0FE0
FC0FE0
FC0FE0
FC0FE0
FC0FE0
FE0FE0
7F0FE0
7FFFE0
7FFFE0
3FFFE0
1FFFE0
03FFE0
000FE0
000FE0
000FE0
000FE0
000FE0
000FE0
000FE0
000FE0
000FE0
ENDCHAR
STARTCHAR 0428
ENCODING 1064
SWIDTH 941 0
DWIDTH 34 0
BBX 28 24 3 0
BITMAP
FC1F83F0
FC1F83F0
FC1F83F0
FC1F83F0
FC1F83F0
FC1F83F0
FC1F83F0
FC1F83F0
FC1F83F0
FC1F83F0
FC1F83F0
FC1F83F0
FC1F83F0
FC1F83F0
FC1F83F0
FC1F83F0
FC1F83F0
FC1F83F0
FC1F83F0
FFFFFFF0
FFFFFFF0
FFFFFFF0
FFFFFFF0
FFFFFFF0
ENDCHAR
STARTCHAR 0429
ENCODING 1065
SWIDTH 941 0
DWIDTH 34 0
BBX 31 31 3 -7
BITMAP
FC1F83F0
FC1F83F0
FC1F83F0
FC1F83F0
FC1F83F0
FC1F83F0
FC1F83F0
FC1F83F0
FC1F83F0
FC1F83F0
FC1F83F0
FC1F83F0
FC1F83F0
FC1F83F0
FC1F83F0
FC1F83F0
FC1F83F0
FC1F83F0
FC1F83F0
FFFFFFFE
FFFFFFFE
FFFFFFFE
FFFFFFFE
FFFFFFFE
0000007E
0000007E
0000007E
0000007E
0000007C
0000007C
0000007C
ENDCHAR
STARTCHAR 042A
ENCODING 1066
SWIDTH 747 0
DWIDTH 27 0
BBX 24 24 1 0
BITMAP
FFF800
FFF800
FFF800
FFF800
FFF800
03F800
03F800
03F800
03FFC0
03FFF8
03FFFC
03FFFE
03FFFF
03F87F
03F83F
03F83F
03F83F
03F83F
03F87F
03FFFF
03FFFE
03FFFC
03FFF8
03FFE0
ENDCHAR
STARTCHAR 042B
ENCODING 1067
SWIDTH 886 0
DWIDTH 32 0
BBX 26 24 3 0
BITMAP
FC000FC0
FC000FC0
FC000FC0
FC000FC0
FC000FC0
FC000FC0
FC000FC0
FC000FC0
FFE00FC0
FFFC0FC0
FFFE0FC0
FFFF0FC0
FFFF0FC0
FC3F8FC0
FC1F8FC0
FC1F8FC0
FC1F8FC0
FC1F8FC0
FC3F8FC0
FFFF0FC0
FFFF0FC0
FFFE0FC0
FFFC0FC0
FFE00FC0
ENDCHAR
STARTCHAR 042C
ENCODING 1068
SWIDTH 609 0
DWIDTH 22 0
BBX 18 24 3 0
BITMAP
FC0000
FC0000
FC0000
FC0000
FC0000
FC0000
FC0000
FC0000
FFF000
FFFE00
FFFF00
FFFF80
FFFF80
FC3F80
FC1FC0
FC0FC0
FC0FC0
FC1FC0
FC3F80
FFFF80
FFFF80
FFFF00
FFFE00
FFF000
ENDCHAR
STARTCHAR 042D
ENCODING 1069
SWIDTH 581 0
DWIDTH 21 0
BBX 19 24 1 0
BITMAP
07E000
3FFC00
7FFE00
FFFF00
7FFF80
3E7F80
101FC0
000FC0
000FC0
07FFC0
07FFE0
07FFE0
07FFE0
07FFE0
000FC0
000FC0
000FC0
301FC0
7C7F80
7FFF80
FFFF00
7FFE00
3FF800
0FE000
ENDCHAR
STARTCHAR 042E
ENCODING 1070
SWIDTH 969 0
DWIDTH 35 0
BBX 30 24 3 0
BITMAP
FC00FE00
FC03FFC0
FC07FFE0
FC0FFFF0
FC1FFFF0
FC3FEFF8
FC3F83F8
FC3F01FC
FC3F01FC
FFFF00FC
FFFE00FC
FFFE00FC
FFFE00FC
FFFF00FC
FC7F00FC
FC3F01FC
FC3F01FC
FC3F83F8
FC3FEFF8
FC1FFFF0
FC0FFFF0
FC07FFE0
FC03FF80
FC00FE00
ENDCHAR
STARTCHAR 042F
ENCODING 1071
SWIDTH 636 0
DWIDTH 23 0
BBX 19 24 1 0
BITMAP
03FFE0
0FFFE0
1FFFE0
3FFFE0
7FFFE0
7F07E0
7E07E0
7E07E0
7E07E0
7E07E0
7F87E0
3FFFE0
3FFFE0
1FFFE0
0FFFE0
07FFE0
0FE7E0
1FC7E0
1F87E0
3F87E0
3F07E0
7F07E0
FE07E0
FE07E0
ENDCHAR
STARTCHAR 0430
ENCODING 1072
SWIDTH 526 0
DWIDTH 19 0
BBX 16 18 1 0
BITMAP
07F0
1FFC
7FFE
3FFE
3FFF
183F
003F
03FF
1FFF
3FFF
7F3F
7C3F
FC3F
FFFF
7FFF
7FFF
3FDF
1F1F
ENDCHAR
STARTCHAR 0431
ENCODING 1073
SWIDTH 581 0
DWIDTH 21 0
BBX 18 26 1 1
BITMAP
003F80
01FF80
07FF80
0FFF80
1FFF80
3FFE00
3FC000
7F0000
7E0000
7EFE00
7FFF00
7FFF80
FFFF80
FF1FC0
FE1FC0
FC0FC0
7C0FC0
7C0FC0
7E0FC0
7E1FC0
7F1FC0
3FFF80
3FFF00
1FFF00
0FFC00
03F000
ENDCHAR
STARTCHAR 0432
ENCODING 1074
SWIDTH 526 0
DWIDTH 19 0
BBX 16 18 2 0
BITMAP
FFF0
FFFC
FFFE
FFFE
FC7F
FC3E
FC7E
FFFC
FFF8
FFFC
FFFF
FC3F
FC3F
FC3F
FFFF
FFFE
FFFC
FFF0
ENDCHAR
STARTCHAR 0433
ENCODING 1075
SWIDTH 443 0
DWIDTH 16 0
BBX 13 18 2 0
BITMAP
FFF8
FFF8
FFF8
FFF8
FFF8
FC00
FC00
FC00
FC00
FC00
FC00
FC00
FC00
FC00
FC00
FC00
FC00
FC00
ENDCHAR
STARTCHAR 0434
ENCODING 1076
SWIDTH 609 0
DWIDTH 22 0
BBX 22 24 0 -6
BITMAP
0FFFE0
0FFFE0
0FFFE0
0FFFE0
0FFFE0
0F8FE0
1F8FE0
1F8FE0
1F8FE0
1F8FE0
1F0FE0
1F0FE0
3F0FE0
FFFFFC
FFFFFC
FFFFFC
FFFFFC
FFFFFC
FC00F8
FC00F8
7C00F8
7C00F8
7C00F8
7C00F8
ENDCHAR
STARTCHAR 0435
ENCODING 1077
SWIDTH 526 0
DWIDTH 19 0
BBX 17 18 1 0
BITMAP
03F000
0FFC00
1FFE00
3FFF00
7FFF00
7E1F00
7C1F80
FFFF80
FFFF80
FFFF80
FFFF80
FC0000
7E0000
7FFE00
3FFE00
1FFF00
0FFE00
03F800
ENDCHAR
STARTCHAR 0436
ENCODING 1078
SWIDTH 803 0
DWIDTH 29 0
BBX 28 18 0 0
BITMAP
7C0F81E0
7E0F87E0
3F0F8FE0
3F8F8FE0
3F8F9FE0
3FCF9FE0
0FCFBF00
07FFFF00
07FFFE00
03FFFE00
07FFFE00
0FFFFF00
0FCF9F80
1F8F9F80
3F8F8FC0
3F0F8FE0
7F0F87E0
FE0F87F0
ENDCHAR
STARTCHAR 0437
ENCODING 1079
SWIDTH 470 0
DWIDTH 17 0
BBX 15 18 1 0
BITMAP
1FE0
7FF8
7FFC
7FFC
3FFE
207E
00FC
0FFC
0FF0
0FFC
0FFE
007E
207E
7FFE
7FFE
FFFC
7FF8
1FC0
ENDCHAR
STARTCHAR 0438
ENCODING 1080
SWIDTH 581 0
DWIDTH 21 0
BBX 17 18 2 0
BITMAP
FC1F80
FC1F80
FC3F80
FC3F80
FC7F80
FCFF80
FCFF80
FDFF80
FDEF80
FFEF80
FFDF80
FFDF80
FF9F80
FF1F80
FF1F80
FE1F80
FE1F80
FC1F80
ENDCHAR
STARTCHAR 0439
ENCODING 1081
SWIDTH 581 0
DWIDTH 21 0
BBX 17 27 2 0
BITMAP
3E1E00
1E3E00
1F3E00
1FFC00
0FFC00
03F000
000000
000000
000000
FC1F80
FC1F80
FC3F80
FC3F80
FC7F80
FCFF80
FCFF80
FDFF80
FDEF80
FFEF80
FFDF80
FFDF80
FF9F80
FF1F80
FF1F80
FE1F80
FE1F80
FC1F80
ENDCHAR
STARTCHAR 043A
ENCODING 1082
SWIDTH 553 0
DWIDTH 20 0
BBX 18 18 2 0
BITMAP
FC0F80
FC1F00
FC3F00
FC7F00
FC7F00
FCFF00
FCFC00
FFF800
FFF000
FFF000
FFF800
FFFC00
FCFC00
FC7E00
FC7F00
FC3F00
FC3F80
FC1FC0
ENDCHAR
STARTCHAR 043B
ENCODING 1083
SWIDTH 581 0
DWIDTH 21 0
BBX 19 18 0 0
BITMAP
07FFE0
07FFE0
07FFE0
07FFE0
07FFE0
0FC7E0
0FC7E0
0FC7E0
0FC7E0
0F87E0
0F87E0
1F87E0
7F87E0
7F87E0
7F07E0
7F07E0
FE07E0
F807E0
ENDCHAR
STARTCHAR 043C
ENCODING 1084
SWIDTH 664 0
DWIDTH 24 0
BBX 20 18 2 0
BITMAP
FE07F0
FF07F0
FF0FF0
FF0FF0
FF8FF0
FF9FF0
FF9FF0
FFDFF0
FBDDF0
FBFDF0
FBFDF0
F9F9F0
F9F9F0
FDF9F0
FCF1F0
FCF1F0
FCF1F0
FC01F0
ENDCHAR
STARTCHAR 043D
ENCODING 1085
SWIDTH 581 0
DWIDTH 21 0
BBX 17 18 2 0
BITMAP
FC1F80
FC1F80
FC1F80
FC1F80
FC1F80
FC1F80
FFFF80
FFFF80
FFFF80
FFFF80
FFFF80
FC1F80
FC1F80
FC1F80
FC1F80
FC1F80
FC1F80
FC1F80
ENDCHAR
STARTCHAR 043E
ENCODING 1086
SWIDTH 553 0
DWIDTH 20 0
BBX 18 18 1 0
BITMAP
03F000
0FFC00
1FFE00
3FFF00
7FFF80
7F1F80
7E1FC0
FE0FC0
FE0FC0
FE0FC0
FE0FC0
FE1FC0
7F1F80
7FFF80
3FFF00
1FFE00
0FFC00
03F000
ENDCHAR
STARTCHAR 043F
ENCODING 1087
SWIDTH 581 0
DWIDTH 21 0
BBX 17 18 2 0
BITMAP
FFFF80
FFFF80
FFFF80
FFFF80
FFFF80
FC1F80
FC1F80
FC1F80
FC1F80
FC1F80
FC1F80
FC1F80
FC1F80
FC1F80
FC1F80
FC1F80
FC1F80
FC1F80
ENDCHAR
STARTCHAR 0440
ENCODING 1088
SWIDTH 581 0
DWIDTH 21 0
BBX 18 25 2 -7
BITMAP
F8F800
F9FE00
FFFF00
FFFF00
FFFF80
FE3F80
FC1FC0
FC1FC0
FC1FC0
FC1FC0
FC1FC0
FC1F80
FE3F80
FFFF80
FFFF00
FFFE00
FFFC00
FCF800
FC0000
FC0000
FC0000
FC0000
FC0000
FC0000
FC0000
ENDCHAR
STARTCHAR 0441
ENCODING 1089
SWIDTH 470 0
DWIDTH 17 0
BBX 15 18 1 0
BITMAP
01F8
0FFE
1FFE
3FFC
7FF8
7F00
7E00
FE00
FE00
FE00
FE00
FE00
7F08
7FFC
3FFC
1FFE
0FFC
03F0
ENDCHAR
STARTCHAR 0442
ENCODING 1090
SWIDTH 498 0
DWIDTH 18 0
BBX 16 18 1 0
BITMAP
FFFF
FFFF
FFFF
FFFF
FFFF
07E0
07E0
07E0
07E0
07E0
07E0
07E0
07E0
07E0
07E0
07E0
07E0
07E0
ENDCHAR
STARTCHAR 0443
ENCODING 1091
SWIDTH 553 0
DWIDTH 20 0
BBX 18 25 1 -7
BITMAP
FC0FC0
FC0FC0
FC0F80
7E1F80
7E1F80
3E1F00
3F1F00
3F3F00
1F3E00
1FBE00
0FBE00
0FFC00
0FFC00
07FC00
07F800
07F800
03F800
03F000
03F000
07E000
3FE000
3FC000
3FC000
7F8000
7E0000
ENDCHAR
STARTCHAR 0444
ENCODING 1092
SWIDTH 803 0
DWIDTH 29 0
BBX 26 33 1 -7
BITMAP
003F0000
003F0000
003F0000
003F0000
003F0000
003F0000
003F0000
003F0000
07DF3C00
0FFFFF00
3FFFFF80
3FFFFF80
7FFFFFC0
7F3F1FC0
7E1F0FC0
FE1F0FC0
FE1F0FC0
FE1F0FC0
FE1F0FC0
7E1F0FC0
7F3F1FC0
7FFFFFC0
3FFFFF80
3FFFFF00
1FFFFE00
079F7C00
003F0000
003F0000
003F0000
003F0000
003F0000
003F0000
003F0000
ENDCHAR
STARTCHAR 0445
ENCODING 1093
SWIDTH 553 0
DWIDTH 20 0
BBX 18 18 1 0
BITMAP
FE1F80
7E1F80
7F3F00
3F3F00
3FBE00
1FFE00
0FFC00
0FFC00
07F800
0FF800
0FF800
1FFC00
1FFE00
3F7E00
3E7F00
7E3F00
FE3F80
FC1FC0
ENDCHAR
STARTCHAR 0446
ENCODING 1094
SWIDTH 609 0
DWIDTH 22 0
BBX 20 24 2 -6
BITMAP
FC1F80
FC1F80
FC1F80
FC1F80
FC1F80
FC1F80
FC1F80
FC1F80
FC1F80
FC1F80
FC1F80
FC1F80
FC1F80
FFFFF0
FFFFF0
FFFFF0
FFFFF0
FFFFF0
0003F0
0003F0
0003E0
0003E0
0003E0
0003E0
ENDCHAR
STARTCHAR 0447
ENCODING 1095
SWIDTH 553 0
DWIDTH 20 0
BBX 16 18 2 0
BITMAP
FC3F
FC3F
FC3F
FC3F
FC3F
FC3F
FC3F
FE3F
FFFF
FFFF
7FFF
3FFF
0FFF
003F
003F
003F
003F
003F
ENDCHAR
STARTCHAR 0448
ENCODING 1096
SWIDTH 830 0
DWIDTH 30 0
BBX 26 18 2 0
BITMAP
FC3F0FC0
FC3F0FC0
FC3F0FC0
FC3F0FC0
FC3F0FC0
FC3F0FC0
FC3F0FC0
FC3F0FC0
FC3F0FC0
FC3F0FC0
FC3F0FC0
FC3F0FC0
FC3F0FC0
FFFFFFC0
FFFFFFC0
FFFFFFC0
FFFFFFC0
FFFFFFC0
ENDCHAR
STARTCHAR 0449
ENCODING 1097
SWIDTH 858 0
DWIDTH 31 0
BBX 29 24 2 -6
BITMAP
FC3F0FC0
FC3F0FC0
FC3F0FC0
FC3F0FC0
FC3F0FC0
FC3F0FC0
FC3F0FC0
FC3F0FC0
FC3F0FC0
FC3F0FC0
FC3F0FC0
FC3F0FC0
FC3F0FC0
FFFFFFF8
FFFFFFF8
FFFFFFF8
FFFFFFF8
FFFFFFF8
000001F8
000001F0
000001F0
000001F0
000001F0
000001F0
ENDCHAR
STARTCHAR 044A
ENCODING 1098
SWIDTH 636 0
DWIDTH 23 0
BBX 21 18 1 0
BITMAP
FFE000
FFE000
FFE000
FFE000
FFE000
07F800
07FFC0
07FFE0
07FFF0
07FFF0
07E3F8
07E1F8
07E1F8
07FFF0
07FFF0
07FFF0
07FFE0
07FF00
ENDCHAR
STARTCHAR 044B
ENCODING 1099
SWIDTH 775 0
DWIDTH 28 0
BBX 23 18 2 0
BITMAP
FC007E
FC007E
FC007E
FC007E
FC007E
FF007E
FFF07E
FFFC7E
FFFC7E
FFFE7E
FC7E7E
FC7E7E
FC7E7E
FFFE7E
FFFE7E
FFFC7E
FFF87E
FFE07E
ENDCHAR
STARTCHAR 044C
ENCODING 1100
SWIDTH 526 0
DWIDTH 19 0
BBX 16 18 2 0
BITMAP
FC00
FC00
FC00
FC00
FC00
FF00
FFF8
FFFC
FFFE
FFFE
FC7F
FC3F
FC3F
FFFF
FFFE
FFFE
FFFC
FFE0
ENDCHAR
STARTCHAR 044D
ENCODING 1101
SWIDTH 470 0
DWIDTH 17 0
BBX 15 18 1 0
BITMAP
1F80
7FE0
FFF0
7FF8
3FFC
00FC
007E
1FFE
1FFE
1FFE
1FFE
007E
00FC
7FFC
7FF8
FFF0
FFE0
3F80
ENDCHAR
STARTCHAR 044E
ENCODING 1102
SWIDTH 803 0
DWIDTH 29 0
BBX 25 18 2 0
BITMAP
FC03F000
FC0FFC00
FC1FFE00
FC3FFF00
FC7FFF00
FC7E3F80
FFFE1F80
FFFC1F80
FFFC1F80
FFFC1F80
FFFC1F80
FC7E1F80
FC7E3F80
FC7FFF00
FC3FFF00
FC1FFE00
FC0FFC00
FC03F000
ENDCHAR
STARTCHAR 044F
ENCODING 1103
SWIDTH 553 0
DWIDTH 20 0
BBX 17 18 1 0
BITMAP
07FF80
1FFF80
3FFF80
3FFF80
7FFF80
7E1F80
7E1F80
7E1F80
7F1F80
3FFF80
1FFF80
0FFF80
1FFF80
1F9F80
3F1F80
7F1F80
FE1F80
FC1F80
ENDCHAR
STARTCHAR 0450
ENCODING 1104
SWIDTH 526 0
DWIDTH 19 0
BBX 17 30 1 0
BITMAP
040000
0E0000
1F0000
3F0000
3F8000
1FC000
0FE000
07C000
038000
000000
000000
000000
03F000
0FFC00
1FFE00
3FFF00
7FFF00
7E1F00
7C1F80
FFFF80
FFFF80
FFFF80
FFFF80
FC0000
7E0000
7FFE00
3FFE00
1FFF00
0FFE00
03F800
ENDCHAR
STARTCHAR 0451
ENCODING 1105
SWIDTH 526 0
DWIDTH 19 0
BBX 17 26 1 0
BITMAP
0C0C00
3E1E00
3F3F00
3F3F00
3E3E00
1C1E00
000000
000000
03F000
0FFC00
1FFE00
3FFF00
7FFF00
7E1F00
7C1F80
FFFF80
FFFF80
FFFF80
FFFF80
FC0000
7E0000
7FFE00
3FFE00
1FFF00
0FFE00
03F800
ENDCHAR
STARTCHAR 0452
ENCODING 1106
SWIDTH 581 0
DWIDTH 21 0
BBX 20 33 0 -7
BITMAP
3F0000
3F0000
FFFC00
FFFC00
FFFC00
3F0000
3F0000
3F0000
3F0000
3F3F00
3F7F80
3FFFC0
3FFFE0
3FFFE0
3F8FE0
3F07F0
3F07F0
3F07F0
3F07F0
3F07F0
3F07F0
3F07F0
3F07F0
3F07F0
3F07E0
3F07E0
000FE0
000FE0
007FC0
007FC0
00FF80
00FF00
00FC00
ENDCHAR
STARTCHAR 0453
ENCODING 1107
SWIDTH 443 0
DWIDTH 16 0
BBX 14 30 2 0
BITMAP
0060
0070
00F8
01FC
03F8
07F0
07E0
03C0
0180
0000
0000
0000
FFF8
FFF8
FFF8
FFF8
FFF8
FC00
FC00
FC00
FC00
FC00
FC00
FC00
FC00
FC00
FC00
FC00
FC00
FC00
ENDCHAR
STARTCHAR 0454
ENCODING 1108
SWIDTH 470 0
DWIDTH 17 0
BBX 15 18 1 0
BITMAP
01F8
0FFE
1FFE
3FFC
7FF8
7E08
FC00
FFE0
FFE0
FFE0
FFE0
FC00
7E00
7FFC
3FFC
1FFE
0FFC
03F0
ENDCHAR
STARTCHAR 0455
ENCODING 1109
SWIDTH 443 0
DWIDTH 16 0
BBX 14 18 1 0
BITMAP
07E0
1FF8
3FFC
7FFC
7FF8
7C10
7F00
7FE0
3FF8
1FFC
07FC
00FC
307C
7FFC
FFFC
FFF8
7FF0
0FC0
ENDCHAR
STARTCHAR 0456
ENCODING 1110
SWIDTH 276 0
DWIDTH 10 0
BBX 7 26 2 0
BITMAP
7C
FC
FE
FE
FC
78
00
00
FC
FC
FC
FC
FC
FC
FC
FC
FC
FC
FC
FC
FC
FC
FC
FC
FC
FC
ENDCHAR
STARTCHAR 0457
ENCODING 1111
SWIDTH 276 0
DWIDTH 10 0
BBX 14 26 -2 0
BITMAP
7838
7C7C
FCFC
FCFC
7C7C
3038
0000
0000
0FC0
0FC0
0FC0
0FC0
0FC0
0FC0
0FC0
0FC0
0FC0
0FC0
0FC0
0FC0
0FC0
0FC0
0FC0
0FC0
0FC0
0FC0
ENDCHAR
STARTCHAR 0458
ENCODING 1112
SWIDTH 276 0
DWIDTH 10 0
BBX 11 33 -2 -7
BITMAP
07C0
0FC0
0FE0
0FE0
0FC0
0780
0000
0000
0FC0
0FC0
0FC0
0FC0
0FC0
0FC0
0FC0
0FC0
0FC0
0FC0
0FC0
0FC0
0FC0
0FC0
0FC0
0FC0
0FC0
0FC0
0FC0
0FC0
7FC0
7FC0
FF80
FF00
FC00
ENDCHAR
STARTCHAR 0459
ENCODING 1113
SWIDTH 803 0
DWIDTH 29 0
BBX 28 18 0 0
BITMAP
07FFE000
07FFE000
07FFE000
07FFE000
07FFE000
0FCFF000
0FCFFF80
0FCFFFC0
0FCFFFE0
0FCFFFE0
0FCFE7F0
0F8FE3F0
3F8FE7F0
7F8FFFE0
7F8FFFE0
7F0FFFC0
FE0FFF80
F80FFE00
ENDCHAR
STARTCHAR 045A
ENCODING 1114
SWIDTH 803 0
DWIDTH 29 0
BBX 26 18 2 0
BITMAP
FC3F8000
FC3F8000
FC3F8000
FC3F8000
FC3F8000
FC3FC000
FFFFFE00
FFFFFF00
FFFFFF80
FFFFFF80
FFFF9FC0
FC3F8FC0
FC3F8FC0
FC3FFF80
FC3FFF80
FC3FFF00
FC3FFE00
FC3FF800
ENDCHAR
STARTCHAR 045B
ENCODING 1115
SWIDTH 581 0
DWIDTH 21 0
BBX 19 26 0 0
BITMAP
3F0000
3F0000
FFFC00
FFFC00
FFFC00
3F0000
3F0000
3F0000
3F0000
3F3F00
3F7FC0
3FFFC0
3FFFE0
3FFFE0
3F8FE0
3F07E0
3F07E0
3F07E0
3F07E0
3F07E0
3F07E0
3F07E0
3F07E0
3F07E0
3F07E0
3F07E0
ENDCHAR
STARTCHAR 045C
ENCODING 1116
SWIDTH 553 0
DWIDTH 20 0
BBX 18 30 2 0
BITMAP
000800
001C00
003E00
007F00
00FF00
01FC00
01F800
00F000
006000
000000
000000
000000
FC0F80
FC1F00
FC3F00
FC7F00
FC7F00
FCFF00
FCFC00
FFF800
FFF000
FFF000
FFF800
FFFC00
FCFC00
FC7E00
FC7F00
FC3F00
FC3F80
FC1FC0
ENDCHAR
STARTCHAR 045D
ENCODING 1117
SWIDTH 581 0
DWIDTH 21 0
BBX 17 30 2 0
BITMAP
040000
0E0000
1F0000
7F8000
3FC000
1FC000
07E000
03C000
018000
000000
000000
000000
FC1F80
FC1F80
FC3F80
FC3F80
FC7F80
FCFF80
FCFF80
FDFF80
FDEF80
FFEF80
FFDF80
FFDF80
FF9F80
FF1F80
FF1F80
FE1F80
FE1F80
FC1F80
ENDCHAR
STARTCHAR 045E
ENCODING 1118
SWIDTH 553 0
DWIDTH 20 0
BBX 18 34 1 -7
BITMAP
1E1E00
1F3E00
1F3E00
1FFE00
0FFC00
03F000
000000
000000
000000
FC0FC0
FC0FC0
FC0F80
7E1F80
7E1F80
3E1F00
3F1F00
3F3F00
1F3E00
1FBE00
0FBE00
0FFC00
0FFC00
07FC00
07F800
07F800
03F800
03F000
03F000
07E000
3FE000
3FC000
3FC000
7F8000
7E0000
ENDCHAR
STARTCHAR 045F
ENCODING 1119
SWIDTH 581 0
DWIDTH 21 0
BBX 17 24 2 -6
BITMAP
FC1F80
FC1F80
FC1F80
FC1F80
FC1F80
FC1F80
FC1F80
FC1F80
FC1F80
FC1F80
FC1F80
FC1F80
FC1F80
FFFF80
FFFF80
FFFF80
FFFF80
FFFF80
03F000
03F000
03E000
03E000
03E000
03E000
ENDCHAR
STARTCHAR 0462
ENCODING 1122
SWIDTH 636 0
DWIDTH 23 0
BBX 20 25 1 0
BITMAP
0FC000
0FC000
0FC000
FFFFC0
FFFFC0
FFFFC0
FFFFC0
FFFFC0
0FC000
0FC000
0FC000
0FFF00
0FFFC0
0FFFE0
0FFFF0
0FC7F0
0FC3F0
0FC3F0
0FC3F0
0FC3F0
0FFFF0
0FFFE0
0FFFE0
0FFF80
0FFE00
ENDCHAR
STARTCHAR 0463
ENCODING 1123
SWIDTH 609 0
DWIDTH 22 0
BBX 20 23 1 0
BITMAP
0FC000
0FC000
0FC000
FFFF00
FFFF00
FFFF00
FFFF00
FFFF00
0FC000
0FC000
0FF000
0FFF80
0FFFC0
0FFFE0
0FFFF0
0FC7F0
0FC3F0
0FC3F0
0FFFF0
0FFFE0
0FFFE0
0FFFC0
0FFE00
ENDCHAR
STARTCHAR 0472
ENCODING 1138
SWIDTH 692 0
DWIDTH 25 0
BBX 21 24 2 0
BITMAP
01FC00
07FF80
1FFFC0
3FFFE0
7FFFF0
7F0FF0
FE03F8
FC03F8
FC01F8
FFFFF8
FFFFF8
FFFFF8
FFFFF8
FFFFF8
FC01F8
FC01F8
FE03F8
7E03F0
7F8FF0
3FFFE0
3FFFE0
1FFFC0
07FF00
01FC00
ENDCHAR
STARTCHAR 0473
ENCODING 1139
SWIDTH 553 0
DWIDTH 20 0
BBX 18 18 1 0
BITMAP
03F000
0FFC00
1FFF00
3FFF00
7FFF80
7E1F80
7C0FC0
FFFFC0
FFFFC0
FFFFC0
FFFFC0
FC0FC0
7E1F80
7FFF80
3FFF00
1FFF00
0FFC00
03F000
ENDCHAR
STARTCHAR 0474
ENCODING 1140
SWIDTH 581 0
DWIDTH 21 0
BBX 23 24 0 0
BITMAP
FC007E
FE00FC
FE01FC
7E03FC
7E03FC
7E07FC
7F07E0
3F07E0
3F07C0
3F0FC0
1F8FC0
1F8FC0
1F8F80
0F9F80
0FDF80
0FDF80
0FDF00
07DF00
07FF00
07FE00
03FE00
03FE00
03FE00
03FC00
ENDCHAR
STARTCHAR 0475
ENCODING 1141
SWIDTH 553 0
DWIDTH 20 0
BBX 20 18 1 0
BITMAP
FC03F0
FC07E0
FC0FE0
7C0FE0
7E1FE0
7E1FA0
3E3F00
3E3F00
3F3E00
1F3E00
1F3E00
1F7E00
0FFC00
0FFC00
0FFC00
07F800
07F800
07F800
ENDCHAR
STARTCHAR 0490
ENCODING 1168
SWIDTH 526 0
DWIDTH 19 0
BBX 15 30 3 0
BITMAP
003E
003E
003E
007E
007E
007E
FFFE
FFFE
FFFE
FFFE
FFFE
FC00
FC00
FC00
FC00
FC00
FC00
FC00
FC00
FC00
FC00
FC00
FC00
FC00
FC00
FC00
FC00
FC00
FC00
FC00
ENDCHAR
STARTCHAR 0491
ENCODING 1169
SWIDTH 443 0
DWIDTH 16 0
BBX 13 24 2 0
BITMAP
00F8
00F8
00F8
00F8
00F8
01F8
FFF8
FFF8
FFF8
FFF8
FFF8
FC00
FC00
FC00
FC00
FC00
FC00
FC00
FC00
FC00
FC00
FC00
FC00
FC00
ENDCHAR
STARTCHAR 0492
ENCODING 1170
SWIDTH 553 0
DWIDTH 20 0
BBX 18 24 1 0
BITMAP
1FFFC0
1FFFC0
1FFFC0
1FFFC0
1FFFC0
1F8000
1F8000
1F8000
1F8000
1F8000
1F8000
FFF800
FFF800
FFF800
1F8000
1F8000
1F8000
1F8000
1F8000
1F8000
1F8000
1F8000
1F8000
1F8000
ENDCHAR
STARTCHAR 0493
ENCODING 1171
SWIDTH 470 0
DWIDTH 17 0
BBX 15 18 1 0
BITMAP
3FFE
3FFE
3FFE
3FFE
3FFE
3F00
3F00
3F00
FFF8
FFF8
FFF8
3F00
3F00
3F00
3F00
3F00
3F00
3F00
ENDCHAR
STARTCHAR 0496
ENCODING 1174
SWIDTH 941 0
DWIDTH 34 0
BBX 33 31 0 -7
BITMAP
F807E01F00
FE07E07F00
7F07E0FF00
7F87E0FE00
7F87E1FE00
7FC7E3FE00
0FC7E3F000
07E7E7E000
07E7E7E000
03FFFFC000
03FFFFC000
01FFFFC000
03FFFFC000
07FFFFE000
07E7E7E000
0FC7E3F000
0FC7E3F000
1FC7E1F800
1F87E1F800
3F87E0FF80
3F07E0FF80
7F07E0FF80
7E07E07F80
FE07E07F80
0000001F80
0000001F80
0000001F80
0000001F80
0000001F80
0000001F80
0000001F80
ENDCHAR
STARTCHAR 0497
ENCODING 1175
SWIDTH 830 0
DWIDTH 30 0
BBX 30 24 0 -6
BITMAP
7C0F81E0
7F0F87E0
3F0F8FE0
3F8F8FE0
3FCF9FE0
3FCF9FC0
07FFFF00
07FFFE00
03FFFE00
07FFFE00
07FFFF00
0FCF9F00
1FCF9F80
1F8F8FFC
3F8F8FFC
3F0F87FC
7F0F87FC
FE0F83FC
000000FC
000000FC
000000FC
000000FC
000000F8
000000F8
ENDCHAR
STARTCHAR 0498
ENCODING 1176
SWIDTH 581 0
DWIDTH 21 0
BBX 17 31 2 -7
BITMAP
0FF000
3FFC00
FFFE00
FFFF00
7FFF00
3EFF00
103F00
003F00
003F00
07FE00
07FE00
07FC00
07FF00
07FF00
003F80
001F80
001F80
201F80
7C3F80
FFFF80
FFFF00
FFFF00
7FFC00
1FF000
07E000
07E000
07E000
07E000
07E000
07E000
07E000
ENDCHAR
STARTCHAR 0499
ENCODING 1177
SWIDTH 470 0
DWIDTH 17 0
BBX 15 24 1 -6
BITMAP
1FE0
7FF8
7FFC
7FFC
3FFE
207E
00FC
0FFC
0FF0
0FFC
0FFE
007E
007E
30FE
7FFE
FFFE
FFFC
7FF0
0FC0
0FC0
0FC0
0FC0
0FC0
07C0
ENDCHAR
STARTCHAR 049A
ENCODING 1178
SWIDTH 692 0
DWIDTH 25 0
BBX 21 31 3 -7
BITMAP
FC01E0
FC07E0
FC0FE0
FC1FE0
FC1FE0
FC3FE0
FC7F00
FC7E00
FCFC00
FFFC00
FFF800
FFF800
FFF800
FFFC00
FCFE00
FC7E00
FC7F00
FC3F00
FC3F80
FC1FF8
FC0FF8
FC0FF8
FC07F8
FC07F8
0001F8
0001F8
0001F8
0001F8
0001F8
0001F8
0001F8
ENDCHAR
STARTCHAR 049B
ENCODING 1179
SWIDTH 609 0
DWIDTH 22 0
BBX 20 24 2 -6
BITMAP
FC0F80
FC1F00
FC3F00
FC7F00
FC7F00
FCFF00
FFF800
FFF800
FFF000
FFF800
FFF800
FCFC00
FCFE00
FC7FF0
FC3FF0
FC3FF0
FC1FF0
FC1FF0
0003F0
0003E0
0003E0
0003E0
0003E0
0003E0
ENDCHAR
STARTCHAR 04A0
ENCODING 1184
SWIDTH 775 0
DWIDTH 28 0
BBX 27 24 1 0
BITMAP
FFF007C0
FFF01FC0
FFF03FC0
FFF03F80
FFF07F80
03F0FF80
03F0FC00
03F1F800
03F1F800
03FFF000
03FFF000
03FFE000
03FFF000
03FFF800
03F1F800
03F1FC00
03F0FC00
03F0FE00
03F07F00
03F03F00
03F03F80
03F01F80
03F01FC0
03F00FE0
ENDCHAR
STARTCHAR 04A1
ENCODING 1185
SWIDTH 664 0
DWIDTH 24 0
BBX 23 19 1 -1
BITMAP
FFE07C
FFE0F8
FFE1F8
FFE3F8
FFE3F8
07E7F8
07E7C0
07FFC0
07FF80
07FF80
07FFC0
07FFE0
07E7E0
07E7F0
07E3F0
07E1F8
07E1FC
07E0FC
07E0FE
ENDCHAR
STARTCHAR 04A2
ENCODING 1186
SWIDTH 692 0
DWIDTH 25 0
BBX 22 31 3 -7
BITMAP
FC07E0
FC07E0
FC07E0
FC07E0
FC07E0
FC07E0
FC07E0
FC07E0
FC07E0
FFFFE0
FFFFE0
FFFFE0
FFFFE0
FFFFE0
FC07E0
FC07E0
FC07E0
FC07E0
FC07E0
FC07FC
FC07FC
FC07FC
FC07FC
FC07FC
0000FC
0000FC
0000FC
0000FC
0000FC
0000FC
0000F8
ENDCHAR
STARTCHAR 04A3
ENCODING 1187
SWIDTH 609 0
DWIDTH 22 0
BBX 20 24 2 -6
BITMAP
FC1F80
FC1F80
FC1F80
FC1F80
FC1F80
FC1F80
FFFF80
FFFF80
FFFF80
FFFF80
FFFF80
FC1F80
FC1F80
FC1FF0
FC1FF0
FC1FF0
FC1FF0
FC1FF0
0003F0
0003F0
0003F0
0003F0
0003F0
0003F0
ENDCHAR
STARTCHAR 04AA
ENCODING 1194
SWIDTH 581 0
DWIDTH 21 0
BBX 18 31 2 -7
BITMAP
00FC00
07FF00
0FFFC0
1FFFC0
3FFF80
7FCF00
7F0200
FE0000
FE0000
FC0000
FC0000
FC0000
FC0000
FC0000
FC0000
FE0000
FE0000
FF0100
7F8780
7FFF80
3FFFC0
1FFFC0
0FFF80
03FE00
00FC00
00FC00
00FC00
00FC00
00FC00
00F800
00F800
ENDCHAR
STARTCHAR 04AB
ENCODING 1195
SWIDTH 470 0
DWIDTH 17 0
BBX 15 25 1 -7
BITMAP
01F8
0FFE
1FFE
3FFC
7FF8
7F00
7E00
FE00
FE00
FE00
FE00
FE00
7E00
7F08
7FFC
3FFC
1FFE
0FFC
03F0
03F0
03F0
03F0
03F0
03F0
03F0
ENDCHAR
STARTCHAR 04AE
ENCODING 1198
SWIDTH 553 0
DWIDTH 20 0
BBX 20 23 0 0
BITMAP
FE07F0
7E07E0
7E0FE0
7F0FC0
3F0FC0
3F1F80
1F9F80
1F9F00
0FBF00
0FFE00
07FE00
07FC00
03FC00
03FC00
03F800
01F800
01F800
01F800
01F800
01F800
01F800
01F800
01F800
ENDCHAR
STARTCHAR 04AF
ENCODING 1199
SWIDTH 553 0
DWIDTH 20 0
BBX 18 24 1 -6
BITMAP
FC0FC0
FC0FC0
FC0F80
7E1F80
7E1F80
7E1F00
3E1F00
3F3F00
3F3E00
1F3E00
1F3E00
1FFC00
0FFC00
0FFC00
07F800
07F800
07F800
03F000
03F000
03F000
03F000
03F000
03F000
03F000
ENDCHAR
STARTCHAR 04B0
ENCODING 1200
SWIDTH 553 0
DWIDTH 20 0
BBX 20 23 0 0
BITMAP
FE07F0
FE07E0
7E07E0
7F0FC0
3F0FC0
3F0F80
1F9F80
1F9F00
0FBF00
0FFF00
07FE00
07FE00
07FC00
3FFFC0
3FFFC0
3FFFC0
01F800
01F800
01F800
01F800
01F800
01F800
01F800
ENDCHAR
STARTCHAR 04B1
ENCODING 1201
SWIDTH 553 0
DWIDTH 20 0
BBX 18 24 1 -6
BITMAP
FC0FC0
FC0FC0
FC0F80
7E1F80
7E1F80
7E1F00
3E1F00
3F3F00
3F3E00
1F3E00
1F3E00
0FFC00
0FFC00
0FFC00
07F800
7FFF80
7FFF80
7FFF80
03F000
03F000
03F000
03F000
03F000
03F000
ENDCHAR
STARTCHAR 04B2
ENCODING 1202
SWIDTH 636 0
DWIDTH 23 0
BBX 21 30 1 -7
BITMAP
FE07E0
7E0FC0
7F0FC0
3F1F80
3F9F80
1F9F00
1FFF00
0FFE00
0FFE00
07FC00
07FC00
07FC00
07FC00
0FFE00
0FFE00
1FBF00
1FBF00
3F3F80
3F1FF8
7E1FF8
7E0FF8
FE0FF8
FC07F8
0001F8
0001F8
0001F8
0001F8
0001F8
0001F8
0001F8
ENDCHAR
STARTCHAR 04B3
ENCODING 1203
SWIDTH 581 0
DWIDTH 21 0
BBX 19 24 1 -6
BITMAP
FE1F80
7E1F80
7F3F00
3F3F00
3FBE00
1FFE00
0FFC00
0FFC00
07F800
0FF800
0FF800
1FFC00
1FFE00
3F7FE0
3E7FE0
7E3FE0
FE3FE0
FC1FE0
0003E0
0003E0
0003E0
0003E0
0003E0
0003E0
ENDCHAR
STARTCHAR 04B6
ENCODING 1206
SWIDTH 664 0
DWIDTH 24 0
BBX 22 31 2 -7
BITMAP
FC0FE0
FC0FE0
FC0FE0
FC0FE0
FC0FE0
FC0FE0
FC0FE0
FC0FE0
FE0FE0
FE0FE0
7FFFE0
7FFFE0
3FFFE0
1FFFE0
07FFE0
000FE0
000FE0
000FE0
000FE0
000FFC
000FFC
000FFC
000FFC
000FF8
0000F8
0000F8
0000F8
0000F8
0000F8
0000F8
0000F8
ENDCHAR
STARTCHAR 04B7
ENCODING 1207
SWIDTH 609 0
DWIDTH 22 0
BBX 19 25 2 -6
BITMAP
FC3F00
FC3F00
FC3F00
FC3F00
FC3F00
FC3F00
FC3F00
FC3F00
FFFF00
FFFF00
7FFF00
3FFF00
0FFF00
003F00
003FE0
003FE0
003FE0
003FE0
003FE0
0007E0
0007E0
0007E0
0007E0
0007E0
0007E0
ENDCHAR
STARTCHAR 04BA
ENCODING 1210
SWIDTH 636 0
DWIDTH 23 0
BBX 18 23 3 0
BITMAP
FC0000
FC0000
FC0000
FC0000
FC0000
FC0000
FC0000
FC0000
FFF800
FFFE00
FFFF00
FFFF80
FFFF80
FC1FC0
FC0FC0
FC0FC0
FC0FC0
FC0FC0
FC0FC0
FC0FC0
FC0FC0
FC0FC0
FC0FC0
ENDCHAR
STARTCHAR 04BB
ENCODING 1211
SWIDTH 581 0
DWIDTH 21 0
BBX 17 25 2 0
BITMAP
FC0000
FC0000
FC0000
FC0000
FC0000
FC0000
FC0000
FC7C00
FDFE00
FFFF00
FFFF80
FFFF80
FF3F80
FC1F80
FC1F80
FC1F80
FC1F80
FC1F80
FC1F80
FC1F80
FC1F80
FC1F80
FC1F80
FC1F80
FC1F80
ENDCHAR
STARTCHAR 04C0
ENCODING 1216
SWIDTH 304 0
DWIDTH 11 0
BBX 6 23 3 0
BITMAP
FC
FC
FC
FC
FC
FC
FC
FC
FC
FC
FC
FC
FC
FC
FC
FC
FC
FC
FC
FC
FC
FC
FC
ENDCHAR
STARTCHAR 04C1
ENCODING 1217
SWIDTH 886 0
DWIDTH 32 0
BBX 32 30 0 0
BITMAP
007E3E00
003E7E00
003FFC00
001FF800
0007E000
00000000
F807E01F
FE07E07F
7F07E0FF
7F87E0FE
7F87E1FE
7FC7E3FE
0FC7E3F0
07E7E7E0
07E7E7E0
03FFFFC0
03FFFFC0
01FFFFC0
03FFFFC0
07FFFFE0
07E7E7E0
0FC7E3F0
0FC7E3F0
1F87E1F8
1F87E1F8
3F87E0FC
3F07E0FE
7F07E07E
7E07E07F
FE07E03F
ENDCHAR
STARTCHAR 04C2
ENCODING 1218
SWIDTH 803 0
DWIDTH 29 0
BBX 28 27 0 -1
BITMAP
00F8F800
00F8F800
00F9F000
007FF000
003FE000
001F8000
00000000
00000000
7C0001E0
7E0F87E0
3F0F8FE0
3F8F8FE0
3F8F9FE0
3FCF9FE0
0FCFBF00
07FFFF00
07FFFE00
03FFFE00
07FFFE00
07FFFF00
0FCF9F80
1F8F9F80
1F8F8FC0
3F0F8FC0
3F0F87E0
7E0F87F0
FE0F83F0
ENDCHAR
STARTCHAR 04CF
ENCODING 1231
SWIDTH 304 0
DWIDTH 11 0
BBX 9 26 2 0
BITMAP
FC00
FC00
FC00
FC00
FC00
FC00
FC00
FC00
FC00
FC00
FC00
FC00
FC00
FC00
FC00
FC00
FC00
FC00
FC00
FC00
FE00
FF00
7F00
7F00
3F80
1F80
ENDCHAR
STARTCHAR 04D0
ENCODING 1232
SWIDTH 581 0
DWIDTH 21 0
BBX 21 31 0 0
BITMAP
0F8F80
0F8F80
0FFF80
07FF00
01FC00
000000
000000
01FC00
03FE00
03FE00
03FE00
07FF00
07DF00
07DF00
07DF80
0FDF80
0F8F80
0F8F80
1F8FC0
1F8FC0
1F0FC0
3FFFE0
3FFFE0
3FFFE0
3FFFF0
7FFFF0
7E03F0
7E03F0
FE03F8
FC01F8
FC01F8
ENDCHAR
STARTCHAR 04D1
ENCODING 1233
SWIDTH 526 0
DWIDTH 19 0
BBX 16 26 1 0
BITMAP
1F1F
1F1E
1F3E
0FFE
0FFC
03F0
0000
0000
07F0
1FFC
7FFE
3FFE
3FFF
183F
003F
03FF
1FFF
3FFF
7F3F
7C3F
FC3F
FFFF
7FFF
7FFF
3FDF
1F1F
ENDCHAR
STARTCHAR 04D4
ENCODING 1236
SWIDTH 858 0
DWIDTH 31 0
BBX 30 24 -1 0
BITMAP
001FFFFC
003FFFFC
003FFFFC
007FFFFC
007FFFFC
00FDF800
00FDF800
00FDF800
01F9F800
01F9FFF0
03F1FFF0
03F1FFF0
07F1FFF0
07E1FFF0
0FFFF800
0FFFF800
1FFFF800
1FFFF800
1FFFF800
3F81FFFC
3F01FFFC
7F01FFFC
7E01FFFC
FE01FFFC
ENDCHAR
STARTCHAR 04D5
ENCODING 1237
SWIDTH 775 0
DWIDTH 28 0
BBX 25 18 2 0
BITMAP
0FC1F800
3FF3FC00
FFFFFE00
7FFFFF00
7FFFFF00
307F1F80
007E0F80
0FFFFF80
3FFFFF80
7FFFFF80
FF7FFF80
FC7E0000
FC3F0200
FFFFFE00
FFFFFF00
FFFFFF00
7FC7FE00
1F01F800
ENDCHAR
STARTCHAR 04D6
ENCODING 1238
SWIDTH 553 0
DWIDTH 20 0
BBX 15 31 3 0
BITMAP
7C7C
7C7C
7FFC
3FF8
0FE0
0000
0000
FFFE
FFFE
FFFE
FFFE
FFFE
FC00
FC00
FC00
FC00
FFF8
FFF8
FFF8
FFF8
FFF8
FC00
FC00
FC00
FC00
FC00
FFFE
FFFE
FFFE
FFFE
FFFE
ENDCHAR
STARTCHAR 04D7
ENCODING 1239
SWIDTH 526 0
DWIDTH 19 0
BBX 17 26 1 0
BITMAP
3E3E00
1E3E00
1F3E00
1FFC00
0FF800
03F000
000000
000000
03F000
0FFC00
1FFE00
3FFF00
7FFF00
7E1F00
7C1F80
FFFF80
FFFF80
FFFF80
FFFF80
FC0000
7E0000
7FFE00
3FFE00
1FFF00
0FFE00
03F800
ENDCHAR
STARTCHAR 04D8
ENCODING 1240
SWIDTH 692 0
DWIDTH 25 0
BBX 21 24 2 0
BITMAP
01FC00
0FFF00
1FFFC0
3FFFE0
1FFFE0
0E0FF0
0C07F0
0003F8
0003F8
0001F8
FFFFF8
FFFFF8
FFFFF8
FFFFF8
FC01F8
FC01F8
FE03F0
7E03F0
7F0FF0
7FFFE0
3FFFC0
1FFF80
0FFF00
01FC00
ENDCHAR
STARTCHAR 04D9
ENCODING 1241
SWIDTH 526 0
DWIDTH 19 0
BBX 17 18 1 0
BITMAP
0FE000
3FF800
3FFC00
3FFE00
1FFF00
103F00
001F80
FFFF80
FFFF80
FFFF80
FFFF80
FC1F80
7C3F00
7FFF00
3FFE00
3FFC00
1FF800
07E000
ENDCHAR
STARTCHAR 04E2
ENCODING 1250
SWIDTH 692 0
DWIDTH 25 0
BBX 19 31 3 0
BITMAP
0FFE00
0FFE00
0FFE00
0FFE00
000000
000000
000000
FC0FE0
FC0FE0
FC1FE0
FC1FE0
FC3FE0
FC3FE0
FC7FE0
FC7FE0
FCFBE0
FCFBE0
FDFFE0
F9F7E0
F9F7E0
FBE7E0
FBE7E0
FFC7E0
FFC7E0
FF87E0
FF87E0
FF07E0
FF07E0
FE07E0
FE07E0
FC07E0
ENDCHAR
STARTCHAR 04E3
ENCODING 1251
SWIDTH 581 0
DWIDTH 21 0
BBX 17 26 2 0
BITMAP
1FFC00
1FFC00
1FFC00
1FFC00
000000
000000
000000
000000
FC1F80
FC1F80
FC3F80
FC3F80
FC7F80
FCFF80
FCFF80
FDFF80
FDEF80
FFEF80
FFDF80
FFDF80
FF9F80
FF1F80
FF1F80
FE1F80
FE1F80
FC1F80
ENDCHAR
STARTCHAR 04E6
ENCODING 1254
SWIDTH 692 0
DWIDTH 25 0
BBX 21 31 2 0
BITMAP
020200
0F8F80
0F8F80
0F8F80
0F8F80
070700
000000
01FC00
07FF00
1FFFC0
3FFFE0
3FFFE0
7FDFF0
7F07F8
FE03F8
FC01F8
FC01F8
FC01F8
FC01F8
FC01F8
FC01F8
FC01F8
FE01F8
FE03F8
7F07F0
7FDFF0
3FFFE0
3FFFE0
1FFFC0
07FF00
01FC00
ENDCHAR
STARTCHAR 04E7
ENCODING 1255
SWIDTH 553 0
DWIDTH 20 0
BBX 18 26 1 0
BITMAP
0C0E00
1E1F00
3F3F00
3F3F00
3F1F00
1E0E00
000000
000000
03F000
0FFC00
1FFE00
3FFF00
7FFF80
7F1F80
7E1FC0
FE0FC0
FE0FC0
FE0FC0
FE0FC0
FE1FC0
7F1F80
7FFF80
3FFF00
1FFE00
0FFC00
03F000
ENDCHAR
STARTCHAR 04E8
ENCODING 1256
SWIDTH 692 0
DWIDTH 25 0
BBX 21 24 2 0
BITMAP
01FC00
07FF80
1FFFC0
3FFFE0
7FFFF0
7F0FF0
FE03F8
FC03F8
FC01F8
FFFFF8
FFFFF8
FFFFF8
FFFFF8
FFFFF8
FC01F8
FC01F8
FE03F8
7E03F0
7F8FF0
3FFFE0
3FFFE0
1FFFC0
07FF00
01FC00
ENDCHAR
STARTCHAR 04E9
ENCODING 1257
SWIDTH 553 0
DWIDTH 20 0
BBX 18 18 1 0
BITMAP
03F000
0FFC00
1FFF00
3FFF00
7FFF80
7E1F80
7C0FC0
FFFFC0
FFFFC0
FFFFC0
FFFFC0
FC0FC0
7E1F80
7FFF80
3FFF00
1FFF00
0FFC00
03F000
ENDCHAR
STARTCHAR 04EE
ENCODING 1262
SWIDTH 581 0
DWIDTH 21 0
BBX 21 30 0 0
BITMAP
07FF00
07FF00
07FF00
07FF00
000000
000000
FE03F8
7E03F0
7F03F0
3F07E0
3F07E0
1F87E0
1F8FC0
1F8FC0
0FCF80
0FDF80
07DF80
07FF00
03FF00
03FE00
01FE00
01FE00
00FC00
00FC00
0FFC00
0FF800
1FF000
1FF000
1FE000
1F8000
ENDCHAR
STARTCHAR 04EF
ENCODING 1263
SWIDTH 553 0
DWIDTH 20 0
BBX 18 33 1 -7
BITMAP
1FFE00
1FFE00
1FFE00
1FFE00
000000
000000
000000
000000
FC0FC0
FC0FC0
FC0F80
7E1F80
7E1F80
3E1F00
3F1F00
3F3F00
1F3E00
1FBE00
0FBE00
0FFC00
0FFC00
07FC00
07F800
07F800
03F800
03F000
03F000
07E000
3FE000
3FC000
3FC000
7F8000
7E0000
ENDCHAR
STARTCHAR 04F2
ENCODING 1266
SWIDTH 581 0
DWIDTH 21 0
BBX 21 33 0 0
BITMAP
004080
00E0C0
00F9F0
01F3E0
03E3C0
03C7C0
038780
008100
000000
FE01F8
7E03F0
7E03F0
3F07E0
3F07E0
3F87E0
1F8FC0
1F8FC0
0FCFC0
0FDF80
07DF80
07FF00
03FF00
03FF00
01FE00
01FE00
00FC00
00FC00
0FFC00
0FF800
1FF000
1FF000
1FE000
1F8000
ENDCHAR
STARTCHAR 04F3
ENCODING 1267
SWIDTH 553 0
DWIDTH 20 0
BBX 18 35 1 -7
BITMAP
018300
03E7C0
03E780
07CF80
078F00
0F9E00
0F1E00
020400
000000
000000
FC0FC0
FC0FC0
FC0F80
7E1F80
7E1F80
3E1F00
3F1F00
3F3F00
1F3E00
1FBE00
1FBE00
0FFC00
0FFC00
07FC00
07F800
07F800
03F800
03F000
03F000
07E000
3FE000
3FC000
3FC000
7F8000
7E0000
ENDCHAR
STARTCHAR 1D43
ENCODING 7491
SWIDTH 360 0
DWIDTH 13 0
BBX 11 13 1 13
BITMAP
1F00
FFC0
7FC0
7FE0
03E0
0FE0
7FE0
FFE0
F3E0
F3E0
FFE0
FFE0
7DE0
ENDCHAR
STARTCHAR 1D47
ENCODING 7495
SWIDTH 387 0
DWIDTH 14 0
BBX 12 17 1 13
BITMAP
F800
F800
F800
F800
FBC0
FFE0
FFE0
FFF0
F8F0
F8F0
F8F0
F8F0
F8F0
FDF0
FFE0
FFC0
F780
ENDCHAR
STARTCHAR 1D48
ENCODING 7496
SWIDTH 387 0
DWIDTH 14 0
BBX 12 16 1 14
BITMAP
01F0
01F0
01F0
01F0
1FF0
3FF0
7FF0
FFF0
F9F0
F1F0
F1F0
F1F0
F9F0
7FF0
7FF0
3EF0
ENDCHAR
STARTCHAR 1D49
ENCODING 7497
SWIDTH 360 0
DWIDTH 13 0
BBX 11 13 1 13
BITMAP
1F00
3F80
7FC0
F9E0
F1E0
FFE0
FFE0
F000
F000
FC80
7FC0
3FC0
1F80
ENDCHAR
STARTCHAR 1D4D
ENCODING 7501
SWIDTH 360 0
DWIDTH 13 0
BBX 12 18 1 8
BITMAP
3FF0
7FF0
FFF0
F3C0
F3C0
F3C0
F3C0
7FC0
3F80
7000
F000
FFE0
7FF0
7FF0
E0F0
FFE0
FFC0
3F00
ENDCHAR
STARTCHAR 1D4F
ENCODING 7503
SWIDTH 387 0
DWIDTH 14 0
BBX 12 17 1 14
BITMAP
F800
F800
F800
F800
F800
F9F0
F9E0
FBC0
FF80
FF80
FF00
FF80
FFC0
FBC0
F9E0
F9F0
F8F0
ENDCHAR
STARTCHAR 1D50
ENCODING 7504
SWIDTH 581 0
DWIDTH 21 0
BBX 19 12 1 14
BITMAP
F3C780
F7EFC0
FFFFE0
FFFFE0
F9F3E0
F9F1E0
F9F1E0
F9F1E0
F9F1E0
F9F1E0
F9F1E0
F9F1E0
ENDCHAR
STARTCHAR 1D52
ENCODING 7506
SWIDTH 387 0
DWIDTH 14 0
BBX 12 13 1 13
BITMAP
1F00
3FC0
7FE0
FBE0
F1F0
F1F0
F1F0
F1F0
F1F0
FBE0
7FE0
3FC0
1F00
ENDCHAR
STARTCHAR 1D56
ENCODING 7510
SWIDTH 387 0
DWIDTH 14 0
BBX 12 17 1 9
BITMAP
F3C0
FFE0
FFE0
FFF0
F8F0
F8F0
F8F0
F8F0
F8F0
FDF0
FFE0
FFC0
FF80
F800
F800
F800
F800
ENDCHAR
STARTCHAR 1D57
ENCODING 7511
SWIDTH 276 0
DWIDTH 10 0
BBX 9 15 0 14
BITMAP
1C00
3C00
3C00
FF80
FF80
FF80
3C00
3C00
3C00
3C00
3C00
3E00
3F80
1F80
0F80
ENDCHAR
STARTCHAR 1D58
ENCODING 7512
SWIDTH 387 0
DWIDTH 14 0
BBX 12 12 1 13
BITMAP
F9F0
F9F0
F9F0
F9F0
F9F0
F9F0
F9F0
F9F0
FFF0
7FF0
7FF0
3CF0
ENDCHAR
STARTCHAR 1D5B
ENCODING 7515
SWIDTH 360 0
DWIDTH 13 0
BBX 13 12 0 13
BITMAP
F878
7878
78F0
78F0
3CF0
3CE0
3DE0
1DE0
1FC0
1FC0
0FC0
0F80
ENDCHAR
STARTCHAR 1D9C
ENCODING 7580
SWIDTH 304 0
DWIDTH 11 0
BBX 10 13 1 13
BITMAP
0F80
3FC0
7F80
FD00
F800
F000
F000
F000
F800
FD80
7F80
3FC0
1F00
ENDCHAR
STARTCHAR 1DA0
ENCODING 7584
SWIDTH 249 0
DWIDTH 9 0
BBX 8 17 1 14
BITMAP
1F
3F
3F
7C
78
FE
FE
FE
78
78
78
78
78
78
78
78
78
ENDCHAR
STARTCHAR 1DBB
ENCODING 7611
SWIDTH 332 0
DWIDTH 12 0
BBX 10 12 1 14
BITMAP
7FC0
7FC0
7FC0
0F80
0F00
1F00
3E00
3C00
7C00
FFC0
FFC0
FFC0
ENDCHAR
STARTCHAR 1E06
ENCODING 7686
SWIDTH 609 0
DWIDTH 22 0
BBX 18 31 3 -7
BITMAP
FFF800
FFFE00
FFFF00
FFFF80
FFFF80
FC3F80
FC1F80
FC1F80
FC3F00
FFFF00
FFFE00
FFFC00
FFFF00
FFFF80
FC1FC0
FC0FC0
FC0FC0
FC0FC0
FC1FC0
FFFFC0
FFFF80
FFFF00
FFFE00
FFF800
000000
000000
000000
1FFC00
1FFC00
1FFC00
1FFC00
ENDCHAR
STARTCHAR 1E07
ENCODING 7687
SWIDTH 581 0
DWIDTH 21 0
BBX 18 33 2 -7
BITMAP
FC0000
FC0000
FC0000
FC0000
FC0000
FC0000
FC0000
FC0000
FCF800
FDFE00
FFFF00
FFFF00
FFFF80
FE3F80
FC1F80
FC1FC0
FC1FC0
FC1FC0
FC1FC0
FC1F80
FE3F80
FFFF80
FFFF00
FFFE00
FBFC00
F8F800
000000
000000
000000
1FFC00
1FFC00
1FFC00
1FFC00
ENDCHAR
STARTCHAR 1E0C
ENCODING 7692
SWIDTH 636 0
DWIDTH 23 0
BBX 19 32 3 -8
BITMAP
FFE000
FFFC00
FFFE00
FFFF00
FFFF80
FC7F80
FC1FC0
FC1FC0
FC0FC0
FC0FC0
FC0FE0
FC0FE0
FC0FE0
FC0FE0
FC0FC0
FC0FC0
FC1FC0
FC1FC0
FC7F80
FFFF80
FFFF00
FFFE00
FFF800
FFE000
000000
000000
01C000
03E000
07F000
07F000
07E000
03E000
ENDCHAR
STARTCHAR 1E0D
ENCODING 7693
SWIDTH 581 0
DWIDTH 21 0
BBX 18 34 1 -8
BITMAP
000FC0
000FC0
000FC0
000FC0
000FC0
000FC0
000FC0
000FC0
07CFC0
0FFFC0
1FFFC0
3FFFC0
7FFFC0
7F1FC0
7E0FC0
FE0FC0
FE0FC0
FE0FC0
FE0FC0
7E0FC0
7F1FC0
7FFFC0
3FFFC0
3FFFC0
1FFFC0
07C7C0
000000
000000
00F800
01F800
01FC00
01FC00
01F800
00F000
ENDCHAR
STARTCHAR 1E0E
ENCODING 7694
SWIDTH 636 0
DWIDTH 23 0
BBX 19 31 3 -7
BITMAP
FFE000
FFFC00
FFFE00
FFFF00
FFFF80
FC7F80
FC1FC0
FC1FC0
FC0FC0
FC0FC0
FC0FE0
FC0FE0
FC0FE0
FC0FE0
FC0FC0
FC0FC0
FC1FC0
FC1FC0
FC7F80
FFFF80
FFFF00
FFFE00
FFF800
FFE000
000000
000000
000000
1FFC00
1FFC00
1FFC00
1FFC00
ENDCHAR
STARTCHAR 1E0F
ENCODING 7695
SWIDTH 581 0
DWIDTH 21 0
BBX 18 33 1 -7
BITMAP
000FC0
000FC0
000FC0
000FC0
000FC0
000FC0
000FC0
000FC0
07CFC0
0FFFC0
1FFFC0
3FFFC0
7FFFC0
7F1FC0
7E0FC0
FE0FC0
FE0FC0
FE0FC0
FE0FC0
7E0FC0
7F1FC0
7FFFC0
3FFFC0
3FFFC0
1FFFC0
07C7C0
000000
000000
000000
07FF00
07FF00
07FF00
07FF00
ENDCHAR
STARTCHAR 1E16
ENCODING 7702
SWIDTH 553 0
DWIDTH 20 0
BBX 15 37 3 0
BITMAP
0060
00E0
03F0
07F0
07C0
0700
0000
3FF8
3FF8
3FF8
3FF8
0000
0000
FFFE
FFFE
FFFE
FFFE
FFFE
FC00
FC00
FC00
FC00
FFF8
FFF8
FFF8
FFF8
FFF8
FC00
FC00
FC00
FC00
FC00
FFFE
FFFE
FFFE
FFFE
FFFE
ENDCHAR
STARTCHAR 1E17
ENCODING 7703
SWIDTH 526 0
DWIDTH 19 0
BBX 17 33 1 0
BITMAP
003000
007000
00F800
03F800
03E000
018000
000000
1FFC00
1FFC00
1FFC00
1FFC00
000000
000000
000000
000000
03F000
0FFC00
1FFE00
3FFF00
7FFF00
7E1F00
7C1F80
FFFF80
FFFF80
FFFF80
FFFF80
FC0000
7E0000
7FFE00
3FFE00
1FFF00
0FFE00
03F800
ENDCHAR
STARTCHAR 1E20
ENCODING 7712
SWIDTH 636 0
DWIDTH 23 0
BBX 19 30 2 0
BITMAP
03FF80
03FF80
03FF80
03FF80
000000
000000
00FE00
07FF80
0FFFC0
1FFFE0
3FFFC0
7FEF80
7F0100
FE0000
FE0000
FC0000
FC3FE0
FC3FE0
FC3FE0
FC3FE0
FC3FE0
FE03E0
FE03E0
7F03E0
7FE7E0
3FFFE0
3FFFE0
0FFFE0
07FF80
00FE00
ENDCHAR
STARTCHAR 1E21
ENCODING 7713
SWIDTH 553 0
DWIDTH 20 0
BBX 18 34 1 -8
BITMAP
0FFE00
0FFE00
0FFE00
0FFE00
000000
000000
000000
000000
07FFC0
1FFFC0
3FFFC0
7FFFC0
7E7E00
7C3F00
7C3F00
7E3E00
7FFE00
3FFE00
1FFC00
3FF000
7C0000
7C0000
7FF800
7FFF00
3FFF80
1FFFC0
7FFFC0
780FC0
F80FC0
FC1FC0
FFFF80
7FFF00
3FFC00
0FE000
ENDCHAR
STARTCHAR 1E24
ENCODING 7716
SWIDTH 692 0
DWIDTH 25 0
BBX 19 32 3 -8
BITMAP
FC07E0
FC07E0
FC07E0
FC07E0
FC07E0
FC07E0
FC07E0
FC07E0
FC07E0
FFFFE0
FFFFE0
FFFFE0
FFFFE0
FFFFE0
FC07E0
FC07E0
FC07E0
FC07E0
FC07E0
FC07E0
FC07E0
FC07E0
FC07E0
FC07E0
000000
000000
01E000
03F000
03F800
03F800
03F000
01E000
ENDCHAR
STARTCHAR 1E25
ENCODING 7717
SWIDTH 581 0
DWIDTH 21 0
BBX 17 34 2 -8
BITMAP
FC0000
FC0000
FC0000
FC0000
FC0000
FC0000
FC0000
FC0000
FC7C00
FDFE00
FFFF00
FFFF80
FFFF80
FF3F80
FC1F80
FC1F80
FC1F80
FC1F80
FC1F80
FC1F80
FC1F80
FC1F80
FC1F80
FC1F80
FC1F80
FC1F80
000000
000000
01E000
03F000
07F000
07F000
03F000
03E000
ENDCHAR
STARTCHAR 1E2A
ENCODING 7722
SWIDTH 692 0
DWIDTH 25 0
BBX 19 33 3 -9
BITMAP
FC07E0
FC07E0
FC07E0
FC07E0
FC07E0
FC07E0
FC07E0
FC07E0
FC07E0
FFFFE0
FFFFE0
FFFFE0
FFFFE0
FFFFE0
FC07E0
FC07E0
FC07E0
FC07E0
FC07E0
FC07E0
FC07E0
FC07E0
FC07E0
FC07E0
000000
000000
060800
1E0F00
1F1E00
1FFE00
0FFE00
07FC00
01E000
ENDCHAR
STARTCHAR 1E2B
ENCODING 7723
SWIDTH 581 0
DWIDTH 21 0
BBX 17 35 2 -9
BITMAP
FC0000
FC0000
FC0000
FC0000
FC0000
FC0000
FC0000
FC0000
FC7C00
FDFE00
FFFF00
FFFF80
FFFF80
FF3F80
FC1F80
FC1F80
FC1F80
FC1F80
FC1F80
FC1F80
FC1F80
FC1F80
FC1F80
FC1F80
FC1F80
FC1F80
000000
000000
041800
3C1E00
1E3E00
1FFC00
1FFC00
0FF800
01E000
ENDCHAR
STARTCHAR 1E32
ENCODING 7730
SWIDTH 636 0
DWIDTH 23 0
BBX 20 32 3 -8
BITMAP
FC0FC0
FC1FC0
FC3F80
FC3F00
FC7E00
FCFE00
FCFC00
FDF800
FFF800
FFF000
FFF000
FFF800
FFF800
FFFC00
FFFC00
FFFE00
FE7F00
FC3F00
FC3F80
FC1F80
FC1FC0
FC0FE0
FC0FE0
FC07F0
000000
000000
01E000
03F000
03F000
03F000
03F000
01E000
ENDCHAR
STARTCHAR 1E33
ENCODING 7731
SWIDTH 581 0
DWIDTH 21 0
BBX 18 34 2 -8
BITMAP
FC0000
FC0000
FC0000
FC0000
FC0000
FC0000
FC0000
FC0000
FC1FC0
FC3F80
FC7F00
FC7E00
FCFC00
FDF800
FFF000
FFF000
FFF000
FFF800
FFFC00
FFFC00
FE7E00
FC7E00
FC3F00
FC3F80
FC1F80
FC1FC0
000000
000000
01E000
03F000
03F000
03F000
03F000
01E000
ENDCHAR
STARTCHAR 1E34
ENCODING 7732
SWIDTH 636 0
DWIDTH 23 0
BBX 20 31 3 -7
BITMAP
FC0FC0
FC1FC0
FC3F80
FC3F00
FC7E00
FCFE00
FCFC00
FDF800
FFF800
FFF000
FFF000
FFF800
FFF800
FFFC00
FFFC00
FFFE00
FE7F00
FC3F00
FC3F80
FC1F80
FC1FC0
FC0FE0
FC0FE0
FC07F0
000000
000000
000000
1FFE00
1FFE00
1FFE00
1FFE00
ENDCHAR
STARTCHAR 1E35
ENCODING 7733
SWIDTH 581 0
DWIDTH 21 0
BBX 18 33 2 -7
BITMAP
FC0000
FC0000
FC0000
FC0000
FC0000
FC0000
FC0000
FC0000
FC1FC0
FC3F80
FC7F00
FC7E00
FCFC00
FDF800
FFF000
FFF000
FFF000
FFF800
FFFC00
FFFC00
FE7E00
FC7E00
FC3F00
FC3F80
FC1F80
FC1FC0
000000
000000
000000
1FFE00
1FFE00
1FFE00
1FFE00
ENDCHAR
STARTCHAR 1E36
ENCODING 7734
SWIDTH 526 0
DWIDTH 19 0
BBX 15 32 3 -8
BITMAP
FC00
FC00
FC00
FC00
FC00
FC00
FC00
FC00
FC00
FC00
FC00
FC00
FC00
FC00
FC00
FC00
FC00
FC00
FC00
FFFE
FFFE
FFFE
FFFE
FFFE
0000
0000
0380
07C0
0FE0
0FE0
0FE0
07C0
ENDCHAR
STARTCHAR 1E37
ENCODING 7735
SWIDTH 304 0
DWIDTH 11 0
BBX 9 34 2 -8
BITMAP
FC00
FC00
FC00
FC00
FC00
FC00
FC00
FC00
FC00
FC00
FC00
FC00
FC00
FC00
FC00
FC00
FC00
FC00
FC00
FC00
FE00
FF00
7F00
7F00
3F80
1F80
0000
0000
1E00
3F00
3F00
3F00
3F00
1E00
ENDCHAR
STARTCHAR 1E38
ENCODING 7736
SWIDTH 526 0
DWIDTH 19 0
BBX 18 38 0 -8
BITMAP
FFF000
FFF000
FFF000
FFF000
000000
000000
1F8000
1F8000
1F8000
1F8000
1F8000
1F8000
1F8000
1F8000
1F8000
1F8000
1F8000
1F8000
1F8000
1F8000
1F8000
1F8000
1F8000
1F8000
1F8000
1FFFC0
1FFFC0
1FFFC0
1FFFC0
1FFFC0
000000
000000
007000
00F800
01FC00
01FC00
01FC00
00F800
ENDCHAR
STARTCHAR 1E39
ENCODING 7737
SWIDTH 304 0
DWIDTH 11 0
BBX 11 42 0 -8
BITMAP
FFE0
FFE0
FFE0
FFE0
0000
0000
0000
0000
3F00
3F00
3F00
3F00
3F00
3F00
3F00
3F00
3F00
3F00
3F00
3F00
3F00
3F00
3F00
3F00
3F00
3F00
3F00
3F00
3F80
3FC0
1FC0
1FC0
0FE0
07E0
0000
0000
0780
0FC0
0FC0
0FC0
0FC0
0780
ENDCHAR
STARTCHAR 1E3A
ENCODING 7738
SWIDTH 526 0
DWIDTH 19 0
BBX 15 31 3 -7
BITMAP
FC00
FC00
FC00
FC00
FC00
FC00
FC00
FC00
FC00
FC00
FC00
FC00
FC00
FC00
FC00
FC00
FC00
FC00
FC00
FFFE
FFFE
FFFE
FFFE
FFFE
0000
0000
0000
3FF8
3FF8
3FF8
3FF8
ENDCHAR
STARTCHAR 1E3B
ENCODING 7739
SWIDTH 304 0
DWIDTH 11 0
BBX 11 33 2 -7
BITMAP
FC00
FC00
FC00
FC00
FC00
FC00
FC00
FC00
FC00
FC00
FC00
FC00
FC00
FC00
FC00
FC00
FC00
FC00
FC00
FC00
FE00
FF00
7F00
7F00
3F80
1F80
0000
0000
0000
FFE0
FFE0
FFE0
FFE0
ENDCHAR
STARTCHAR 1E3E
ENCODING 7742
SWIDTH 775 0
DWIDTH 28 0
BBX 22 33 3 0
BITMAP
000200
000F00
001F80
003FC0
007F80
00FE00
007800
003000
000000
FC00FC
FE01FC
FE01FC
FF01FC
FF03FC
FF03FC
FF87FC
FF87FC
F787BC
FFCFFC
FFCFFC
FBCF7C
FBEF7C
FBFF7C
F9FE7C
F9FE7C
F9FE7C
F8FC7C
F8FC7C
F8FC7C
F8787C
F8787C
F8007C
F8007C
ENDCHAR
STARTCHAR 1E3F
ENCODING 7743
SWIDTH 858 0
DWIDTH 31 0
BBX 27 30 2 0
BITMAP
00004000
0000E000
0001F000
0003F800
0007F800
0007F000
000FC000
00078000
00030000
00000000
00000000
00000000
F87C1F00
F9FE3FC0
FFFF7FC0
FFFFFFE0
FFFFFFE0
FF3FEFE0
FC3F87E0
FC1F87E0
FC1F87E0
FC1F87E0
FC1F87E0
FC1F87E0
FC1F87E0
FC1F87E0
FC1F87E0
FC1F87E0
FC1F87E0
FC1F87E0
ENDCHAR
STARTCHAR 1E40
ENCODING 7744
SWIDTH 775 0
DWIDTH 28 0
BBX 22 32 3 0
BITMAP
007800
00FC00
00FC00
00FC00
00FC00
007800
000000
000000
FC00FC
FE01FC
FE01FC
FF01FC
FF03FC
FF03FC
FF87FC
FF87FC
F787BC
FFCFFC
FFCFFC
FBCF7C
FBEF7C
FBFF7C
F9FE7C
F9FE7C
F9FE7C
F8FC7C
F8FC7C
F8FC7C
F8787C
F8787C
F8007C
F8007C
ENDCHAR
STARTCHAR 1E41
ENCODING 7745
SWIDTH 858 0
DWIDTH 31 0
BBX 27 26 2 0
BITMAP
000F0000
001F8000
001F8000
001F8000
001F8000
000F0000
00000000
00000000
F87C1F00
F9FE3FC0
FFFF7FC0
FFFFFFE0
FFFFFFE0
FF3FEFE0
FC3F87E0
FC1F87E0
FC1F87E0
FC1F87E0
FC1F87E0
FC1F87E0
FC1F87E0
FC1F87E0
FC1F87E0
FC1F87E0
FC1F87E0
FC1F87E0
ENDCHAR
STARTCHAR 1E42
ENCODING 7746
SWIDTH 775 0
DWIDTH 28 0
BBX 22 32 3 -8
BITMAP
FC00FC
FE01FC
FE01FC
FF01FC
FF03FC
FF03FC
FF87FC
FF87FC
F787BC
FFCFFC
FFCFFC
FBCF7C
FBEF7C
FBFF7C
F9FE7C
F9FE7C
F9FE7C
F8FC7C
F8FC7C
F8FC7C
F8787C
F8787C
F8007C
F8007C
000000
000000
007800
00FC00
00FC00
00FC00
00FC00
007800
ENDCHAR
STARTCHAR 1E43
ENCODING 7747
SWIDTH 858 0
DWIDTH 31 0
BBX 27 26 2 -8
BITMAP
F87C1F00
F9FE3FC0
FFFF7FC0
FFFFFFE0
FFFFFFE0
FF3FEFE0
FC3F87E0
FC1F87E0
FC1F87E0
FC1F87E0
FC1F87E0
FC1F87E0
FC1F87E0
FC1F87E0
FC1F87E0
FC1F87E0
FC1F87E0
FC1F87E0
00000000
00000000
000F0000
001F8000
001F8000
001F8000
001F8000
000F0000
ENDCHAR
STARTCHAR 1E44
ENCODING 7748
SWIDTH 664 0
DWIDTH 24 0
BBX 19 32 3 0
BITMAP
01E000
03F000
03F800
03F800
03F000
01E000
000000
000000
FC07E0
FE07E0
FE07E0
FF07E0
FF07E0
FF87E0
FF87E0
FFC7E0
FFC7E0
FBE7E0
FBE7E0
FBE7E0
F9F7E0
F9F7E0
F8FFE0
FCFFE0
FC7FE0
FC7FE0
FC3FE0
FC3FE0
FC1FE0
FC1FE0
FC0FE0
FC0FE0
ENDCHAR
STARTCHAR 1E45
ENCODING 7749
SWIDTH 581 0
DWIDTH 21 0
BBX 17 26 2 0
BITMAP
01E000
03F000
03F800
03F800
03F000
01F000
000000
000000
F87C00
F9FE00
FFFF00
FFFF80
FFFF80
FF3F80
FC1F80
FC1F80
FC1F80
FC1F80
FC1F80
FC1F80
FC1F80
FC1F80
FC1F80
FC1F80
FC1F80
FC1F80
ENDCHAR
STARTCHAR 1E46
ENCODING 7750
SWIDTH 664 0
DWIDTH 24 0
BBX 19 32 3 -8
BITMAP
FC07E0
FE07E0
FE07E0
FF07E0
FF07E0
FF87E0
FF87E0
FFC7E0
FFC7E0
FBE7E0
FBE7E0
FBE7E0
F9F7E0
F9F7E0
F8FFE0
FCFFE0
FC7FE0
FC7FE0
FC3FE0
FC3FE0
FC1FE0
FC1FE0
FC0FE0
FC0FE0
000000
000000
00F000
01F800
03F800
03F800
01F800
01F000
ENDCHAR
STARTCHAR 1E47
ENCODING 7751
SWIDTH 581 0
DWIDTH 21 0
BBX 17 26 2 -8
BITMAP
F87C00
F9FE00
FFFF00
FFFF80
FFFF80
FF3F80
FC1F80
FC1F80
FC1F80
FC1F80
FC1F80
FC1F80
FC1F80
FC1F80
FC1F80
FC1F80
FC1F80
FC1F80
000000
000000
01E000
03F000
07F000
07F000
03F000
03E000
ENDCHAR
STARTCHAR 1E48
ENCODING 7752
SWIDTH 664 0
DWIDTH 24 0
BBX 19 31 3 -7
BITMAP
FC07E0
FE07E0
FE07E0
FF07E0
FF07E0
FF87E0
FF87E0
FFC7E0
FFC7E0
FBE7E0
FBE7E0
FBE7E0
F9F7E0
F9F7E0
F8FFE0
FCFFE0
FC7FE0
FC7FE0
FC3FE0
FC3FE0
FC1FE0
FC1FE0
FC0FE0
FC0FE0
000000
000000
000000
0FFE00
0FFE00
0FFE00
0FFE00
ENDCHAR
STARTCHAR 1E49
ENCODING 7753
SWIDTH 581 0
DWIDTH 21 0
BBX 17 25 2 -7
BITMAP
F87C00
F9FE00
FFFF00
FFFF80
FFFF80
FF3F80
FC1F80
FC1F80
FC1F80
FC1F80
FC1F80
FC1F80
FC1F80
FC1F80
FC1F80
FC1F80
FC1F80
FC1F80
000000
000000
000000
1FFC00
1FFC00
1FFC00
1FFC00
ENDCHAR
STARTCHAR 1E52
ENCODING 7762
SWIDTH 692 0
DWIDTH 25 0
BBX 21 37 2 0
BITMAP
000C00
001C00
007E00
00FE00
00F800
00E000
004000
07FF00
07FF00
07FF00
07FF00
000000
000000
01FC00
07FF00
1FFFC0
3FFFE0
3FFFE0
7FDFF0
7F07F8
FE03F8
FC01F8
FC01F8
FC01F8
FC01F8
FC01F8
FC01F8
FC01F8
FE01F8
FE03F8
7F07F0
7FDFF0
3FFFE0
3FFFE0
1FFFC0
07FF00
01FC00
ENDCHAR
STARTCHAR 1E53
ENCODING 7763
SWIDTH 553 0
DWIDTH 20 0
BBX 18 33 1 0
BITMAP
001000
007800
00FC00
01F800
01E000
01C000
000000
0FFE00
0FFE00
0FFE00
0FFE00
000000
000000
000000
000000
03F000
0FFC00
1FFE00
3FFF00
7FFF80
7F1F80
7E1FC0
FE0FC0
FE0FC0
FE0FC0
FE0FC0
FE1FC0
7F1F80
7FFF80
3FFF00
1FFE00
0FFC00
03F000
ENDCHAR
STARTCHAR 1E58
ENCODING 7768
SWIDTH 636 0
DWIDTH 23 0
BBX 19 32 3 0
BITMAP
01C000
07E000
07F000
07F000
07F000
03E000
000000
000000
FFF800
FFFE00
FFFF00
FFFF80
FFFF80
FC1FC0
FC0FC0
FC0FC0
FC0FC0
FC1FC0
FC3FC0
FFFF80
FFFF80
FFFF00
FFFC00
FFFE00
FCFE00
FC7F00
FC7F00
FC3F80
FC3F80
FC1FC0
FC1FC0
FC0FE0
ENDCHAR
STARTCHAR 1E59
ENCODING 7769
SWIDTH 415 0
DWIDTH 15 0
BBX 13 26 2 0
BITMAP
0780
0FC0
0FE0
0FE0
0FC0
0780
0000
0000
F878
F9F8
FBF8
FFF0
FFF0
FF90
FF00
FE00
FC00
FC00
FC00
FC00
FC00
FC00
FC00
FC00
FC00
FC00
ENDCHAR
STARTCHAR 1E5A
ENCODING 7770
SWIDTH 636 0
DWIDTH 23 0
BBX 19 32 3 -8
BITMAP
FFF800
FFFE00
FFFF00
FFFF80
FFFF80
FC1FC0
FC0FC0
FC0FC0
FC0FC0
FC1FC0
FC3FC0
FFFF80
FFFF80
FFFF00
FFFC00
FFFE00
FCFE00
FC7F00
FC7F00
FC3F80
FC3F80
FC1FC0
FC1FC0
FC0FE0
000000
000000
01E000
03F000
03F000
03F000
03F000
01E000
ENDCHAR
STARTCHAR 1E5B
ENCODING 7771
SWIDTH 415 0
DWIDTH 15 0
BBX 13 26 2 -8
BITMAP
F878
F9F8
FBF8
FFF0
FFF0
FF90
FF00
FE00
FC00
FC00
FC00
FC00
FC00
FC00
FC00
FC00
FC00
FC00
0000
0000
7800
FC00
FC00
FE00
FC00
7800
ENDCHAR
STARTCHAR 1E5C
ENCODING 7772
SWIDTH 636 0
DWIDTH 23 0
BBX 19 38 3 -8
BITMAP
1FFC00
1FFC00
1FFC00
1FFC00
000000
000000
FFF800
FFFE00
FFFF00
FFFF80
FFFF80
FC1FC0
FC0FC0
FC0FC0
FC0FC0
FC1FC0
FC3FC0
FFFF80
FFFF80
FFFF00
FFFC00
FFFE00
FCFE00
FC7F00
FC7F00
FC3F80
FC3F80
FC1FC0
FC1FC0
FC0FE0
000000
000000
01E000
03F000
03F000
03F000
03F000
01E000
ENDCHAR
STARTCHAR 1E5D
ENCODING 7773
SWIDTH 415 0
DWIDTH 15 0
BBX 13 34 2 -8
BITMAP
3FF8
3FF8
3FF8
3FF8
0000
0000
0000
0000
F878
F9F8
FBF8
FFF0
FFF0
FF90
FF00
FE00
FC00
FC00
FC00
FC00
FC00
FC00
FC00
FC00
FC00
FC00
0000
0000
7800
FC00
FC00
FE00
FC00
7800
ENDCHAR
STARTCHAR 1E5E
ENCODING 7774
SWIDTH 636 0
DWIDTH 23 0
BBX 19 31 3 -7
BITMAP
FFF800
FFFE00
FFFF00
FFFF80
FFFF80
FC1FC0
FC0FC0
FC0FC0
FC0FC0
FC1FC0
FC3FC0
FFFF80
FFFF80
FFFF00
FFFC00
FFFE00
FCFE00
FC7F00
FC7F00
FC3F80
FC3F80
FC1FC0
FC1FC0
FC0FE0
000000
000000
000000
1FFE00
1FFE00
1FFE00
1FFE00
ENDCHAR
STARTCHAR 1E5F
ENCODING 7775
SWIDTH 415 0
DWIDTH 15 0
BBX 15 25 0 -7
BITMAP
3E1E
3E7E
3EFE
3FFC
3FFC
3FE4
3FC0
3F80
3F00
3F00
3F00
3F00
3F00
3F00
3F00
3F00
3F00
3F00
0000
0000
0000
FFE0
FFE0
FFE0
FFE0
ENDCHAR
STARTCHAR 1E60
ENCODING 7776
SWIDTH 553 0
DWIDTH 20 0
BBX 18 31 1 0
BITMAP
01F000
01F800
03F800
03F800
01F800
00F000
000000
01F800
0FFE00
1FFF80
3FFF80
3FFF00
7F9F00
7E0200
7F0000
7F8000
7FF000
3FFC00
1FFF00
0FFF80
07FFC0
00FFC0
003FC0
000FC0
180FC0
3F3FC0
7FFFC0
FFFF80
7FFF00
1FFE00
07F000
ENDCHAR
STARTCHAR 1E61
ENCODING 7777
SWIDTH 443 0
DWIDTH 16 0
BBX 14 26 1 0
BITMAP
03C0
07E0
0FE0
0FE0
07E0
03C0
0000
0000
07E0
1FF8
3FFC
7FFC
7FF8
7C10
7F00
7FE0
3FF8
1FFC
07FC
00FC
307C
7FFC
FFFC
FFF8
7FF0
0FC0
ENDCHAR
STARTCHAR 1E62
ENCODING 7778
SWIDTH 553 0
DWIDTH 20 0
BBX 18 32 1 -8
BITMAP
01F800
0FFE00
1FFF80
3FFF80
3FFF00
7F9F00
7E0200
7F0000
7F8000
7FF000
3FFC00
1FFF00
0FFF80
07FFC0
00FFC0
003FC0
000FC0
180FC0
3F3FC0
7FFFC0
FFFF80
7FFF00
1FFE00
07F000
000000
000000
01E000
03F000
03F800
03F000
03F000
01E000
ENDCHAR
STARTCHAR 1E63
ENCODING 7779
SWIDTH 443 0
DWIDTH 16 0
BBX 14 26 1 -8
BITMAP
07E0
1FF8
3FFC
7FFC
7FF8
7C10
7F00
7FE0
3FF8
1FFC
07FC
00FC
307C
7FFC
FFFC
FFF8
7FF0
0FC0
0000
0000
07C0
07E0
0FE0
0FE0
07C0
0380
ENDCHAR
STARTCHAR 1E6C
ENCODING 7788
SWIDTH 553 0
DWIDTH 20 0
BBX 18 32 1 -8
BITMAP
FFFFC0
FFFFC0
FFFFC0
FFFFC0
FFFFC0
03F000
03F000
03F000
03F000
03F000
03F000
03F000
03F000
03F000
03F000
03F000
03F000
03F000
03F000
03F000
03F000
03F000
03F000
03F000
000000
000000
01E000
03F000
03F000
03F000
03F000
01E000
ENDCHAR
STARTCHAR 1E6D
ENCODING 7789
SWIDTH 387 0
DWIDTH 14 0
BBX 13 31 1 -8
BITMAP
1F00
1F00
1F00
3F00
3F00
FFF0
FFF0
FFF0
FFF0
FFF0
3F00
3F00
3F00
3F00
3F00
3F00
3F00
3F80
3FF0
1FF0
1FF0
0FF8
03F0
0000
0000
03C0
07E0
07E0
07E0
07E0
03C0
ENDCHAR
STARTCHAR 1E6E
ENCODING 7790
SWIDTH 553 0
DWIDTH 20 0
BBX 18 31 1 -7
BITMAP
FFFFC0
FFFFC0
FFFFC0
FFFFC0
FFFFC0
03F000
03F000
03F000
03F000
03F000
03F000
03F000
03F000
03F000
03F000
03F000
03F000
03F000
03F000
03F000
03F000
03F000
03F000
03F000
000000
000000
000000
0FFE00
0FFE00
0FFE00
0FFE00
ENDCHAR
STARTCHAR 1E6F
ENCODING 7791
SWIDTH 387 0
DWIDTH 14 0
BBX 13 30 1 -7
BITMAP
1F00
1F00
1F00
3F00
3F00
FFF0
FFF0
FFF0
FFF0
FFF0
3F00
3F00
3F00
3F00
3F00
3F00
3F00
3F80
3FF0
1FF0
1FF0
0FF8
03F0
0000
0000
0000
3FF8
3FF8
3FF8
3FF8
ENDCHAR
STARTCHAR 1E80
ENCODING 7808
SWIDTH 830 0
DWIDTH 30 0
BBX 29 33 0 0
BITMAP
00100000
00380000
007E0000
00FF0000
007F8000
001FC000
000F8000
00030000
00000000
FE0FC1F8
7E0FC1F8
7E0FC1F8
7E0FC1F8
7E0FE1F8
7E1FE1F0
7F1FE1F0
3F1FE1F0
3F1FE3F0
3F3FF3F0
3F3FF3F0
3F3DF3F0
3F3DF3E0
1F3CF3E0
1F3CFBE0
1FFCFBE0
1FFCFBE0
1FF8FFE0
0FF87FC0
0FF87FC0
0FF87FC0
0FF87FC0
0FF07FC0
0FF07FC0
ENDCHAR
STARTCHAR 1E81
ENCODING 7809
SWIDTH 803 0
DWIDTH 29 0
BBX 27 30 1 0
BITMAP
00600000
00F00000
01F80000
03F80000
01FC0000
00FE0000
007F0000
003E0000
000C0000
00000000
00000000
00000000
FC1F07E0
FC1F87E0
FC3F87C0
7E3F87C0
7E3F8FC0
7E3F8FC0
7E7FCF80
3E7BCF80
3F7BCF80
3F7BCF80
3F7BFF80
1F7BFF00
1FF3FF00
1FF1FF00
1FF1FF00
0FF1FE00
0FF1FE00
0FE1FE00
ENDCHAR
STARTCHAR 1E82
ENCODING 7810
SWIDTH 830 0
DWIDTH 30 0
BBX 29 33 0 0
BITMAP
00002000
0000F000
0001F800
0003F800
0007F800
000FE000
00078000
00030000
00000000
FE0FC1F8
7E0FC1F8
7E0FC1F8
7E0FC1F8
7E0FE1F8
7E1FE1F0
7F1FE1F0
3F1FE1F0
3F1FE3F0
3F3FF3F0
3F3FF3F0
3F3DF3F0
3F3DF3E0
1F3CF3E0
1F3CFBE0
1FFCFBE0
1FFCFBE0
1FF8FFE0
0FF87FC0
0FF87FC0
0FF87FC0
0FF87FC0
0FF07FC0
0FF07FC0
ENDCHAR
STARTCHAR 1E83
ENCODING 7811
SWIDTH 803 0
DWIDTH 29 0
BBX 27 30 1 0
BITMAP
0000C000
0001E000
0003F000
0003F800
0007F000
000FE000
001FC000
000F0000
00060000
00000000
00000000
00000000
FC1F07E0
FC1F87E0
FC3F87C0
7E3F87C0
7E3F8FC0
7E3F8FC0
7E7FCF80
3E7BCF80
3F7BCF80
3F7BCF80
3F7BFF80
1F7BFF00
1FF3FF00
1FF1FF00
1FF1FF00
0FF1FE00
0FF1FE00
0FE1FE00
ENDCHAR
STARTCHAR 1E84
ENCODING 7812
SWIDTH 830 0
DWIDTH 30 0
BBX 29 31 0 0
BITMAP
00707800
00F87C00
00FCFC00
00F8FC00
00F87800
00203000
00000000
FE0FC1F8
7E0FC1F8
7E0FC1F8
7E0FC1F8
7E0FE1F8
7E1FE1F0
7F1FE1F0
3F1FE1F0
3F1FE3F0
3F3FF3F0
3F3FF3F0
3F3DF3F0
3F3DF3E0
1F3CF3E0
1F3CFBE0
1FFCFBE0
1FFCFBE0
1FF8FFE0
0FF87FC0
0FF87FC0
0FF87FC0
0FF87FC0
0FF07FC0
0FF07FC0
ENDCHAR
STARTCHAR 1E85
ENCODING 7813
SWIDTH 803 0
DWIDTH 29 0
BBX 27 26 1 0
BITMAP
00E0E000
01F1F000
03F1F000
03F1F000
01F1F000
00E0E000
00000000
00000000
FC1F07E0
FC1F87E0
FC3F87C0
7E3F87C0
7E3F8FC0
7E3F8FC0
7E7FCF80
3E7BCF80
3F7BCF80
3F7BCF80
3F7BFF80
1F7BFF00
1FF3FF00
1FF1FF00
1FF1FF00
0FF1FE00
0FF1FE00
0FE1FE00
ENDCHAR
STARTCHAR 1E8E
ENCODING 7822
SWIDTH 553 0
DWIDTH 20 0
BBX 20 32 0 0
BITMAP
00F000
01F800
03F800
03F800
01F800
00F000
000000
000000
FC07F0
FE07E0
7E07E0
7E0FC0
3F0FC0
3F0FC0
1F9F80
1F9F80
1F9F00
0FFF00
0FFE00
07FE00
07FC00
03FC00
03F800
01F800
01F800
01F800
01F800
01F800
01F800
01F800
01F800
01F800
ENDCHAR
STARTCHAR 1E8F
ENCODING 7823
SWIDTH 553 0
DWIDTH 20 0
BBX 18 33 1 -7
BITMAP
01E000
03F000
03F000
03F000
03F000
01E000
000000
000000
FC0FC0
FC0FC0
FC0F80
7E1F80
7E1F80
3E1F00
3F1F00
3F3F00
1F3E00
1FBE00
0FBE00
0FFC00
0FFC00
07FC00
07F800
07F800
03F800
03F000
03F000
07E000
3FE000
3FC000
3FC000
7F8000
7E0000
ENDCHAR
STARTCHAR 1E92
ENCODING 7826
SWIDTH 553 0
DWIDTH 20 0
BBX 17 32 1 -8
BITMAP
7FFF80
7FFF80
7FFF80
7FFF80
7FFF80
003F00
007F00
00FE00
00FC00
01FC00
03F800
03F000
07F000
0FE000
0FE000
1FC000
1F8000
3F8000
7F0000
7FFF80
FFFF80
FFFF80
FFFF80
FFFF80
000000
000000
01E000
03F000
03F000
03F000
03F000
01E000
ENDCHAR
STARTCHAR 1E93
ENCODING 7827
SWIDTH 470 0
DWIDTH 17 0
BBX 15 26 1 -8
BITMAP
7FFE
7FFE
7FFE
7FFE
7FFC
01FC
03F8
07F0
07E0
0FE0
1FC0
1F80
3F80
7FFE
7FFE
FFFE
FFFE
FFFE
0000
0000
03C0
07E0
07E0
07E0
07E0
03C0
ENDCHAR
STARTCHAR 1E94
ENCODING 7828
SWIDTH 553 0
DWIDTH 20 0
BBX 17 31 1 -7
BITMAP
7FFF80
7FFF80
7FFF80
7FFF80
7FFF80
003F00
007F00
00FE00
00FC00
01FC00
03F800
03F000
07F000
0FE000
0FE000
1FC000
1F8000
3F8000
7F0000
7FFF80
FFFF80
FFFF80
FFFF80
FFFF80
000000
000000
000000
0FFE00
0FFE00
0FFE00
0FFE00
ENDCHAR
STARTCHAR 1E95
ENCODING 7829
SWIDTH 470 0
DWIDTH 17 0
BBX 15 25 1 -7
BITMAP
7FFE
7FFE
7FFE
7FFE
7FFC
01FC
03F8
07F0
07E0
0FE0
1FC0
1F80
3F80
7FFE
7FFE
FFFE
FFFE
FFFE
0000
0000
0000
1FFC
1FFC
1FFC
1FFC
ENDCHAR
STARTCHAR 1E96
ENCODING 7830
SWIDTH 581 0
DWIDTH 21 0
BBX 17 33 2 -7
BITMAP
FC0000
FC0000
FC0000
FC0000
FC0000
FC0000
FC0000
FC0000
FC7C00
FDFE00
FFFF00
FFFF80
FFFF80
FF3F80
FC1F80
FC1F80
FC1F80
FC1F80
FC1F80
FC1F80
FC1F80
FC1F80
FC1F80
FC1F80
FC1F80
FC1F80
000000
000000
000000
1FFC00
1FFC00
1FFC00
1FFC00
ENDCHAR
STARTCHAR 1E97
ENCODING 7831
SWIDTH 387 0
DWIDTH 14 0
BBX 15 31 -1 0
BITMAP
3838
7C7C
FC7C
FC7C
7C7C
3038
0000
0000
07C0
07C0
07C0
0FC0
0FC0
7FFC
7FFC
7FFC
7FFC
7FFC
0FC0
0FC0
0FC0
0FC0
0FC0
0FC0
0FC0
0FE0
0FFC
07FC
07FC
03FE
00FC
ENDCHAR
STARTCHAR 1E9E
ENCODING 7838
SWIDTH 720 0
DWIDTH 26 0
BBX 22 24 3 0
BITMAP
03FC00
0FFF00
3FFF80
3FFFC0
7FFFE0
FF0FE0
FE07E0
FC07E0
FC0FC0
FC1F80
FC3F00
FC3FC0
FC3FE0
FC3FF0
FC3FF8
FC03F8
FC01FC
FC01FC
FC31FC
FC7FF8
FCFFF8
FCFFF0
FCFFE0
FC1F80
ENDCHAR
STARTCHAR 1EA0
ENCODING 7840
SWIDTH 581 0
DWIDTH 21 0
BBX 21 32 0 -8
BITMAP
01FC00
03FE00
03FE00
03FE00
07FF00
07DF00
07DF00
07DF80
0FDF80
0F8F80
0F8F80
1F8FC0
1F8FC0
1F0FC0
3FFFE0
3FFFE0
3FFFE0
3FFFF0
7FFFF0
7E03F0
7E03F0
FE03F8
FC01F8
FC01F8
000000
000000
007000
00F800
01FC00
01FC00
01F800
00F800
ENDCHAR
STARTCHAR 1EA1
ENCODING 7841
SWIDTH 526 0
DWIDTH 19 0
BBX 16 26 1 -8
BITMAP
07F0
1FFC
7FFE
3FFE
3FFF
183F
003F
03FF
1FFF
3FFF
7F3F
7C3F
FC3F
FFFF
7FFF
7FFF
3FDF
1F1F
0000
0000
03E0
03F0
07F0
07F0
03E0
01C0
ENDCHAR
STARTCHAR 1EA2
ENCODING 7842
SWIDTH 581 0
DWIDTH 21 0
BBX 21 33 0 0
BITMAP
01E000
01F800
01FC00
007C00
003C00
00FC00
00F000
000000
000000
01FC00
03FE00
03FE00
03FE00
07FF00
07DF00
07DF00
07DF80
0FDF80
0F8F80
0F8F80
1F8FC0
1F8FC0
1F0FC0
3FFFE0
3FFFE0
3FFFE0
3FFFF0
7FFFF0
7E03F0
7E03F0
FE03F8
FC01F8
FC01F8
ENDCHAR
STARTCHAR 1EA3
ENCODING 7843
SWIDTH 526 0
DWIDTH 19 0
BBX 16 29 1 0
BITMAP
0300
03E0
03F0
03F8
00F8
00F8
01F8
01F0
01C0
0000
0000
07F0
1FFC
7FFE
3FFF
3FFF
183F
003F
07FF
1FFF
3FFF
7F3F
FC3F
FC3F
FFFF
7FFF
7FFF
3FDF
1F1F
ENDCHAR
STARTCHAR 1EA4
ENCODING 7844
SWIDTH 581 0
DWIDTH 21 0
BBX 21 33 0 0
BITMAP
000060
0000F0
00F9F0
01FDC0
03FE80
07DF00
078F00
000400
000000
01FC00
03FE00
03FE00
03FE00
07FF00
07DF00
07DF00
07DF80
0FDF80
0F8F80
0F8F80
1F8FC0
1F8FC0
1F0FC0
3FFFE0
3FFFE0
3FFFE0
3FFFF0
7FFFF0
7E03F0
7E03F0
FE03F8
FC01F8
FC01F8
ENDCHAR
STARTCHAR 1EA5
ENCODING 7845
SWIDTH 526 0
DWIDTH 19 0
BBX 19 29 1 0
BITMAP
000080
0000E0
0001E0
0003E0
03F3C0
07F980
0FFC00
0F3C00
060C00
000000
000000
07F000
1FFC00
7FFE00
3FFE00
3FFF00
183F00
003F00
03FF00
1FFF00
3FFF00
7F3F00
7C3F00
FC3F00
FFFF00
7FFF00
7FFF00
3FDF00
1F1F00
ENDCHAR
STARTCHAR 1EA6
ENCODING 7846
SWIDTH 581 0
DWIDTH 21 0
BBX 21 33 0 0
BITMAP
300000
780000
7CF800
1DFC00
0BFE00
07DF00
078F00
000400
000000
01FC00
03FE00
03FE00
03FE00
07FF00
07DF00
07DF00
07DF80
0FDF80
0F8F80
0F8F80
1F8FC0
1F8FC0
1F0FC0
3FFFE0
3FFFE0
3FFFE0
3FFFF0
7FFFF0
7E03F0
7E03F0
FE03F8
FC01F8
FC01F8
ENDCHAR
STARTCHAR 1EA7
ENCODING 7847
SWIDTH 526 0
DWIDTH 19 0
BBX 17 29 0 0
BITMAP
200000
700000
F00000
780000
79F800
3BFC00
07FE00
079E00
030600
000000
000000
03F800
0FFE00
3FFF00
1FFF00
1FFF80
0C1F80
001F80
01FF80
0FFF80
1FFF80
3F9F80
3E1F80
7E1F80
7FFF80
3FFF80
3FFF80
1FEF80
0F8F80
ENDCHAR
STARTCHAR 1EA8
ENCODING 7848
SWIDTH 581 0
DWIDTH 21 0
BBX 21 34 0 0
BITMAP
0003C0
0003F0
0003F0
00F8F0
01FDF0
03FFC0
07DF00
078F00
000400
000000
01FC00
03FE00
03FE00
03FE00
07FF00
07DF00
07DF00
07DF80
0FDF80
0F8F80
0F8F80
1F8FC0
1F8FC0
1F0FC0
3FFFE0
3FFFE0
3FFFE0
3FFFF0
7FFFF0
7E03F0
7E03F0
FE03F8
FC01F8
FC01F8
ENDCHAR
STARTCHAR 1EA9
ENCODING 7849
SWIDTH 526 0
DWIDTH 19 0
BBX 19 29 1 1
BITMAP
0007C0
0007E0
0001E0
0001E0
03F3C0
07FB80
0FFC00
0F3C00
060C00
000000
000000
07F000
1FFC00
7FFE00
3FFF00
3FFF00
183F00
003F00
07FF00
1FFF00
3FFF00
7F3F00
FC3F00
FC3F00
FFFF00
7FFF00
7FFF00
3FDF00
1F1F00
ENDCHAR
STARTCHAR 1EAA
ENCODING 7850
SWIDTH 581 0
DWIDTH 21 0
BBX 21 35 0 0
BITMAP
03E700
07FF00
07FF00
073E00
000000
01FC00
03FC00
07FE00
078F00
030600
000000
01FC00
03FE00
03FE00
03FE00
07FF00
07DF00
07DF00
07DF80
0FDF80
0F8F80
0F8F80
1F8FC0
1F8FC0
1F0FC0
3FFFE0
3FFFE0
3FFFE0
3FFFF0
7FFFF0
7E03F0
7E03F0
FE03F8
FC01F8
FC01F8
ENDCHAR
STARTCHAR 1EAB
ENCODING 7851
SWIDTH 526 0
DWIDTH 19 0
BBX 16 31 1 0
BITMAP
07CE
0FFC
0FFC
0E78
0000
03F0
07F8
0FFC
0FBC
061C
0400
0000
0000
07F0
1FFC
7FFE
3FFE
3FFF
183F
003F
03FF
1FFF
3FFF
7F3F
7C3F
FC3F
FFFF
7FFF
7FFF
3FDF
1F1F
ENDCHAR
STARTCHAR 1EAC
ENCODING 7852
SWIDTH 581 0
DWIDTH 21 0
BBX 21 39 0 -8
BITMAP
01FC00
03FE00
07FE00
07DF00
0F0F80
020200
000000
01FC00
03FE00
03FE00
03FE00
07FF00
07DF00
07DF00
07DF80
0FDF80
0F8F80
0F8F80
1F8FC0
1F8FC0
1F0FC0
3FFFE0
3FFFE0
3FFFE0
3FFFF0
7FFFF0
7E03F0
7E03F0
FE03F8
FC01F8
FC01F8
000000
000000
007000
00F800
01FC00
01FC00
01F800
00F800
ENDCHAR
ENDFONT
